<svg width="104" height="104" viewBox="0 0 104 104" fill="none" xmlns="http://www.w3.org/2000/svg">
<g id="Group">
<path id="Vector" d="M2.53327 36.0997C3.50897 36.0997 4.29993 35.3088 4.29993 34.3331C4.29993 33.3574 3.50897 32.5664 2.53327 32.5664C1.55757 32.5664 0.766602 33.3574 0.766602 34.3331C0.766602 35.3088 1.55757 36.0997 2.53327 36.0997Z" fill="#3B5998"/>
<path id="Vector_2" d="M2.53327 43.1661C3.50897 43.1661 4.29993 42.3752 4.29993 41.3995C4.29993 40.4238 3.50897 39.6328 2.53327 39.6328C1.55757 39.6328 0.766602 40.4238 0.766602 41.3995C0.766602 42.3752 1.55757 43.1661 2.53327 43.1661Z" fill="#3B5998"/>
<path id="Vector_3" d="M2.53327 46.7003C3.50897 46.7003 4.29993 45.9094 4.29993 44.9337C4.29993 43.958 3.50897 43.167 2.53327 43.167C1.55757 43.167 0.766602 43.958 0.766602 44.9337C0.766602 45.9094 1.55757 46.7003 2.53327 46.7003Z" fill="#3B5998"/>
<path id="Vector_4" d="M2.53327 50.2335C3.50897 50.2335 4.29993 49.4426 4.29993 48.4669C4.29993 47.4912 3.50897 46.7002 2.53327 46.7002C1.55757 46.7002 0.766602 47.4912 0.766602 48.4669C0.766602 49.4426 1.55757 50.2335 2.53327 50.2335Z" fill="#3B5998"/>
<path id="Vector_5" d="M2.53327 60.8331C3.50897 60.8331 4.29993 60.0422 4.29993 59.0665C4.29993 58.0908 3.50897 57.2998 2.53327 57.2998C1.55757 57.2998 0.766602 58.0908 0.766602 59.0665C0.766602 60.0422 1.55757 60.8331 2.53327 60.8331Z" fill="#3B5998"/>
<path id="Vector_6" d="M2.53327 64.3663C3.50897 64.3663 4.29993 63.5754 4.29993 62.5997C4.29993 61.624 3.50897 60.833 2.53327 60.833C1.55757 60.833 0.766602 61.624 0.766602 62.5997C0.766602 63.5754 1.55757 64.3663 2.53327 64.3663Z" fill="#3B5998"/>
<path id="Vector_7" d="M2.53327 74.9669C3.50897 74.9669 4.29993 74.176 4.29993 73.2003C4.29993 72.2246 3.50897 71.4336 2.53327 71.4336C1.55757 71.4336 0.766602 72.2246 0.766602 73.2003C0.766602 74.176 1.55757 74.9669 2.53327 74.9669Z" fill="#3B5998"/>
<path id="Vector_8" d="M6.06672 36.0997C7.04242 36.0997 7.83338 35.3088 7.83338 34.3331C7.83338 33.3574 7.04242 32.5664 6.06672 32.5664C5.09101 32.5664 4.30005 33.3574 4.30005 34.3331C4.30005 35.3088 5.09101 36.0997 6.06672 36.0997Z" fill="#3B5998"/>
<path id="Vector_9" d="M6.06672 50.2335C7.04242 50.2335 7.83338 49.4426 7.83338 48.4669C7.83338 47.4912 7.04242 46.7002 6.06672 46.7002C5.09101 46.7002 4.30005 47.4912 4.30005 48.4669C4.30005 49.4426 5.09101 50.2335 6.06672 50.2335Z" fill="#3B5998"/>
<path id="Vector_10" d="M6.06672 57.2999C7.04242 57.2999 7.83338 56.509 7.83338 55.5333C7.83338 54.5576 7.04242 53.7666 6.06672 53.7666C5.09101 53.7666 4.30005 54.5576 4.30005 55.5333C4.30005 56.509 5.09101 57.2999 6.06672 57.2999Z" fill="#3B5998"/>
<path id="Vector_11" d="M6.06672 64.3663C7.04242 64.3663 7.83338 63.5754 7.83338 62.5997C7.83338 61.624 7.04242 60.833 6.06672 60.833C5.09101 60.833 4.30005 61.624 4.30005 62.5997C4.30005 63.5754 5.09101 64.3663 6.06672 64.3663Z" fill="#3B5998"/>
<path id="Vector_12" d="M6.06672 71.4337C7.04242 71.4337 7.83338 70.6428 7.83338 69.6671C7.83338 68.6914 7.04242 67.9004 6.06672 67.9004C5.09101 67.9004 4.30005 68.6914 4.30005 69.6671C4.30005 70.6428 5.09101 71.4337 6.06672 71.4337Z" fill="#3B5998"/>
<path id="Vector_13" d="M9.59992 32.5665C10.5756 32.5665 11.3666 31.7756 11.3666 30.7999C11.3666 29.8242 10.5756 29.0332 9.59992 29.0332C8.62422 29.0332 7.83325 29.8242 7.83325 30.7999C7.83325 31.7756 8.62422 32.5665 9.59992 32.5665Z" fill="#3B5998"/>
<path id="Vector_14" d="M9.59992 36.0997C10.5756 36.0997 11.3666 35.3088 11.3666 34.3331C11.3666 33.3574 10.5756 32.5664 9.59992 32.5664C8.62422 32.5664 7.83325 33.3574 7.83325 34.3331C7.83325 35.3088 8.62422 36.0997 9.59992 36.0997Z" fill="#3B5998"/>
<path id="Vector_15" d="M9.59992 39.6329C10.5756 39.6329 11.3666 38.842 11.3666 37.8663C11.3666 36.8906 10.5756 36.0996 9.59992 36.0996C8.62422 36.0996 7.83325 36.8906 7.83325 37.8663C7.83325 38.842 8.62422 39.6329 9.59992 39.6329Z" fill="#3B5998"/>
<path id="Vector_16" d="M9.59992 46.7003C10.5756 46.7003 11.3666 45.9094 11.3666 44.9337C11.3666 43.958 10.5756 43.167 9.59992 43.167C8.62422 43.167 7.83325 43.958 7.83325 44.9337C7.83325 45.9094 8.62422 46.7003 9.59992 46.7003Z" fill="#3B5998"/>
<path id="Vector_17" d="M9.59992 50.2335C10.5756 50.2335 11.3666 49.4426 11.3666 48.4669C11.3666 47.4912 10.5756 46.7002 9.59992 46.7002C8.62422 46.7002 7.83325 47.4912 7.83325 48.4669C7.83325 49.4426 8.62422 50.2335 9.59992 50.2335Z" fill="#3B5998"/>
<path id="Vector_18" d="M9.59992 57.2999C10.5756 57.2999 11.3666 56.509 11.3666 55.5333C11.3666 54.5576 10.5756 53.7666 9.59992 53.7666C8.62422 53.7666 7.83325 54.5576 7.83325 55.5333C7.83325 56.509 8.62422 57.2999 9.59992 57.2999Z" fill="#3B5998"/>
<path id="Vector_19" d="M9.59992 64.3663C10.5756 64.3663 11.3666 63.5754 11.3666 62.5997C11.3666 61.624 10.5756 60.833 9.59992 60.833C8.62422 60.833 7.83325 61.624 7.83325 62.5997C7.83325 63.5754 8.62422 64.3663 9.59992 64.3663Z" fill="#3B5998"/>
<path id="Vector_20" d="M9.59992 71.4337C10.5756 71.4337 11.3666 70.6428 11.3666 69.6671C11.3666 68.6914 10.5756 67.9004 9.59992 67.9004C8.62422 67.9004 7.83325 68.6914 7.83325 69.6671C7.83325 70.6428 8.62422 71.4337 9.59992 71.4337Z" fill="#3B5998"/>
<path id="Vector_21" d="M13.1334 43.1661C14.1091 43.1661 14.9 42.3752 14.9 41.3995C14.9 40.4238 14.1091 39.6328 13.1334 39.6328C12.1577 39.6328 11.3667 40.4238 11.3667 41.3995C11.3667 42.3752 12.1577 43.1661 13.1334 43.1661Z" fill="#3B5998"/>
<path id="Vector_22" d="M13.1334 53.7667C14.1091 53.7667 14.9 52.9758 14.9 52.0001C14.9 51.0244 14.1091 50.2334 13.1334 50.2334C12.1577 50.2334 11.3667 51.0244 11.3667 52.0001C11.3667 52.9758 12.1577 53.7667 13.1334 53.7667Z" fill="#3B5998"/>
<path id="Vector_23" d="M13.1334 60.8331C14.1091 60.8331 14.9 60.0422 14.9 59.0665C14.9 58.0908 14.1091 57.2998 13.1334 57.2998C12.1577 57.2998 11.3667 58.0908 11.3667 59.0665C11.3667 60.0422 12.1577 60.8331 13.1334 60.8331Z" fill="#3B5998"/>
<path id="Vector_24" d="M13.1334 67.8995C14.1091 67.8995 14.9 67.1086 14.9 66.1329C14.9 65.1572 14.1091 64.3662 13.1334 64.3662C12.1577 64.3662 11.3667 65.1572 11.3667 66.1329C11.3667 67.1086 12.1577 67.8995 13.1334 67.8995Z" fill="#3B5998"/>
<path id="Vector_25" d="M13.1334 71.4337C14.1091 71.4337 14.9 70.6428 14.9 69.6671C14.9 68.6914 14.1091 67.9004 13.1334 67.9004C12.1577 67.9004 11.3667 68.6914 11.3667 69.6671C11.3667 70.6428 12.1577 71.4337 13.1334 71.4337Z" fill="#3B5998"/>
<path id="Vector_26" d="M16.6666 32.5665C17.6423 32.5665 18.4332 31.7756 18.4332 30.7999C18.4332 29.8242 17.6423 29.0332 16.6666 29.0332C15.6909 29.0332 14.8999 29.8242 14.8999 30.7999C14.8999 31.7756 15.6909 32.5665 16.6666 32.5665Z" fill="#3B5998"/>
<path id="Vector_27" d="M16.6666 39.6329C17.6423 39.6329 18.4332 38.842 18.4332 37.8663C18.4332 36.8906 17.6423 36.0996 16.6666 36.0996C15.6909 36.0996 14.8999 36.8906 14.8999 37.8663C14.8999 38.842 15.6909 39.6329 16.6666 39.6329Z" fill="#3B5998"/>
<path id="Vector_28" d="M16.6666 43.1661C17.6423 43.1661 18.4332 42.3752 18.4332 41.3995C18.4332 40.4238 17.6423 39.6328 16.6666 39.6328C15.6909 39.6328 14.8999 40.4238 14.8999 41.3995C14.8999 42.3752 15.6909 43.1661 16.6666 43.1661Z" fill="#3B5998"/>
<path id="Vector_29" d="M16.6666 46.7003C17.6423 46.7003 18.4332 45.9094 18.4332 44.9337C18.4332 43.958 17.6423 43.167 16.6666 43.167C15.6909 43.167 14.8999 43.958 14.8999 44.9337C14.8999 45.9094 15.6909 46.7003 16.6666 46.7003Z" fill="#3B5998"/>
<path id="Vector_30" d="M16.6666 50.2335C17.6423 50.2335 18.4332 49.4426 18.4332 48.4669C18.4332 47.4912 17.6423 46.7002 16.6666 46.7002C15.6909 46.7002 14.8999 47.4912 14.8999 48.4669C14.8999 49.4426 15.6909 50.2335 16.6666 50.2335Z" fill="#3B5998"/>
<path id="Vector_31" d="M16.6666 53.7667C17.6423 53.7667 18.4332 52.9758 18.4332 52.0001C18.4332 51.0244 17.6423 50.2334 16.6666 50.2334C15.6909 50.2334 14.8999 51.0244 14.8999 52.0001C14.8999 52.9758 15.6909 53.7667 16.6666 53.7667Z" fill="#3B5998"/>
<path id="Vector_32" d="M16.6666 57.2999C17.6423 57.2999 18.4332 56.509 18.4332 55.5333C18.4332 54.5576 17.6423 53.7666 16.6666 53.7666C15.6909 53.7666 14.8999 54.5576 14.8999 55.5333C14.8999 56.509 15.6909 57.2999 16.6666 57.2999Z" fill="#3B5998"/>
<path id="Vector_33" d="M16.6666 60.8331C17.6423 60.8331 18.4332 60.0422 18.4332 59.0665C18.4332 58.0908 17.6423 57.2998 16.6666 57.2998C15.6909 57.2998 14.8999 58.0908 14.8999 59.0665C14.8999 60.0422 15.6909 60.8331 16.6666 60.8331Z" fill="#3B5998"/>
<path id="Vector_34" d="M16.6666 67.8995C17.6423 67.8995 18.4332 67.1086 18.4332 66.1329C18.4332 65.1572 17.6423 64.3662 16.6666 64.3662C15.6909 64.3662 14.8999 65.1572 14.8999 66.1329C14.8999 67.1086 15.6909 67.8995 16.6666 67.8995Z" fill="#3B5998"/>
<path id="Vector_35" d="M16.6666 74.9669C17.6423 74.9669 18.4332 74.176 18.4332 73.2003C18.4332 72.2246 17.6423 71.4336 16.6666 71.4336C15.6909 71.4336 14.8999 72.2246 14.8999 73.2003C14.8999 74.176 15.6909 74.9669 16.6666 74.9669Z" fill="#3B5998"/>
<path id="Vector_36" d="M20.2 32.5665C21.1757 32.5665 21.9667 31.7756 21.9667 30.7999C21.9667 29.8242 21.1757 29.0332 20.2 29.0332C19.2243 29.0332 18.4333 29.8242 18.4333 30.7999C18.4333 31.7756 19.2243 32.5665 20.2 32.5665Z" fill="#3B5998"/>
<path id="Vector_37" d="M20.2 50.2335C21.1757 50.2335 21.9667 49.4426 21.9667 48.4669C21.9667 47.4912 21.1757 46.7002 20.2 46.7002C19.2243 46.7002 18.4333 47.4912 18.4333 48.4669C18.4333 49.4426 19.2243 50.2335 20.2 50.2335Z" fill="#3B5998"/>
<path id="Vector_38" d="M20.2 53.7667C21.1757 53.7667 21.9667 52.9758 21.9667 52.0001C21.9667 51.0244 21.1757 50.2334 20.2 50.2334C19.2243 50.2334 18.4333 51.0244 18.4333 52.0001C18.4333 52.9758 19.2243 53.7667 20.2 53.7667Z" fill="#3B5998"/>
<path id="Vector_39" d="M20.2 64.3663C21.1757 64.3663 21.9667 63.5754 21.9667 62.5997C21.9667 61.624 21.1757 60.833 20.2 60.833C19.2243 60.833 18.4333 61.624 18.4333 62.5997C18.4333 63.5754 19.2243 64.3663 20.2 64.3663Z" fill="#3B5998"/>
<path id="Vector_40" d="M20.2 71.4337C21.1757 71.4337 21.9667 70.6428 21.9667 69.6671C21.9667 68.6914 21.1757 67.9004 20.2 67.9004C19.2243 67.9004 18.4333 68.6914 18.4333 69.6671C18.4333 70.6428 19.2243 71.4337 20.2 71.4337Z" fill="#3B5998"/>
<path id="Vector_41" d="M20.2 74.9669C21.1757 74.9669 21.9667 74.176 21.9667 73.2003C21.9667 72.2246 21.1757 71.4336 20.2 71.4336C19.2243 71.4336 18.4333 72.2246 18.4333 73.2003C18.4333 74.176 19.2243 74.9669 20.2 74.9669Z" fill="#3B5998"/>
<path id="Vector_42" d="M23.7332 32.5665C24.7089 32.5665 25.4999 31.7756 25.4999 30.7999C25.4999 29.8242 24.7089 29.0332 23.7332 29.0332C22.7575 29.0332 21.9666 29.8242 21.9666 30.7999C21.9666 31.7756 22.7575 32.5665 23.7332 32.5665Z" fill="#3B5998"/>
<path id="Vector_43" d="M23.7332 39.6329C24.7089 39.6329 25.4999 38.842 25.4999 37.8663C25.4999 36.8906 24.7089 36.0996 23.7332 36.0996C22.7575 36.0996 21.9666 36.8906 21.9666 37.8663C21.9666 38.842 22.7575 39.6329 23.7332 39.6329Z" fill="#3B5998"/>
<path id="Vector_44" d="M23.7332 46.7003C24.7089 46.7003 25.4999 45.9094 25.4999 44.9337C25.4999 43.958 24.7089 43.167 23.7332 43.167C22.7575 43.167 21.9666 43.958 21.9666 44.9337C21.9666 45.9094 22.7575 46.7003 23.7332 46.7003Z" fill="#3B5998"/>
<path id="Vector_45" d="M23.7332 53.7667C24.7089 53.7667 25.4999 52.9758 25.4999 52.0001C25.4999 51.0244 24.7089 50.2334 23.7332 50.2334C22.7575 50.2334 21.9666 51.0244 21.9666 52.0001C21.9666 52.9758 22.7575 53.7667 23.7332 53.7667Z" fill="#3B5998"/>
<path id="Vector_46" d="M23.7332 60.8331C24.7089 60.8331 25.4999 60.0422 25.4999 59.0665C25.4999 58.0908 24.7089 57.2998 23.7332 57.2998C22.7575 57.2998 21.9666 58.0908 21.9666 59.0665C21.9666 60.0422 22.7575 60.8331 23.7332 60.8331Z" fill="#3B5998"/>
<path id="Vector_47" d="M23.7332 67.8995C24.7089 67.8995 25.4999 67.1086 25.4999 66.1329C25.4999 65.1572 24.7089 64.3662 23.7332 64.3662C22.7575 64.3662 21.9666 65.1572 21.9666 66.1329C21.9666 67.1086 22.7575 67.8995 23.7332 67.8995Z" fill="#3B5998"/>
<path id="Vector_48" d="M23.7332 74.9669C24.7089 74.9669 25.4999 74.176 25.4999 73.2003C25.4999 72.2246 24.7089 71.4336 23.7332 71.4336C22.7575 71.4336 21.9666 72.2246 21.9666 73.2003C21.9666 74.176 22.7575 74.9669 23.7332 74.9669Z" fill="#3B5998"/>
<path id="Vector_49" d="M27.2667 39.6329C28.2424 39.6329 29.0333 38.842 29.0333 37.8663C29.0333 36.8906 28.2424 36.0996 27.2667 36.0996C26.291 36.0996 25.5 36.8906 25.5 37.8663C25.5 38.842 26.291 39.6329 27.2667 39.6329Z" fill="#3B5998"/>
<path id="Vector_50" d="M27.2667 50.2335C28.2424 50.2335 29.0333 49.4426 29.0333 48.4669C29.0333 47.4912 28.2424 46.7002 27.2667 46.7002C26.291 46.7002 25.5 47.4912 25.5 48.4669C25.5 49.4426 26.291 50.2335 27.2667 50.2335Z" fill="#3B5998"/>
<path id="Vector_51" d="M27.2667 57.2999C28.2424 57.2999 29.0333 56.509 29.0333 55.5333C29.0333 54.5576 28.2424 53.7666 27.2667 53.7666C26.291 53.7666 25.5 54.5576 25.5 55.5333C25.5 56.509 26.291 57.2999 27.2667 57.2999Z" fill="#3B5998"/>
<path id="Vector_52" d="M27.2667 64.3663C28.2424 64.3663 29.0333 63.5754 29.0333 62.5997C29.0333 61.624 28.2424 60.833 27.2667 60.833C26.291 60.833 25.5 61.624 25.5 62.5997C25.5 63.5754 26.291 64.3663 27.2667 64.3663Z" fill="#3B5998"/>
<path id="Vector_53" d="M27.2667 71.4337C28.2424 71.4337 29.0333 70.6428 29.0333 69.6671C29.0333 68.6914 28.2424 67.9004 27.2667 67.9004C26.291 67.9004 25.5 68.6914 25.5 69.6671C25.5 70.6428 26.291 71.4337 27.2667 71.4337Z" fill="#3B5998"/>
<path id="Vector_54" d="M30.7999 7.83314C31.7756 7.83314 32.5665 7.04217 32.5665 6.06647C32.5665 5.09077 31.7756 4.2998 30.7999 4.2998C29.8242 4.2998 29.0332 5.09077 29.0332 6.06647C29.0332 7.04217 29.8242 7.83314 30.7999 7.83314Z" fill="#3B5998"/>
<path id="Vector_55" d="M30.7999 18.4337C31.7756 18.4337 32.5665 17.6428 32.5665 16.6671C32.5665 15.6914 31.7756 14.9004 30.7999 14.9004C29.8242 14.9004 29.0332 15.6914 29.0332 16.6671C29.0332 17.6428 29.8242 18.4337 30.7999 18.4337Z" fill="#3B5998"/>
<path id="Vector_56" d="M30.7999 25.5001C31.7756 25.5001 32.5665 24.7092 32.5665 23.7335C32.5665 22.7578 31.7756 21.9668 30.7999 21.9668C29.8242 21.9668 29.0332 22.7578 29.0332 23.7335C29.0332 24.7092 29.8242 25.5001 30.7999 25.5001Z" fill="#3B5998"/>
<path id="Vector_57" d="M30.7999 32.5665C31.7756 32.5665 32.5665 31.7756 32.5665 30.7999C32.5665 29.8242 31.7756 29.0332 30.7999 29.0332C29.8242 29.0332 29.0332 29.8242 29.0332 30.7999C29.0332 31.7756 29.8242 32.5665 30.7999 32.5665Z" fill="#3B5998"/>
<path id="Vector_58" d="M30.7999 43.1661C31.7756 43.1661 32.5665 42.3752 32.5665 41.3995C32.5665 40.4238 31.7756 39.6328 30.7999 39.6328C29.8242 39.6328 29.0332 40.4238 29.0332 41.3995C29.0332 42.3752 29.8242 43.1661 30.7999 43.1661Z" fill="#3B5998"/>
<path id="Vector_59" d="M30.7999 46.7003C31.7756 46.7003 32.5665 45.9094 32.5665 44.9337C32.5665 43.958 31.7756 43.167 30.7999 43.167C29.8242 43.167 29.0332 43.958 29.0332 44.9337C29.0332 45.9094 29.8242 46.7003 30.7999 46.7003Z" fill="#3B5998"/>
<path id="Vector_60" d="M30.7999 57.2999C31.7756 57.2999 32.5665 56.509 32.5665 55.5333C32.5665 54.5576 31.7756 53.7666 30.7999 53.7666C29.8242 53.7666 29.0332 54.5576 29.0332 55.5333C29.0332 56.509 29.8242 57.2999 30.7999 57.2999Z" fill="#3B5998"/>
<path id="Vector_61" d="M30.7999 64.3663C31.7756 64.3663 32.5665 63.5754 32.5665 62.5997C32.5665 61.624 31.7756 60.833 30.7999 60.833C29.8242 60.833 29.0332 61.624 29.0332 62.5997C29.0332 63.5754 29.8242 64.3663 30.7999 64.3663Z" fill="#3B5998"/>
<path id="Vector_62" d="M30.7999 71.4337C31.7756 71.4337 32.5665 70.6428 32.5665 69.6671C32.5665 68.6914 31.7756 67.9004 30.7999 67.9004C29.8242 67.9004 29.0332 68.6914 29.0332 69.6671C29.0332 70.6428 29.8242 71.4337 30.7999 71.4337Z" fill="#3B5998"/>
<path id="Vector_63" d="M30.7999 74.9669C31.7756 74.9669 32.5665 74.176 32.5665 73.2003C32.5665 72.2246 31.7756 71.4336 30.7999 71.4336C29.8242 71.4336 29.0332 72.2246 29.0332 73.2003C29.0332 74.176 29.8242 74.9669 30.7999 74.9669Z" fill="#3B5998"/>
<path id="Vector_64" d="M30.7999 78.5001C31.7756 78.5001 32.5665 77.7092 32.5665 76.7335C32.5665 75.7578 31.7756 74.9668 30.7999 74.9668C29.8242 74.9668 29.0332 75.7578 29.0332 76.7335C29.0332 77.7092 29.8242 78.5001 30.7999 78.5001Z" fill="#3B5998"/>
<path id="Vector_65" d="M30.7999 85.5665C31.7756 85.5665 32.5665 84.7756 32.5665 83.7999C32.5665 82.8242 31.7756 82.0332 30.7999 82.0332C29.8242 82.0332 29.0332 82.8242 29.0332 83.7999C29.0332 84.7756 29.8242 85.5665 30.7999 85.5665Z" fill="#3B5998"/>
<path id="Vector_66" d="M30.7999 89.0997C31.7756 89.0997 32.5665 88.3088 32.5665 87.3331C32.5665 86.3574 31.7756 85.5664 30.7999 85.5664C29.8242 85.5664 29.0332 86.3574 29.0332 87.3331C29.0332 88.3088 29.8242 89.0997 30.7999 89.0997Z" fill="#3B5998"/>
<path id="Vector_67" d="M30.7999 96.1661C31.7756 96.1661 32.5665 95.3752 32.5665 94.3995C32.5665 93.4238 31.7756 92.6328 30.7999 92.6328C29.8242 92.6328 29.0332 93.4238 29.0332 94.3995C29.0332 95.3752 29.8242 96.1661 30.7999 96.1661Z" fill="#3B5998"/>
<path id="Vector_68" d="M34.3333 7.83314C35.309 7.83314 36.1 7.04217 36.1 6.06647C36.1 5.09077 35.309 4.2998 34.3333 4.2998C33.3576 4.2998 32.5667 5.09077 32.5667 6.06647C32.5667 7.04217 33.3576 7.83314 34.3333 7.83314Z" fill="#3B5998"/>
<path id="Vector_69" d="M34.3333 18.4337C35.309 18.4337 36.1 17.6428 36.1 16.6671C36.1 15.6914 35.309 14.9004 34.3333 14.9004C33.3576 14.9004 32.5667 15.6914 32.5667 16.6671C32.5667 17.6428 33.3576 18.4337 34.3333 18.4337Z" fill="#3B5998"/>
<path id="Vector_70" d="M34.3333 32.5665C35.309 32.5665 36.1 31.7756 36.1 30.7999C36.1 29.8242 35.309 29.0332 34.3333 29.0332C33.3576 29.0332 32.5667 29.8242 32.5667 30.7999C32.5667 31.7756 33.3576 32.5665 34.3333 32.5665Z" fill="#3B5998"/>
<path id="Vector_71" d="M34.3333 39.6329C35.309 39.6329 36.1 38.842 36.1 37.8663C36.1 36.8906 35.309 36.0996 34.3333 36.0996C33.3576 36.0996 32.5667 36.8906 32.5667 37.8663C32.5667 38.842 33.3576 39.6329 34.3333 39.6329Z" fill="#3B5998"/>
<path id="Vector_72" d="M34.3333 50.2335C35.309 50.2335 36.1 49.4426 36.1 48.4669C36.1 47.4912 35.309 46.7002 34.3333 46.7002C33.3576 46.7002 32.5667 47.4912 32.5667 48.4669C32.5667 49.4426 33.3576 50.2335 34.3333 50.2335Z" fill="#3B5998"/>
<path id="Vector_73" d="M34.3333 64.3663C35.309 64.3663 36.1 63.5754 36.1 62.5997C36.1 61.624 35.309 60.833 34.3333 60.833C33.3576 60.833 32.5667 61.624 32.5667 62.5997C32.5667 63.5754 33.3576 64.3663 34.3333 64.3663Z" fill="#3B5998"/>
<path id="Vector_74" d="M34.3333 67.8995C35.309 67.8995 36.1 67.1086 36.1 66.1329C36.1 65.1572 35.309 64.3662 34.3333 64.3662C33.3576 64.3662 32.5667 65.1572 32.5667 66.1329C32.5667 67.1086 33.3576 67.8995 34.3333 67.8995Z" fill="#3B5998"/>
<path id="Vector_75" d="M34.3333 85.5665C35.309 85.5665 36.1 84.7756 36.1 83.7999C36.1 82.8242 35.309 82.0332 34.3333 82.0332C33.3576 82.0332 32.5667 82.8242 32.5667 83.7999C32.5667 84.7756 33.3576 85.5665 34.3333 85.5665Z" fill="#3B5998"/>
<path id="Vector_76" d="M34.3333 89.0997C35.309 89.0997 36.1 88.3088 36.1 87.3331C36.1 86.3574 35.309 85.5664 34.3333 85.5664C33.3576 85.5664 32.5667 86.3574 32.5667 87.3331C32.5667 88.3088 33.3576 89.0997 34.3333 89.0997Z" fill="#3B5998"/>
<path id="Vector_77" d="M34.3333 92.6329C35.309 92.6329 36.1 91.842 36.1 90.8663C36.1 89.8906 35.309 89.0996 34.3333 89.0996C33.3576 89.0996 32.5667 89.8906 32.5667 90.8663C32.5667 91.842 33.3576 92.6329 34.3333 92.6329Z" fill="#3B5998"/>
<path id="Vector_78" d="M34.3333 96.1661C35.309 96.1661 36.1 95.3752 36.1 94.3995C36.1 93.4238 35.309 92.6328 34.3333 92.6328C33.3576 92.6328 32.5667 93.4238 32.5667 94.3995C32.5667 95.3752 33.3576 96.1661 34.3333 96.1661Z" fill="#3B5998"/>
<path id="Vector_79" d="M34.3333 99.7003C35.309 99.7003 36.1 98.9094 36.1 97.9337C36.1 96.958 35.309 96.167 34.3333 96.167C33.3576 96.167 32.5667 96.958 32.5667 97.9337C32.5667 98.9094 33.3576 99.7003 34.3333 99.7003Z" fill="#3B5998"/>
<path id="Vector_80" d="M34.3333 103.234C35.309 103.234 36.1 102.443 36.1 101.467C36.1 100.491 35.309 99.7002 34.3333 99.7002C33.3576 99.7002 32.5667 100.491 32.5667 101.467C32.5667 102.443 33.3576 103.234 34.3333 103.234Z" fill="#3B5998"/>
<path id="Vector_81" d="M37.8665 4.29993C38.8422 4.29993 39.6332 3.50897 39.6332 2.53327C39.6332 1.55757 38.8422 0.766602 37.8665 0.766602C36.8908 0.766602 36.0999 1.55757 36.0999 2.53327C36.0999 3.50897 36.8908 4.29993 37.8665 4.29993Z" fill="#3B5998"/>
<path id="Vector_82" d="M37.8665 14.8995C38.8422 14.8995 39.6332 14.1086 39.6332 13.1329C39.6332 12.1572 38.8422 11.3662 37.8665 11.3662C36.8908 11.3662 36.0999 12.1572 36.0999 13.1329C36.0999 14.1086 36.8908 14.8995 37.8665 14.8995Z" fill="#3B5998"/>
<path id="Vector_83" d="M37.8665 25.5001C38.8422 25.5001 39.6332 24.7092 39.6332 23.7335C39.6332 22.7578 38.8422 21.9668 37.8665 21.9668C36.8908 21.9668 36.0999 22.7578 36.0999 23.7335C36.0999 24.7092 36.8908 25.5001 37.8665 25.5001Z" fill="#3B5998"/>
<path id="Vector_84" d="M37.8665 29.0333C38.8422 29.0333 39.6332 28.2424 39.6332 27.2667C39.6332 26.291 38.8422 25.5 37.8665 25.5C36.8908 25.5 36.0999 26.291 36.0999 27.2667C36.0999 28.2424 36.8908 29.0333 37.8665 29.0333Z" fill="#3B5998"/>
<path id="Vector_85" d="M37.8665 32.5665C38.8422 32.5665 39.6332 31.7756 39.6332 30.7999C39.6332 29.8242 38.8422 29.0332 37.8665 29.0332C36.8908 29.0332 36.0999 29.8242 36.0999 30.7999C36.0999 31.7756 36.8908 32.5665 37.8665 32.5665Z" fill="#3B5998"/>
<path id="Vector_86" d="M37.8665 39.6329C38.8422 39.6329 39.6332 38.842 39.6332 37.8663C39.6332 36.8906 38.8422 36.0996 37.8665 36.0996C36.8908 36.0996 36.0999 36.8906 36.0999 37.8663C36.0999 38.842 36.8908 39.6329 37.8665 39.6329Z" fill="#3B5998"/>
<path id="Vector_87" d="M37.8665 43.1661C38.8422 43.1661 39.6332 42.3752 39.6332 41.3995C39.6332 40.4238 38.8422 39.6328 37.8665 39.6328C36.8908 39.6328 36.0999 40.4238 36.0999 41.3995C36.0999 42.3752 36.8908 43.1661 37.8665 43.1661Z" fill="#3B5998"/>
<path id="Vector_88" d="M37.8665 46.7003C38.8422 46.7003 39.6332 45.9094 39.6332 44.9337C39.6332 43.958 38.8422 43.167 37.8665 43.167C36.8908 43.167 36.0999 43.958 36.0999 44.9337C36.0999 45.9094 36.8908 46.7003 37.8665 46.7003Z" fill="#3B5998"/>
<path id="Vector_89" d="M37.8665 50.2335C38.8422 50.2335 39.6332 49.4426 39.6332 48.4669C39.6332 47.4912 38.8422 46.7002 37.8665 46.7002C36.8908 46.7002 36.0999 47.4912 36.0999 48.4669C36.0999 49.4426 36.8908 50.2335 37.8665 50.2335Z" fill="#3B5998"/>
<path id="Vector_90" d="M37.8665 57.2999C38.8422 57.2999 39.6332 56.509 39.6332 55.5333C39.6332 54.5576 38.8422 53.7666 37.8665 53.7666C36.8908 53.7666 36.0999 54.5576 36.0999 55.5333C36.0999 56.509 36.8908 57.2999 37.8665 57.2999Z" fill="#3B5998"/>
<path id="Vector_91" d="M37.8665 60.8331C38.8422 60.8331 39.6332 60.0422 39.6332 59.0665C39.6332 58.0908 38.8422 57.2998 37.8665 57.2998C36.8908 57.2998 36.0999 58.0908 36.0999 59.0665C36.0999 60.0422 36.8908 60.8331 37.8665 60.8331Z" fill="#3B5998"/>
<path id="Vector_92" d="M37.8665 64.3663C38.8422 64.3663 39.6332 63.5754 39.6332 62.5997C39.6332 61.624 38.8422 60.833 37.8665 60.833C36.8908 60.833 36.0999 61.624 36.0999 62.5997C36.0999 63.5754 36.8908 64.3663 37.8665 64.3663Z" fill="#3B5998"/>
<path id="Vector_93" d="M37.8665 67.8995C38.8422 67.8995 39.6332 67.1086 39.6332 66.1329C39.6332 65.1572 38.8422 64.3662 37.8665 64.3662C36.8908 64.3662 36.0999 65.1572 36.0999 66.1329C36.0999 67.1086 36.8908 67.8995 37.8665 67.8995Z" fill="#3B5998"/>
<path id="Vector_94" d="M37.8665 78.5001C38.8422 78.5001 39.6332 77.7092 39.6332 76.7335C39.6332 75.7578 38.8422 74.9668 37.8665 74.9668C36.8908 74.9668 36.0999 75.7578 36.0999 76.7335C36.0999 77.7092 36.8908 78.5001 37.8665 78.5001Z" fill="#3B5998"/>
<path id="Vector_95" d="M37.8665 89.0997C38.8422 89.0997 39.6332 88.3088 39.6332 87.3331C39.6332 86.3574 38.8422 85.5664 37.8665 85.5664C36.8908 85.5664 36.0999 86.3574 36.0999 87.3331C36.0999 88.3088 36.8908 89.0997 37.8665 89.0997Z" fill="#3B5998"/>
<path id="Vector_96" d="M37.8665 92.6329C38.8422 92.6329 39.6332 91.842 39.6332 90.8663C39.6332 89.8906 38.8422 89.0996 37.8665 89.0996C36.8908 89.0996 36.0999 89.8906 36.0999 90.8663C36.0999 91.842 36.8908 92.6329 37.8665 92.6329Z" fill="#3B5998"/>
<path id="Vector_97" d="M37.8665 96.1661C38.8422 96.1661 39.6332 95.3752 39.6332 94.3995C39.6332 93.4238 38.8422 92.6328 37.8665 92.6328C36.8908 92.6328 36.0999 93.4238 36.0999 94.3995C36.0999 95.3752 36.8908 96.1661 37.8665 96.1661Z" fill="#3B5998"/>
<path id="Vector_98" d="M37.8665 103.234C38.8422 103.234 39.6332 102.443 39.6332 101.467C39.6332 100.491 38.8422 99.7002 37.8665 99.7002C36.8908 99.7002 36.0999 100.491 36.0999 101.467C36.0999 102.443 36.8908 103.234 37.8665 103.234Z" fill="#3B5998"/>
<path id="Vector_99" d="M41.4 4.29993C42.3757 4.29993 43.1666 3.50897 43.1666 2.53327C43.1666 1.55757 42.3757 0.766602 41.4 0.766602C40.4243 0.766602 39.6333 1.55757 39.6333 2.53327C39.6333 3.50897 40.4243 4.29993 41.4 4.29993Z" fill="#3B5998"/>
<path id="Vector_100" d="M41.4 11.3663C42.3757 11.3663 43.1666 10.5754 43.1666 9.59967C43.1666 8.62397 42.3757 7.83301 41.4 7.83301C40.4243 7.83301 39.6333 8.62397 39.6333 9.59967C39.6333 10.5754 40.4243 11.3663 41.4 11.3663Z" fill="#3B5998"/>
<path id="Vector_101" d="M41.4 18.4337C42.3757 18.4337 43.1666 17.6428 43.1666 16.6671C43.1666 15.6914 42.3757 14.9004 41.4 14.9004C40.4243 14.9004 39.6333 15.6914 39.6333 16.6671C39.6333 17.6428 40.4243 18.4337 41.4 18.4337Z" fill="#3B5998"/>
<path id="Vector_102" d="M41.4 29.0333C42.3757 29.0333 43.1666 28.2424 43.1666 27.2667C43.1666 26.291 42.3757 25.5 41.4 25.5C40.4243 25.5 39.6333 26.291 39.6333 27.2667C39.6333 28.2424 40.4243 29.0333 41.4 29.0333Z" fill="#3B5998"/>
<path id="Vector_103" d="M41.4 32.5665C42.3757 32.5665 43.1666 31.7756 43.1666 30.7999C43.1666 29.8242 42.3757 29.0332 41.4 29.0332C40.4243 29.0332 39.6333 29.8242 39.6333 30.7999C39.6333 31.7756 40.4243 32.5665 41.4 32.5665Z" fill="#3B5998"/>
<path id="Vector_104" d="M41.4 36.0997C42.3757 36.0997 43.1666 35.3088 43.1666 34.3331C43.1666 33.3574 42.3757 32.5664 41.4 32.5664C40.4243 32.5664 39.6333 33.3574 39.6333 34.3331C39.6333 35.3088 40.4243 36.0997 41.4 36.0997Z" fill="#3B5998"/>
<path id="Vector_105" d="M41.4 67.8995C42.3757 67.8995 43.1666 67.1086 43.1666 66.1329C43.1666 65.1572 42.3757 64.3662 41.4 64.3662C40.4243 64.3662 39.6333 65.1572 39.6333 66.1329C39.6333 67.1086 40.4243 67.8995 41.4 67.8995Z" fill="#3B5998"/>
<path id="Vector_106" d="M41.4 71.4337C42.3757 71.4337 43.1666 70.6428 43.1666 69.6671C43.1666 68.6914 42.3757 67.9004 41.4 67.9004C40.4243 67.9004 39.6333 68.6914 39.6333 69.6671C39.6333 70.6428 40.4243 71.4337 41.4 71.4337Z" fill="#3B5998"/>
<path id="Vector_107" d="M41.4 78.5001C42.3757 78.5001 43.1666 77.7092 43.1666 76.7335C43.1666 75.7578 42.3757 74.9668 41.4 74.9668C40.4243 74.9668 39.6333 75.7578 39.6333 76.7335C39.6333 77.7092 40.4243 78.5001 41.4 78.5001Z" fill="#3B5998"/>
<path id="Vector_108" d="M41.4 89.0997C42.3757 89.0997 43.1666 88.3088 43.1666 87.3331C43.1666 86.3574 42.3757 85.5664 41.4 85.5664C40.4243 85.5664 39.6333 86.3574 39.6333 87.3331C39.6333 88.3088 40.4243 89.0997 41.4 89.0997Z" fill="#3B5998"/>
<path id="Vector_109" d="M41.4 92.6329C42.3757 92.6329 43.1666 91.842 43.1666 90.8663C43.1666 89.8906 42.3757 89.0996 41.4 89.0996C40.4243 89.0996 39.6333 89.8906 39.6333 90.8663C39.6333 91.842 40.4243 92.6329 41.4 92.6329Z" fill="#3B5998"/>
<path id="Vector_110" d="M41.4 99.7003C42.3757 99.7003 43.1666 98.9094 43.1666 97.9337C43.1666 96.958 42.3757 96.167 41.4 96.167C40.4243 96.167 39.6333 96.958 39.6333 97.9337C39.6333 98.9094 40.4243 99.7003 41.4 99.7003Z" fill="#3B5998"/>
<path id="Vector_111" d="M41.4 103.234C42.3757 103.234 43.1666 102.443 43.1666 101.467C43.1666 100.491 42.3757 99.7002 41.4 99.7002C40.4243 99.7002 39.6333 100.491 39.6333 101.467C39.6333 102.443 40.4243 103.234 41.4 103.234Z" fill="#3B5998"/>
<path id="Vector_112" d="M44.9332 4.29993C45.9089 4.29993 46.6998 3.50897 46.6998 2.53327C46.6998 1.55757 45.9089 0.766602 44.9332 0.766602C43.9575 0.766602 43.1665 1.55757 43.1665 2.53327C43.1665 3.50897 43.9575 4.29993 44.9332 4.29993Z" fill="#3B5998"/>
<path id="Vector_113" d="M44.9332 21.9669C45.9089 21.9669 46.6998 21.176 46.6998 20.2003C46.6998 19.2246 45.9089 18.4336 44.9332 18.4336C43.9575 18.4336 43.1665 19.2246 43.1665 20.2003C43.1665 21.176 43.9575 21.9669 44.9332 21.9669Z" fill="#3B5998"/>
<path id="Vector_114" d="M44.9332 25.5001C45.9089 25.5001 46.6998 24.7092 46.6998 23.7335C46.6998 22.7578 45.9089 21.9668 44.9332 21.9668C43.9575 21.9668 43.1665 22.7578 43.1665 23.7335C43.1665 24.7092 43.9575 25.5001 44.9332 25.5001Z" fill="#3B5998"/>
<path id="Vector_115" d="M44.9332 29.0333C45.9089 29.0333 46.6998 28.2424 46.6998 27.2667C46.6998 26.291 45.9089 25.5 44.9332 25.5C43.9575 25.5 43.1665 26.291 43.1665 27.2667C43.1665 28.2424 43.9575 29.0333 44.9332 29.0333Z" fill="#3B5998"/>
<path id="Vector_116" d="M44.9332 39.6329C45.9089 39.6329 46.6998 38.842 46.6998 37.8663C46.6998 36.8906 45.9089 36.0996 44.9332 36.0996C43.9575 36.0996 43.1665 36.8906 43.1665 37.8663C43.1665 38.842 43.9575 39.6329 44.9332 39.6329Z" fill="#3B5998"/>
<path id="Vector_117" d="M44.9332 85.5665C45.9089 85.5665 46.6998 84.7756 46.6998 83.7999C46.6998 82.8242 45.9089 82.0332 44.9332 82.0332C43.9575 82.0332 43.1665 82.8242 43.1665 83.7999C43.1665 84.7756 43.9575 85.5665 44.9332 85.5665Z" fill="#3B5998"/>
<path id="Vector_118" d="M44.9332 92.6329C45.9089 92.6329 46.6998 91.842 46.6998 90.8663C46.6998 89.8906 45.9089 89.0996 44.9332 89.0996C43.9575 89.0996 43.1665 89.8906 43.1665 90.8663C43.1665 91.842 43.9575 92.6329 44.9332 92.6329Z" fill="#3B5998"/>
<path id="Vector_119" d="M44.9332 103.234C45.9089 103.234 46.6998 102.443 46.6998 101.467C46.6998 100.491 45.9089 99.7002 44.9332 99.7002C43.9575 99.7002 43.1665 100.491 43.1665 101.467C43.1665 102.443 43.9575 103.234 44.9332 103.234Z" fill="#3B5998"/>
<path id="Vector_120" d="M48.4666 4.29993C49.4423 4.29993 50.2333 3.50897 50.2333 2.53327C50.2333 1.55757 49.4423 0.766602 48.4666 0.766602C47.4909 0.766602 46.7 1.55757 46.7 2.53327C46.7 3.50897 47.4909 4.29993 48.4666 4.29993Z" fill="#3B5998"/>
<path id="Vector_121" d="M48.4666 7.83314C49.4423 7.83314 50.2333 7.04217 50.2333 6.06647C50.2333 5.09077 49.4423 4.2998 48.4666 4.2998C47.4909 4.2998 46.7 5.09077 46.7 6.06647C46.7 7.04217 47.4909 7.83314 48.4666 7.83314Z" fill="#3B5998"/>
<path id="Vector_122" d="M48.4666 18.4337C49.4423 18.4337 50.2333 17.6428 50.2333 16.6671C50.2333 15.6914 49.4423 14.9004 48.4666 14.9004C47.4909 14.9004 46.7 15.6914 46.7 16.6671C46.7 17.6428 47.4909 18.4337 48.4666 18.4337Z" fill="#3B5998"/>
<path id="Vector_123" d="M48.4666 32.5665C49.4423 32.5665 50.2333 31.7756 50.2333 30.7999C50.2333 29.8242 49.4423 29.0332 48.4666 29.0332C47.4909 29.0332 46.7 29.8242 46.7 30.7999C46.7 31.7756 47.4909 32.5665 48.4666 32.5665Z" fill="#3B5998"/>
<path id="Vector_124" d="M48.4666 36.0997C49.4423 36.0997 50.2333 35.3088 50.2333 34.3331C50.2333 33.3574 49.4423 32.5664 48.4666 32.5664C47.4909 32.5664 46.7 33.3574 46.7 34.3331C46.7 35.3088 47.4909 36.0997 48.4666 36.0997Z" fill="#3B5998"/>
<path id="Vector_125" d="M48.4666 67.8995C49.4423 67.8995 50.2333 67.1086 50.2333 66.1329C50.2333 65.1572 49.4423 64.3662 48.4666 64.3662C47.4909 64.3662 46.7 65.1572 46.7 66.1329C46.7 67.1086 47.4909 67.8995 48.4666 67.8995Z" fill="#3B5998"/>
<path id="Vector_126" d="M48.4666 82.0333C49.4423 82.0333 50.2333 81.2424 50.2333 80.2667C50.2333 79.291 49.4423 78.5 48.4666 78.5C47.4909 78.5 46.7 79.291 46.7 80.2667C46.7 81.2424 47.4909 82.0333 48.4666 82.0333Z" fill="#3B5998"/>
<path id="Vector_127" d="M48.4666 89.0997C49.4423 89.0997 50.2333 88.3088 50.2333 87.3331C50.2333 86.3574 49.4423 85.5664 48.4666 85.5664C47.4909 85.5664 46.7 86.3574 46.7 87.3331C46.7 88.3088 47.4909 89.0997 48.4666 89.0997Z" fill="#3B5998"/>
<path id="Vector_128" d="M48.4666 96.1661C49.4423 96.1661 50.2333 95.3752 50.2333 94.3995C50.2333 93.4238 49.4423 92.6328 48.4666 92.6328C47.4909 92.6328 46.7 93.4238 46.7 94.3995C46.7 95.3752 47.4909 96.1661 48.4666 96.1661Z" fill="#3B5998"/>
<path id="Vector_129" d="M48.4666 103.234C49.4423 103.234 50.2333 102.443 50.2333 101.467C50.2333 100.491 49.4423 99.7002 48.4666 99.7002C47.4909 99.7002 46.7 100.491 46.7 101.467C46.7 102.443 47.4909 103.234 48.4666 103.234Z" fill="#3B5998"/>
<path id="Vector_130" d="M51.9998 7.83314C52.9755 7.83314 53.7665 7.04217 53.7665 6.06647C53.7665 5.09077 52.9755 4.2998 51.9998 4.2998C51.0241 4.2998 50.2332 5.09077 50.2332 6.06647C50.2332 7.04217 51.0241 7.83314 51.9998 7.83314Z" fill="#3B5998"/>
<path id="Vector_131" d="M51.9998 11.3663C52.9755 11.3663 53.7665 10.5754 53.7665 9.59967C53.7665 8.62397 52.9755 7.83301 51.9998 7.83301C51.0241 7.83301 50.2332 8.62397 50.2332 9.59967C50.2332 10.5754 51.0241 11.3663 51.9998 11.3663Z" fill="#3B5998"/>
<path id="Vector_132" d="M51.9998 18.4337C52.9755 18.4337 53.7665 17.6428 53.7665 16.6671C53.7665 15.6914 52.9755 14.9004 51.9998 14.9004C51.0241 14.9004 50.2332 15.6914 50.2332 16.6671C50.2332 17.6428 51.0241 18.4337 51.9998 18.4337Z" fill="#3B5998"/>
<path id="Vector_133" d="M51.9998 25.5001C52.9755 25.5001 53.7665 24.7092 53.7665 23.7335C53.7665 22.7578 52.9755 21.9668 51.9998 21.9668C51.0241 21.9668 50.2332 22.7578 50.2332 23.7335C50.2332 24.7092 51.0241 25.5001 51.9998 25.5001Z" fill="#3B5998"/>
<path id="Vector_134" d="M51.9998 29.0333C52.9755 29.0333 53.7665 28.2424 53.7665 27.2667C53.7665 26.291 52.9755 25.5 51.9998 25.5C51.0241 25.5 50.2332 26.291 50.2332 27.2667C50.2332 28.2424 51.0241 29.0333 51.9998 29.0333Z" fill="#3B5998"/>
<path id="Vector_135" d="M51.9998 32.5665C52.9755 32.5665 53.7665 31.7756 53.7665 30.7999C53.7665 29.8242 52.9755 29.0332 51.9998 29.0332C51.0241 29.0332 50.2332 29.8242 50.2332 30.7999C50.2332 31.7756 51.0241 32.5665 51.9998 32.5665Z" fill="#3B5998"/>
<path id="Vector_136" d="M51.9998 67.8995C52.9755 67.8995 53.7665 67.1086 53.7665 66.1329C53.7665 65.1572 52.9755 64.3662 51.9998 64.3662C51.0241 64.3662 50.2332 65.1572 50.2332 66.1329C50.2332 67.1086 51.0241 67.8995 51.9998 67.8995Z" fill="#3B5998"/>
<path id="Vector_137" d="M51.9998 74.9669C52.9755 74.9669 53.7665 74.176 53.7665 73.2003C53.7665 72.2246 52.9755 71.4336 51.9998 71.4336C51.0241 71.4336 50.2332 72.2246 50.2332 73.2003C50.2332 74.176 51.0241 74.9669 51.9998 74.9669Z" fill="#3B5998"/>
<path id="Vector_138" d="M51.9998 78.5001C52.9755 78.5001 53.7665 77.7092 53.7665 76.7335C53.7665 75.7578 52.9755 74.9668 51.9998 74.9668C51.0241 74.9668 50.2332 75.7578 50.2332 76.7335C50.2332 77.7092 51.0241 78.5001 51.9998 78.5001Z" fill="#3B5998"/>
<path id="Vector_139" d="M51.9998 89.0997C52.9755 89.0997 53.7665 88.3088 53.7665 87.3331C53.7665 86.3574 52.9755 85.5664 51.9998 85.5664C51.0241 85.5664 50.2332 86.3574 50.2332 87.3331C50.2332 88.3088 51.0241 89.0997 51.9998 89.0997Z" fill="#3B5998"/>
<path id="Vector_140" d="M51.9998 103.234C52.9755 103.234 53.7665 102.443 53.7665 101.467C53.7665 100.491 52.9755 99.7002 51.9998 99.7002C51.0241 99.7002 50.2332 100.491 50.2332 101.467C50.2332 102.443 51.0241 103.234 51.9998 103.234Z" fill="#3B5998"/>
<path id="Vector_141" d="M55.5333 4.29993C56.509 4.29993 57.2999 3.50897 57.2999 2.53327C57.2999 1.55757 56.509 0.766602 55.5333 0.766602C54.5576 0.766602 53.7666 1.55757 53.7666 2.53327C53.7666 3.50897 54.5576 4.29993 55.5333 4.29993Z" fill="#3B5998"/>
<path id="Vector_142" d="M55.5333 21.9669C56.509 21.9669 57.2999 21.176 57.2999 20.2003C57.2999 19.2246 56.509 18.4336 55.5333 18.4336C54.5576 18.4336 53.7666 19.2246 53.7666 20.2003C53.7666 21.176 54.5576 21.9669 55.5333 21.9669Z" fill="#3B5998"/>
<path id="Vector_143" d="M55.5333 29.0333C56.509 29.0333 57.2999 28.2424 57.2999 27.2667C57.2999 26.291 56.509 25.5 55.5333 25.5C54.5576 25.5 53.7666 26.291 53.7666 27.2667C53.7666 28.2424 54.5576 29.0333 55.5333 29.0333Z" fill="#3B5998"/>
<path id="Vector_144" d="M55.5333 32.5665C56.509 32.5665 57.2999 31.7756 57.2999 30.7999C57.2999 29.8242 56.509 29.0332 55.5333 29.0332C54.5576 29.0332 53.7666 29.8242 53.7666 30.7999C53.7666 31.7756 54.5576 32.5665 55.5333 32.5665Z" fill="#3B5998"/>
<path id="Vector_145" d="M55.5333 39.6329C56.509 39.6329 57.2999 38.842 57.2999 37.8663C57.2999 36.8906 56.509 36.0996 55.5333 36.0996C54.5576 36.0996 53.7666 36.8906 53.7666 37.8663C53.7666 38.842 54.5576 39.6329 55.5333 39.6329Z" fill="#3B5998"/>
<path id="Vector_146" d="M55.5333 67.8995C56.509 67.8995 57.2999 67.1086 57.2999 66.1329C57.2999 65.1572 56.509 64.3662 55.5333 64.3662C54.5576 64.3662 53.7666 65.1572 53.7666 66.1329C53.7666 67.1086 54.5576 67.8995 55.5333 67.8995Z" fill="#3B5998"/>
<path id="Vector_147" d="M55.5333 78.5001C56.509 78.5001 57.2999 77.7092 57.2999 76.7335C57.2999 75.7578 56.509 74.9668 55.5333 74.9668C54.5576 74.9668 53.7666 75.7578 53.7666 76.7335C53.7666 77.7092 54.5576 78.5001 55.5333 78.5001Z" fill="#3B5998"/>
<path id="Vector_148" d="M55.5333 85.5665C56.509 85.5665 57.2999 84.7756 57.2999 83.7999C57.2999 82.8242 56.509 82.0332 55.5333 82.0332C54.5576 82.0332 53.7666 82.8242 53.7666 83.7999C53.7666 84.7756 54.5576 85.5665 55.5333 85.5665Z" fill="#3B5998"/>
<path id="Vector_149" d="M55.5333 92.6329C56.509 92.6329 57.2999 91.842 57.2999 90.8663C57.2999 89.8906 56.509 89.0996 55.5333 89.0996C54.5576 89.0996 53.7666 89.8906 53.7666 90.8663C53.7666 91.842 54.5576 92.6329 55.5333 92.6329Z" fill="#3B5998"/>
<path id="Vector_150" d="M55.5333 99.7003C56.509 99.7003 57.2999 98.9094 57.2999 97.9337C57.2999 96.958 56.509 96.167 55.5333 96.167C54.5576 96.167 53.7666 96.958 53.7666 97.9337C53.7666 98.9094 54.5576 99.7003 55.5333 99.7003Z" fill="#3B5998"/>
<path id="Vector_151" d="M59.0667 4.29993C60.0424 4.29993 60.8334 3.50897 60.8334 2.53327C60.8334 1.55757 60.0424 0.766602 59.0667 0.766602C58.091 0.766602 57.3 1.55757 57.3 2.53327C57.3 3.50897 58.091 4.29993 59.0667 4.29993Z" fill="#3B5998"/>
<path id="Vector_152" d="M59.0667 7.83314C60.0424 7.83314 60.8334 7.04217 60.8334 6.06647C60.8334 5.09077 60.0424 4.2998 59.0667 4.2998C58.091 4.2998 57.3 5.09077 57.3 6.06647C57.3 7.04217 58.091 7.83314 59.0667 7.83314Z" fill="#3B5998"/>
<path id="Vector_153" d="M59.0667 14.8995C60.0424 14.8995 60.8334 14.1086 60.8334 13.1329C60.8334 12.1572 60.0424 11.3662 59.0667 11.3662C58.091 11.3662 57.3 12.1572 57.3 13.1329C57.3 14.1086 58.091 14.8995 59.0667 14.8995Z" fill="#3B5998"/>
<path id="Vector_154" d="M59.0667 18.4337C60.0424 18.4337 60.8334 17.6428 60.8334 16.6671C60.8334 15.6914 60.0424 14.9004 59.0667 14.9004C58.091 14.9004 57.3 15.6914 57.3 16.6671C57.3 17.6428 58.091 18.4337 59.0667 18.4337Z" fill="#3B5998"/>
<path id="Vector_155" d="M59.0667 25.5001C60.0424 25.5001 60.8334 24.7092 60.8334 23.7335C60.8334 22.7578 60.0424 21.9668 59.0667 21.9668C58.091 21.9668 57.3 22.7578 57.3 23.7335C57.3 24.7092 58.091 25.5001 59.0667 25.5001Z" fill="#3B5998"/>
<path id="Vector_156" d="M59.0667 32.5665C60.0424 32.5665 60.8334 31.7756 60.8334 30.7999C60.8334 29.8242 60.0424 29.0332 59.0667 29.0332C58.091 29.0332 57.3 29.8242 57.3 30.7999C57.3 31.7756 58.091 32.5665 59.0667 32.5665Z" fill="#3B5998"/>
<path id="Vector_157" d="M59.0667 36.0997C60.0424 36.0997 60.8334 35.3088 60.8334 34.3331C60.8334 33.3574 60.0424 32.5664 59.0667 32.5664C58.091 32.5664 57.3 33.3574 57.3 34.3331C57.3 35.3088 58.091 36.0997 59.0667 36.0997Z" fill="#3B5998"/>
<path id="Vector_158" d="M59.0667 67.8995C60.0424 67.8995 60.8334 67.1086 60.8334 66.1329C60.8334 65.1572 60.0424 64.3662 59.0667 64.3662C58.091 64.3662 57.3 65.1572 57.3 66.1329C57.3 67.1086 58.091 67.8995 59.0667 67.8995Z" fill="#3B5998"/>
<path id="Vector_159" d="M59.0667 71.4337C60.0424 71.4337 60.8334 70.6428 60.8334 69.6671C60.8334 68.6914 60.0424 67.9004 59.0667 67.9004C58.091 67.9004 57.3 68.6914 57.3 69.6671C57.3 70.6428 58.091 71.4337 59.0667 71.4337Z" fill="#3B5998"/>
<path id="Vector_160" d="M59.0667 78.5001C60.0424 78.5001 60.8334 77.7092 60.8334 76.7335C60.8334 75.7578 60.0424 74.9668 59.0667 74.9668C58.091 74.9668 57.3 75.7578 57.3 76.7335C57.3 77.7092 58.091 78.5001 59.0667 78.5001Z" fill="#3B5998"/>
<path id="Vector_161" d="M59.0667 99.7003C60.0424 99.7003 60.8334 98.9094 60.8334 97.9337C60.8334 96.958 60.0424 96.167 59.0667 96.167C58.091 96.167 57.3 96.958 57.3 97.9337C57.3 98.9094 58.091 99.7003 59.0667 99.7003Z" fill="#3B5998"/>
<path id="Vector_162" d="M59.0667 103.234C60.0424 103.234 60.8334 102.443 60.8334 101.467C60.8334 100.491 60.0424 99.7002 59.0667 99.7002C58.091 99.7002 57.3 100.491 57.3 101.467C57.3 102.443 58.091 103.234 59.0667 103.234Z" fill="#3B5998"/>
<path id="Vector_163" d="M62.5999 4.29993C63.5756 4.29993 64.3666 3.50897 64.3666 2.53327C64.3666 1.55757 63.5756 0.766602 62.5999 0.766602C61.6242 0.766602 60.8333 1.55757 60.8333 2.53327C60.8333 3.50897 61.6242 4.29993 62.5999 4.29993Z" fill="#3B5998"/>
<path id="Vector_164" d="M62.5999 7.83314C63.5756 7.83314 64.3666 7.04217 64.3666 6.06647C64.3666 5.09077 63.5756 4.2998 62.5999 4.2998C61.6242 4.2998 60.8333 5.09077 60.8333 6.06647C60.8333 7.04217 61.6242 7.83314 62.5999 7.83314Z" fill="#3B5998"/>
<path id="Vector_165" d="M62.5999 32.5665C63.5756 32.5665 64.3666 31.7756 64.3666 30.7999C64.3666 29.8242 63.5756 29.0332 62.5999 29.0332C61.6242 29.0332 60.8333 29.8242 60.8333 30.7999C60.8333 31.7756 61.6242 32.5665 62.5999 32.5665Z" fill="#3B5998"/>
<path id="Vector_166" d="M62.5999 36.0997C63.5756 36.0997 64.3666 35.3088 64.3666 34.3331C64.3666 33.3574 63.5756 32.5664 62.5999 32.5664C61.6242 32.5664 60.8333 33.3574 60.8333 34.3331C60.8333 35.3088 61.6242 36.0997 62.5999 36.0997Z" fill="#3B5998"/>
<path id="Vector_167" d="M62.5999 67.8995C63.5756 67.8995 64.3666 67.1086 64.3666 66.1329C64.3666 65.1572 63.5756 64.3662 62.5999 64.3662C61.6242 64.3662 60.8333 65.1572 60.8333 66.1329C60.8333 67.1086 61.6242 67.8995 62.5999 67.8995Z" fill="#3B5998"/>
<path id="Vector_168" d="M62.5999 71.4337C63.5756 71.4337 64.3666 70.6428 64.3666 69.6671C64.3666 68.6914 63.5756 67.9004 62.5999 67.9004C61.6242 67.9004 60.8333 68.6914 60.8333 69.6671C60.8333 70.6428 61.6242 71.4337 62.5999 71.4337Z" fill="#3B5998"/>
<path id="Vector_169" d="M62.5999 78.5001C63.5756 78.5001 64.3666 77.7092 64.3666 76.7335C64.3666 75.7578 63.5756 74.9668 62.5999 74.9668C61.6242 74.9668 60.8333 75.7578 60.8333 76.7335C60.8333 77.7092 61.6242 78.5001 62.5999 78.5001Z" fill="#3B5998"/>
<path id="Vector_170" d="M62.5999 82.0333C63.5756 82.0333 64.3666 81.2424 64.3666 80.2667C64.3666 79.291 63.5756 78.5 62.5999 78.5C61.6242 78.5 60.8333 79.291 60.8333 80.2667C60.8333 81.2424 61.6242 82.0333 62.5999 82.0333Z" fill="#3B5998"/>
<path id="Vector_171" d="M62.5999 85.5665C63.5756 85.5665 64.3666 84.7756 64.3666 83.7999C64.3666 82.8242 63.5756 82.0332 62.5999 82.0332C61.6242 82.0332 60.8333 82.8242 60.8333 83.7999C60.8333 84.7756 61.6242 85.5665 62.5999 85.5665Z" fill="#3B5998"/>
<path id="Vector_172" d="M62.5999 89.0997C63.5756 89.0997 64.3666 88.3088 64.3666 87.3331C64.3666 86.3574 63.5756 85.5664 62.5999 85.5664C61.6242 85.5664 60.8333 86.3574 60.8333 87.3331C60.8333 88.3088 61.6242 89.0997 62.5999 89.0997Z" fill="#3B5998"/>
<path id="Vector_173" d="M62.5999 103.234C63.5756 103.234 64.3666 102.443 64.3666 101.467C64.3666 100.491 63.5756 99.7002 62.5999 99.7002C61.6242 99.7002 60.8333 100.491 60.8333 101.467C60.8333 102.443 61.6242 103.234 62.5999 103.234Z" fill="#3B5998"/>
<path id="Vector_174" d="M66.1334 11.3663C67.1091 11.3663 67.9 10.5754 67.9 9.59967C67.9 8.62397 67.1091 7.83301 66.1334 7.83301C65.1577 7.83301 64.3667 8.62397 64.3667 9.59967C64.3667 10.5754 65.1577 11.3663 66.1334 11.3663Z" fill="#3B5998"/>
<path id="Vector_175" d="M66.1334 21.9669C67.1091 21.9669 67.9 21.176 67.9 20.2003C67.9 19.2246 67.1091 18.4336 66.1334 18.4336C65.1577 18.4336 64.3667 19.2246 64.3667 20.2003C64.3667 21.176 65.1577 21.9669 66.1334 21.9669Z" fill="#3B5998"/>
<path id="Vector_176" d="M66.1334 25.5001C67.1091 25.5001 67.9 24.7092 67.9 23.7335C67.9 22.7578 67.1091 21.9668 66.1334 21.9668C65.1577 21.9668 64.3667 22.7578 64.3667 23.7335C64.3667 24.7092 65.1577 25.5001 66.1334 25.5001Z" fill="#3B5998"/>
<path id="Vector_177" d="M66.1334 32.5665C67.1091 32.5665 67.9 31.7756 67.9 30.7999C67.9 29.8242 67.1091 29.0332 66.1334 29.0332C65.1577 29.0332 64.3667 29.8242 64.3667 30.7999C64.3667 31.7756 65.1577 32.5665 66.1334 32.5665Z" fill="#3B5998"/>
<path id="Vector_178" d="M66.1334 46.7003C67.1091 46.7003 67.9 45.9094 67.9 44.9337C67.9 43.958 67.1091 43.167 66.1334 43.167C65.1577 43.167 64.3667 43.958 64.3667 44.9337C64.3667 45.9094 65.1577 46.7003 66.1334 46.7003Z" fill="#3B5998"/>
<path id="Vector_179" d="M66.1334 50.2335C67.1091 50.2335 67.9 49.4426 67.9 48.4669C67.9 47.4912 67.1091 46.7002 66.1334 46.7002C65.1577 46.7002 64.3667 47.4912 64.3667 48.4669C64.3667 49.4426 65.1577 50.2335 66.1334 50.2335Z" fill="#3B5998"/>
<path id="Vector_180" d="M66.1334 60.8331C67.1091 60.8331 67.9 60.0422 67.9 59.0665C67.9 58.0908 67.1091 57.2998 66.1334 57.2998C65.1577 57.2998 64.3667 58.0908 64.3667 59.0665C64.3667 60.0422 65.1577 60.8331 66.1334 60.8331Z" fill="#3B5998"/>
<path id="Vector_181" d="M66.1334 64.3663C67.1091 64.3663 67.9 63.5754 67.9 62.5997C67.9 61.624 67.1091 60.833 66.1334 60.833C65.1577 60.833 64.3667 61.624 64.3667 62.5997C64.3667 63.5754 65.1577 64.3663 66.1334 64.3663Z" fill="#3B5998"/>
<path id="Vector_182" d="M66.1334 67.8995C67.1091 67.8995 67.9 67.1086 67.9 66.1329C67.9 65.1572 67.1091 64.3662 66.1334 64.3662C65.1577 64.3662 64.3667 65.1572 64.3667 66.1329C64.3667 67.1086 65.1577 67.8995 66.1334 67.8995Z" fill="#3B5998"/>
<path id="Vector_183" d="M66.1334 89.0997C67.1091 89.0997 67.9 88.3088 67.9 87.3331C67.9 86.3574 67.1091 85.5664 66.1334 85.5664C65.1577 85.5664 64.3667 86.3574 64.3667 87.3331C64.3667 88.3088 65.1577 89.0997 66.1334 89.0997Z" fill="#3B5998"/>
<path id="Vector_184" d="M66.1334 92.6329C67.1091 92.6329 67.9 91.842 67.9 90.8663C67.9 89.8906 67.1091 89.0996 66.1334 89.0996C65.1577 89.0996 64.3667 89.8906 64.3667 90.8663C64.3667 91.842 65.1577 92.6329 66.1334 92.6329Z" fill="#3B5998"/>
<path id="Vector_185" d="M66.1334 96.1661C67.1091 96.1661 67.9 95.3752 67.9 94.3995C67.9 93.4238 67.1091 92.6328 66.1334 92.6328C65.1577 92.6328 64.3667 93.4238 64.3667 94.3995C64.3667 95.3752 65.1577 96.1661 66.1334 96.1661Z" fill="#3B5998"/>
<path id="Vector_186" d="M66.1334 103.234C67.1091 103.234 67.9 102.443 67.9 101.467C67.9 100.491 67.1091 99.7002 66.1334 99.7002C65.1577 99.7002 64.3667 100.491 64.3667 101.467C64.3667 102.443 65.1577 103.234 66.1334 103.234Z" fill="#3B5998"/>
<path id="Vector_187" d="M69.6666 29.0333C70.6423 29.0333 71.4332 28.2424 71.4332 27.2667C71.4332 26.291 70.6423 25.5 69.6666 25.5C68.6909 25.5 67.8999 26.291 67.8999 27.2667C67.8999 28.2424 68.6909 29.0333 69.6666 29.0333Z" fill="#3B5998"/>
<path id="Vector_188" d="M69.6666 36.0997C70.6423 36.0997 71.4332 35.3088 71.4332 34.3331C71.4332 33.3574 70.6423 32.5664 69.6666 32.5664C68.6909 32.5664 67.8999 33.3574 67.8999 34.3331C67.8999 35.3088 68.6909 36.0997 69.6666 36.0997Z" fill="#3B5998"/>
<path id="Vector_189" d="M69.6666 43.1661C70.6423 43.1661 71.4332 42.3752 71.4332 41.3995C71.4332 40.4238 70.6423 39.6328 69.6666 39.6328C68.6909 39.6328 67.8999 40.4238 67.8999 41.3995C67.8999 42.3752 68.6909 43.1661 69.6666 43.1661Z" fill="#3B5998"/>
<path id="Vector_190" d="M69.6666 50.2335C70.6423 50.2335 71.4332 49.4426 71.4332 48.4669C71.4332 47.4912 70.6423 46.7002 69.6666 46.7002C68.6909 46.7002 67.8999 47.4912 67.8999 48.4669C67.8999 49.4426 68.6909 50.2335 69.6666 50.2335Z" fill="#3B5998"/>
<path id="Vector_191" d="M69.6666 53.7667C70.6423 53.7667 71.4332 52.9758 71.4332 52.0001C71.4332 51.0244 70.6423 50.2334 69.6666 50.2334C68.6909 50.2334 67.8999 51.0244 67.8999 52.0001C67.8999 52.9758 68.6909 53.7667 69.6666 53.7667Z" fill="#3B5998"/>
<path id="Vector_192" d="M69.6666 64.3663C70.6423 64.3663 71.4332 63.5754 71.4332 62.5997C71.4332 61.624 70.6423 60.833 69.6666 60.833C68.6909 60.833 67.8999 61.624 67.8999 62.5997C67.8999 63.5754 68.6909 64.3663 69.6666 64.3663Z" fill="#3B5998"/>
<path id="Vector_193" d="M69.6666 67.8995C70.6423 67.8995 71.4332 67.1086 71.4332 66.1329C71.4332 65.1572 70.6423 64.3662 69.6666 64.3662C68.6909 64.3662 67.8999 65.1572 67.8999 66.1329C67.8999 67.1086 68.6909 67.8995 69.6666 67.8995Z" fill="#3B5998"/>
<path id="Vector_194" d="M69.6666 71.4337C70.6423 71.4337 71.4332 70.6428 71.4332 69.6671C71.4332 68.6914 70.6423 67.9004 69.6666 67.9004C68.6909 67.9004 67.8999 68.6914 67.8999 69.6671C67.8999 70.6428 68.6909 71.4337 69.6666 71.4337Z" fill="#3B5998"/>
<path id="Vector_195" d="M69.6666 74.9669C70.6423 74.9669 71.4332 74.176 71.4332 73.2003C71.4332 72.2246 70.6423 71.4336 69.6666 71.4336C68.6909 71.4336 67.8999 72.2246 67.8999 73.2003C67.8999 74.176 68.6909 74.9669 69.6666 74.9669Z" fill="#3B5998"/>
<path id="Vector_196" d="M69.6666 89.0997C70.6423 89.0997 71.4332 88.3088 71.4332 87.3331C71.4332 86.3574 70.6423 85.5664 69.6666 85.5664C68.6909 85.5664 67.8999 86.3574 67.8999 87.3331C67.8999 88.3088 68.6909 89.0997 69.6666 89.0997Z" fill="#3B5998"/>
<path id="Vector_197" d="M69.6666 92.6329C70.6423 92.6329 71.4332 91.842 71.4332 90.8663C71.4332 89.8906 70.6423 89.0996 69.6666 89.0996C68.6909 89.0996 67.8999 89.8906 67.8999 90.8663C67.8999 91.842 68.6909 92.6329 69.6666 92.6329Z" fill="#3B5998"/>
<path id="Vector_198" d="M69.6666 103.234C70.6423 103.234 71.4332 102.443 71.4332 101.467C71.4332 100.491 70.6423 99.7002 69.6666 99.7002C68.6909 99.7002 67.8999 100.491 67.8999 101.467C67.8999 102.443 68.6909 103.234 69.6666 103.234Z" fill="#3B5998"/>
<path id="Vector_199" d="M73.2 4.29993C74.1757 4.29993 74.9667 3.50897 74.9667 2.53327C74.9667 1.55757 74.1757 0.766602 73.2 0.766602C72.2243 0.766602 71.4333 1.55757 71.4333 2.53327C71.4333 3.50897 72.2243 4.29993 73.2 4.29993Z" fill="#3B5998"/>
<path id="Vector_200" d="M73.2 7.83314C74.1757 7.83314 74.9667 7.04217 74.9667 6.06647C74.9667 5.09077 74.1757 4.2998 73.2 4.2998C72.2243 4.2998 71.4333 5.09077 71.4333 6.06647C71.4333 7.04217 72.2243 7.83314 73.2 7.83314Z" fill="#3B5998"/>
<path id="Vector_201" d="M73.2 14.8995C74.1757 14.8995 74.9667 14.1086 74.9667 13.1329C74.9667 12.1572 74.1757 11.3662 73.2 11.3662C72.2243 11.3662 71.4333 12.1572 71.4333 13.1329C71.4333 14.1086 72.2243 14.8995 73.2 14.8995Z" fill="#3B5998"/>
<path id="Vector_202" d="M73.2 21.9669C74.1757 21.9669 74.9667 21.176 74.9667 20.2003C74.9667 19.2246 74.1757 18.4336 73.2 18.4336C72.2243 18.4336 71.4333 19.2246 71.4333 20.2003C71.4333 21.176 72.2243 21.9669 73.2 21.9669Z" fill="#3B5998"/>
<path id="Vector_203" d="M73.2 25.5001C74.1757 25.5001 74.9667 24.7092 74.9667 23.7335C74.9667 22.7578 74.1757 21.9668 73.2 21.9668C72.2243 21.9668 71.4333 22.7578 71.4333 23.7335C71.4333 24.7092 72.2243 25.5001 73.2 25.5001Z" fill="#3B5998"/>
<path id="Vector_204" d="M73.2 29.0333C74.1757 29.0333 74.9667 28.2424 74.9667 27.2667C74.9667 26.291 74.1757 25.5 73.2 25.5C72.2243 25.5 71.4333 26.291 71.4333 27.2667C71.4333 28.2424 72.2243 29.0333 73.2 29.0333Z" fill="#3B5998"/>
<path id="Vector_205" d="M73.2 32.5665C74.1757 32.5665 74.9667 31.7756 74.9667 30.7999C74.9667 29.8242 74.1757 29.0332 73.2 29.0332C72.2243 29.0332 71.4333 29.8242 71.4333 30.7999C71.4333 31.7756 72.2243 32.5665 73.2 32.5665Z" fill="#3B5998"/>
<path id="Vector_206" d="M73.2 36.0997C74.1757 36.0997 74.9667 35.3088 74.9667 34.3331C74.9667 33.3574 74.1757 32.5664 73.2 32.5664C72.2243 32.5664 71.4333 33.3574 71.4333 34.3331C71.4333 35.3088 72.2243 36.0997 73.2 36.0997Z" fill="#3B5998"/>
<path id="Vector_207" d="M73.2 39.6329C74.1757 39.6329 74.9667 38.842 74.9667 37.8663C74.9667 36.8906 74.1757 36.0996 73.2 36.0996C72.2243 36.0996 71.4333 36.8906 71.4333 37.8663C71.4333 38.842 72.2243 39.6329 73.2 39.6329Z" fill="#3B5998"/>
<path id="Vector_208" d="M73.2 43.1661C74.1757 43.1661 74.9667 42.3752 74.9667 41.3995C74.9667 40.4238 74.1757 39.6328 73.2 39.6328C72.2243 39.6328 71.4333 40.4238 71.4333 41.3995C71.4333 42.3752 72.2243 43.1661 73.2 43.1661Z" fill="#3B5998"/>
<path id="Vector_209" d="M73.2 46.7003C74.1757 46.7003 74.9667 45.9094 74.9667 44.9337C74.9667 43.958 74.1757 43.167 73.2 43.167C72.2243 43.167 71.4333 43.958 71.4333 44.9337C71.4333 45.9094 72.2243 46.7003 73.2 46.7003Z" fill="#3B5998"/>
<path id="Vector_210" d="M73.2 50.2335C74.1757 50.2335 74.9667 49.4426 74.9667 48.4669C74.9667 47.4912 74.1757 46.7002 73.2 46.7002C72.2243 46.7002 71.4333 47.4912 71.4333 48.4669C71.4333 49.4426 72.2243 50.2335 73.2 50.2335Z" fill="#3B5998"/>
<path id="Vector_211" d="M73.2 53.7667C74.1757 53.7667 74.9667 52.9758 74.9667 52.0001C74.9667 51.0244 74.1757 50.2334 73.2 50.2334C72.2243 50.2334 71.4333 51.0244 71.4333 52.0001C71.4333 52.9758 72.2243 53.7667 73.2 53.7667Z" fill="#3B5998"/>
<path id="Vector_212" d="M73.2 57.2999C74.1757 57.2999 74.9667 56.509 74.9667 55.5333C74.9667 54.5576 74.1757 53.7666 73.2 53.7666C72.2243 53.7666 71.4333 54.5576 71.4333 55.5333C71.4333 56.509 72.2243 57.2999 73.2 57.2999Z" fill="#3B5998"/>
<path id="Vector_213" d="M73.2 60.8331C74.1757 60.8331 74.9667 60.0422 74.9667 59.0665C74.9667 58.0908 74.1757 57.2998 73.2 57.2998C72.2243 57.2998 71.4333 58.0908 71.4333 59.0665C71.4333 60.0422 72.2243 60.8331 73.2 60.8331Z" fill="#3B5998"/>
<path id="Vector_214" d="M73.2 64.3663C74.1757 64.3663 74.9667 63.5754 74.9667 62.5997C74.9667 61.624 74.1757 60.833 73.2 60.833C72.2243 60.833 71.4333 61.624 71.4333 62.5997C71.4333 63.5754 72.2243 64.3663 73.2 64.3663Z" fill="#3B5998"/>
<path id="Vector_215" d="M73.2 67.8995C74.1757 67.8995 74.9667 67.1086 74.9667 66.1329C74.9667 65.1572 74.1757 64.3662 73.2 64.3662C72.2243 64.3662 71.4333 65.1572 71.4333 66.1329C71.4333 67.1086 72.2243 67.8995 73.2 67.8995Z" fill="#3B5998"/>
<path id="Vector_216" d="M73.2 71.4337C74.1757 71.4337 74.9667 70.6428 74.9667 69.6671C74.9667 68.6914 74.1757 67.9004 73.2 67.9004C72.2243 67.9004 71.4333 68.6914 71.4333 69.6671C71.4333 70.6428 72.2243 71.4337 73.2 71.4337Z" fill="#3B5998"/>
<path id="Vector_217" d="M73.2 74.9669C74.1757 74.9669 74.9667 74.176 74.9667 73.2003C74.9667 72.2246 74.1757 71.4336 73.2 71.4336C72.2243 71.4336 71.4333 72.2246 71.4333 73.2003C71.4333 74.176 72.2243 74.9669 73.2 74.9669Z" fill="#3B5998"/>
<path id="Vector_218" d="M73.2 78.5001C74.1757 78.5001 74.9667 77.7092 74.9667 76.7335C74.9667 75.7578 74.1757 74.9668 73.2 74.9668C72.2243 74.9668 71.4333 75.7578 71.4333 76.7335C71.4333 77.7092 72.2243 78.5001 73.2 78.5001Z" fill="#3B5998"/>
<path id="Vector_219" d="M73.2 82.0333C74.1757 82.0333 74.9667 81.2424 74.9667 80.2667C74.9667 79.291 74.1757 78.5 73.2 78.5C72.2243 78.5 71.4333 79.291 71.4333 80.2667C71.4333 81.2424 72.2243 82.0333 73.2 82.0333Z" fill="#3B5998"/>
<path id="Vector_220" d="M73.2 85.5665C74.1757 85.5665 74.9667 84.7756 74.9667 83.7999C74.9667 82.8242 74.1757 82.0332 73.2 82.0332C72.2243 82.0332 71.4333 82.8242 71.4333 83.7999C71.4333 84.7756 72.2243 85.5665 73.2 85.5665Z" fill="#3B5998"/>
<path id="Vector_221" d="M73.2 89.0997C74.1757 89.0997 74.9667 88.3088 74.9667 87.3331C74.9667 86.3574 74.1757 85.5664 73.2 85.5664C72.2243 85.5664 71.4333 86.3574 71.4333 87.3331C71.4333 88.3088 72.2243 89.0997 73.2 89.0997Z" fill="#3B5998"/>
<path id="Vector_222" d="M73.2 92.6329C74.1757 92.6329 74.9667 91.842 74.9667 90.8663C74.9667 89.8906 74.1757 89.0996 73.2 89.0996C72.2243 89.0996 71.4333 89.8906 71.4333 90.8663C71.4333 91.842 72.2243 92.6329 73.2 92.6329Z" fill="#3B5998"/>
<path id="Vector_223" d="M73.2 99.7003C74.1757 99.7003 74.9667 98.9094 74.9667 97.9337C74.9667 96.958 74.1757 96.167 73.2 96.167C72.2243 96.167 71.4333 96.958 71.4333 97.9337C71.4333 98.9094 72.2243 99.7003 73.2 99.7003Z" fill="#3B5998"/>
<path id="Vector_224" d="M73.2 103.234C74.1757 103.234 74.9667 102.443 74.9667 101.467C74.9667 100.491 74.1757 99.7002 73.2 99.7002C72.2243 99.7002 71.4333 100.491 71.4333 101.467C71.4333 102.443 72.2243 103.234 73.2 103.234Z" fill="#3B5998"/>
<path id="Vector_225" d="M76.7332 32.5665C77.7089 32.5665 78.4999 31.7756 78.4999 30.7999C78.4999 29.8242 77.7089 29.0332 76.7332 29.0332C75.7575 29.0332 74.9666 29.8242 74.9666 30.7999C74.9666 31.7756 75.7575 32.5665 76.7332 32.5665Z" fill="#3B5998"/>
<path id="Vector_226" d="M76.7332 36.0997C77.7089 36.0997 78.4999 35.3088 78.4999 34.3331C78.4999 33.3574 77.7089 32.5664 76.7332 32.5664C75.7575 32.5664 74.9666 33.3574 74.9666 34.3331C74.9666 35.3088 75.7575 36.0997 76.7332 36.0997Z" fill="#3B5998"/>
<path id="Vector_227" d="M76.7332 39.6329C77.7089 39.6329 78.4999 38.842 78.4999 37.8663C78.4999 36.8906 77.7089 36.0996 76.7332 36.0996C75.7575 36.0996 74.9666 36.8906 74.9666 37.8663C74.9666 38.842 75.7575 39.6329 76.7332 39.6329Z" fill="#3B5998"/>
<path id="Vector_228" d="M76.7332 50.2335C77.7089 50.2335 78.4999 49.4426 78.4999 48.4669C78.4999 47.4912 77.7089 46.7002 76.7332 46.7002C75.7575 46.7002 74.9666 47.4912 74.9666 48.4669C74.9666 49.4426 75.7575 50.2335 76.7332 50.2335Z" fill="#3B5998"/>
<path id="Vector_229" d="M76.7332 57.2999C77.7089 57.2999 78.4999 56.509 78.4999 55.5333C78.4999 54.5576 77.7089 53.7666 76.7332 53.7666C75.7575 53.7666 74.9666 54.5576 74.9666 55.5333C74.9666 56.509 75.7575 57.2999 76.7332 57.2999Z" fill="#3B5998"/>
<path id="Vector_230" d="M76.7332 60.8331C77.7089 60.8331 78.4999 60.0422 78.4999 59.0665C78.4999 58.0908 77.7089 57.2998 76.7332 57.2998C75.7575 57.2998 74.9666 58.0908 74.9666 59.0665C74.9666 60.0422 75.7575 60.8331 76.7332 60.8331Z" fill="#3B5998"/>
<path id="Vector_231" d="M76.7332 64.3663C77.7089 64.3663 78.4999 63.5754 78.4999 62.5997C78.4999 61.624 77.7089 60.833 76.7332 60.833C75.7575 60.833 74.9666 61.624 74.9666 62.5997C74.9666 63.5754 75.7575 64.3663 76.7332 64.3663Z" fill="#3B5998"/>
<path id="Vector_232" d="M76.7332 67.8995C77.7089 67.8995 78.4999 67.1086 78.4999 66.1329C78.4999 65.1572 77.7089 64.3662 76.7332 64.3662C75.7575 64.3662 74.9666 65.1572 74.9666 66.1329C74.9666 67.1086 75.7575 67.8995 76.7332 67.8995Z" fill="#3B5998"/>
<path id="Vector_233" d="M76.7332 74.9669C77.7089 74.9669 78.4999 74.176 78.4999 73.2003C78.4999 72.2246 77.7089 71.4336 76.7332 71.4336C75.7575 71.4336 74.9666 72.2246 74.9666 73.2003C74.9666 74.176 75.7575 74.9669 76.7332 74.9669Z" fill="#3B5998"/>
<path id="Vector_234" d="M76.7332 89.0997C77.7089 89.0997 78.4999 88.3088 78.4999 87.3331C78.4999 86.3574 77.7089 85.5664 76.7332 85.5664C75.7575 85.5664 74.9666 86.3574 74.9666 87.3331C74.9666 88.3088 75.7575 89.0997 76.7332 89.0997Z" fill="#3B5998"/>
<path id="Vector_235" d="M76.7332 96.1661C77.7089 96.1661 78.4999 95.3752 78.4999 94.3995C78.4999 93.4238 77.7089 92.6328 76.7332 92.6328C75.7575 92.6328 74.9666 93.4238 74.9666 94.3995C74.9666 95.3752 75.7575 96.1661 76.7332 96.1661Z" fill="#3B5998"/>
<path id="Vector_236" d="M76.7332 103.234C77.7089 103.234 78.4999 102.443 78.4999 101.467C78.4999 100.491 77.7089 99.7002 76.7332 99.7002C75.7575 99.7002 74.9666 100.491 74.9666 101.467C74.9666 102.443 75.7575 103.234 76.7332 103.234Z" fill="#3B5998"/>
<path id="Vector_237" d="M80.2667 39.6329C81.2424 39.6329 82.0333 38.842 82.0333 37.8663C82.0333 36.8906 81.2424 36.0996 80.2667 36.0996C79.291 36.0996 78.5 36.8906 78.5 37.8663C78.5 38.842 79.291 39.6329 80.2667 39.6329Z" fill="#3B5998"/>
<path id="Vector_238" d="M80.2667 57.2999C81.2424 57.2999 82.0333 56.509 82.0333 55.5333C82.0333 54.5576 81.2424 53.7666 80.2667 53.7666C79.291 53.7666 78.5 54.5576 78.5 55.5333C78.5 56.509 79.291 57.2999 80.2667 57.2999Z" fill="#3B5998"/>
<path id="Vector_239" d="M80.2667 67.8995C81.2424 67.8995 82.0333 67.1086 82.0333 66.1329C82.0333 65.1572 81.2424 64.3662 80.2667 64.3662C79.291 64.3662 78.5 65.1572 78.5 66.1329C78.5 67.1086 79.291 67.8995 80.2667 67.8995Z" fill="#3B5998"/>
<path id="Vector_240" d="M80.2667 71.4337C81.2424 71.4337 82.0333 70.6428 82.0333 69.6671C82.0333 68.6914 81.2424 67.9004 80.2667 67.9004C79.291 67.9004 78.5 68.6914 78.5 69.6671C78.5 70.6428 79.291 71.4337 80.2667 71.4337Z" fill="#3B5998"/>
<path id="Vector_241" d="M80.2667 74.9669C81.2424 74.9669 82.0333 74.176 82.0333 73.2003C82.0333 72.2246 81.2424 71.4336 80.2667 71.4336C79.291 71.4336 78.5 72.2246 78.5 73.2003C78.5 74.176 79.291 74.9669 80.2667 74.9669Z" fill="#3B5998"/>
<path id="Vector_242" d="M80.2667 82.0333C81.2424 82.0333 82.0333 81.2424 82.0333 80.2667C82.0333 79.291 81.2424 78.5 80.2667 78.5C79.291 78.5 78.5 79.291 78.5 80.2667C78.5 81.2424 79.291 82.0333 80.2667 82.0333Z" fill="#3B5998"/>
<path id="Vector_243" d="M80.2667 89.0997C81.2424 89.0997 82.0333 88.3088 82.0333 87.3331C82.0333 86.3574 81.2424 85.5664 80.2667 85.5664C79.291 85.5664 78.5 86.3574 78.5 87.3331C78.5 88.3088 79.291 89.0997 80.2667 89.0997Z" fill="#3B5998"/>
<path id="Vector_244" d="M80.2667 99.7003C81.2424 99.7003 82.0333 98.9094 82.0333 97.9337C82.0333 96.958 81.2424 96.167 80.2667 96.167C79.291 96.167 78.5 96.958 78.5 97.9337C78.5 98.9094 79.291 99.7003 80.2667 99.7003Z" fill="#3B5998"/>
<path id="Vector_245" d="M80.2667 103.234C81.2424 103.234 82.0333 102.443 82.0333 101.467C82.0333 100.491 81.2424 99.7002 80.2667 99.7002C79.291 99.7002 78.5 100.491 78.5 101.467C78.5 102.443 79.291 103.234 80.2667 103.234Z" fill="#3B5998"/>
<path id="Vector_246" d="M83.7999 36.0997C84.7756 36.0997 85.5665 35.3088 85.5665 34.3331C85.5665 33.3574 84.7756 32.5664 83.7999 32.5664C82.8242 32.5664 82.0332 33.3574 82.0332 34.3331C82.0332 35.3088 82.8242 36.0997 83.7999 36.0997Z" fill="#3B5998"/>
<path id="Vector_247" d="M83.7999 39.6329C84.7756 39.6329 85.5665 38.842 85.5665 37.8663C85.5665 36.8906 84.7756 36.0996 83.7999 36.0996C82.8242 36.0996 82.0332 36.8906 82.0332 37.8663C82.0332 38.842 82.8242 39.6329 83.7999 39.6329Z" fill="#3B5998"/>
<path id="Vector_248" d="M83.7999 46.7003C84.7756 46.7003 85.5665 45.9094 85.5665 44.9337C85.5665 43.958 84.7756 43.167 83.7999 43.167C82.8242 43.167 82.0332 43.958 82.0332 44.9337C82.0332 45.9094 82.8242 46.7003 83.7999 46.7003Z" fill="#3B5998"/>
<path id="Vector_249" d="M83.7999 50.2335C84.7756 50.2335 85.5665 49.4426 85.5665 48.4669C85.5665 47.4912 84.7756 46.7002 83.7999 46.7002C82.8242 46.7002 82.0332 47.4912 82.0332 48.4669C82.0332 49.4426 82.8242 50.2335 83.7999 50.2335Z" fill="#3B5998"/>
<path id="Vector_250" d="M83.7999 57.2999C84.7756 57.2999 85.5665 56.509 85.5665 55.5333C85.5665 54.5576 84.7756 53.7666 83.7999 53.7666C82.8242 53.7666 82.0332 54.5576 82.0332 55.5333C82.0332 56.509 82.8242 57.2999 83.7999 57.2999Z" fill="#3B5998"/>
<path id="Vector_251" d="M83.7999 60.8331C84.7756 60.8331 85.5665 60.0422 85.5665 59.0665C85.5665 58.0908 84.7756 57.2998 83.7999 57.2998C82.8242 57.2998 82.0332 58.0908 82.0332 59.0665C82.0332 60.0422 82.8242 60.8331 83.7999 60.8331Z" fill="#3B5998"/>
<path id="Vector_252" d="M83.7999 71.4337C84.7756 71.4337 85.5665 70.6428 85.5665 69.6671C85.5665 68.6914 84.7756 67.9004 83.7999 67.9004C82.8242 67.9004 82.0332 68.6914 82.0332 69.6671C82.0332 70.6428 82.8242 71.4337 83.7999 71.4337Z" fill="#3B5998"/>
<path id="Vector_253" d="M83.7999 74.9669C84.7756 74.9669 85.5665 74.176 85.5665 73.2003C85.5665 72.2246 84.7756 71.4336 83.7999 71.4336C82.8242 71.4336 82.0332 72.2246 82.0332 73.2003C82.0332 74.176 82.8242 74.9669 83.7999 74.9669Z" fill="#3B5998"/>
<path id="Vector_254" d="M83.7999 89.0997C84.7756 89.0997 85.5665 88.3088 85.5665 87.3331C85.5665 86.3574 84.7756 85.5664 83.7999 85.5664C82.8242 85.5664 82.0332 86.3574 82.0332 87.3331C82.0332 88.3088 82.8242 89.0997 83.7999 89.0997Z" fill="#3B5998"/>
<path id="Vector_255" d="M83.7999 92.6329C84.7756 92.6329 85.5665 91.842 85.5665 90.8663C85.5665 89.8906 84.7756 89.0996 83.7999 89.0996C82.8242 89.0996 82.0332 89.8906 82.0332 90.8663C82.0332 91.842 82.8242 92.6329 83.7999 92.6329Z" fill="#3B5998"/>
<path id="Vector_256" d="M83.7999 99.7003C84.7756 99.7003 85.5665 98.9094 85.5665 97.9337C85.5665 96.958 84.7756 96.167 83.7999 96.167C82.8242 96.167 82.0332 96.958 82.0332 97.9337C82.0332 98.9094 82.8242 99.7003 83.7999 99.7003Z" fill="#3B5998"/>
<path id="Vector_257" d="M87.3333 32.5665C88.309 32.5665 89.1 31.7756 89.1 30.7999C89.1 29.8242 88.309 29.0332 87.3333 29.0332C86.3576 29.0332 85.5667 29.8242 85.5667 30.7999C85.5667 31.7756 86.3576 32.5665 87.3333 32.5665Z" fill="#3B5998"/>
<path id="Vector_258" d="M87.3333 43.1661C88.309 43.1661 89.1 42.3752 89.1 41.3995C89.1 40.4238 88.309 39.6328 87.3333 39.6328C86.3576 39.6328 85.5667 40.4238 85.5667 41.3995C85.5667 42.3752 86.3576 43.1661 87.3333 43.1661Z" fill="#3B5998"/>
<path id="Vector_259" d="M87.3333 60.8331C88.309 60.8331 89.1 60.0422 89.1 59.0665C89.1 58.0908 88.309 57.2998 87.3333 57.2998C86.3576 57.2998 85.5667 58.0908 85.5667 59.0665C85.5667 60.0422 86.3576 60.8331 87.3333 60.8331Z" fill="#3B5998"/>
<path id="Vector_260" d="M87.3333 71.4337C88.309 71.4337 89.1 70.6428 89.1 69.6671C89.1 68.6914 88.309 67.9004 87.3333 67.9004C86.3576 67.9004 85.5667 68.6914 85.5667 69.6671C85.5667 70.6428 86.3576 71.4337 87.3333 71.4337Z" fill="#3B5998"/>
<path id="Vector_261" d="M87.3333 74.9669C88.309 74.9669 89.1 74.176 89.1 73.2003C89.1 72.2246 88.309 71.4336 87.3333 71.4336C86.3576 71.4336 85.5667 72.2246 85.5667 73.2003C85.5667 74.176 86.3576 74.9669 87.3333 74.9669Z" fill="#3B5998"/>
<path id="Vector_262" d="M87.3333 78.5001C88.309 78.5001 89.1 77.7092 89.1 76.7335C89.1 75.7578 88.309 74.9668 87.3333 74.9668C86.3576 74.9668 85.5667 75.7578 85.5667 76.7335C85.5667 77.7092 86.3576 78.5001 87.3333 78.5001Z" fill="#3B5998"/>
<path id="Vector_263" d="M87.3333 82.0333C88.309 82.0333 89.1 81.2424 89.1 80.2667C89.1 79.291 88.309 78.5 87.3333 78.5C86.3576 78.5 85.5667 79.291 85.5667 80.2667C85.5667 81.2424 86.3576 82.0333 87.3333 82.0333Z" fill="#3B5998"/>
<path id="Vector_264" d="M87.3333 85.5665C88.309 85.5665 89.1 84.7756 89.1 83.7999C89.1 82.8242 88.309 82.0332 87.3333 82.0332C86.3576 82.0332 85.5667 82.8242 85.5667 83.7999C85.5667 84.7756 86.3576 85.5665 87.3333 85.5665Z" fill="#3B5998"/>
<path id="Vector_265" d="M87.3333 89.0997C88.309 89.0997 89.1 88.3088 89.1 87.3331C89.1 86.3574 88.309 85.5664 87.3333 85.5664C86.3576 85.5664 85.5667 86.3574 85.5667 87.3331C85.5667 88.3088 86.3576 89.0997 87.3333 89.0997Z" fill="#3B5998"/>
<path id="Vector_266" d="M90.8665 36.0997C91.8422 36.0997 92.6332 35.3088 92.6332 34.3331C92.6332 33.3574 91.8422 32.5664 90.8665 32.5664C89.8908 32.5664 89.0999 33.3574 89.0999 34.3331C89.0999 35.3088 89.8908 36.0997 90.8665 36.0997Z" fill="#3B5998"/>
<path id="Vector_267" d="M90.8665 39.6329C91.8422 39.6329 92.6332 38.842 92.6332 37.8663C92.6332 36.8906 91.8422 36.0996 90.8665 36.0996C89.8908 36.0996 89.0999 36.8906 89.0999 37.8663C89.0999 38.842 89.8908 39.6329 90.8665 39.6329Z" fill="#3B5998"/>
<path id="Vector_268" d="M90.8665 46.7003C91.8422 46.7003 92.6332 45.9094 92.6332 44.9337C92.6332 43.958 91.8422 43.167 90.8665 43.167C89.8908 43.167 89.0999 43.958 89.0999 44.9337C89.0999 45.9094 89.8908 46.7003 90.8665 46.7003Z" fill="#3B5998"/>
<path id="Vector_269" d="M90.8665 64.3663C91.8422 64.3663 92.6332 63.5754 92.6332 62.5997C92.6332 61.624 91.8422 60.833 90.8665 60.833C89.8908 60.833 89.0999 61.624 89.0999 62.5997C89.0999 63.5754 89.8908 64.3663 90.8665 64.3663Z" fill="#3B5998"/>
<path id="Vector_270" d="M90.8665 67.8995C91.8422 67.8995 92.6332 67.1086 92.6332 66.1329C92.6332 65.1572 91.8422 64.3662 90.8665 64.3662C89.8908 64.3662 89.0999 65.1572 89.0999 66.1329C89.0999 67.1086 89.8908 67.8995 90.8665 67.8995Z" fill="#3B5998"/>
<path id="Vector_271" d="M90.8665 85.5665C91.8422 85.5665 92.6332 84.7756 92.6332 83.7999C92.6332 82.8242 91.8422 82.0332 90.8665 82.0332C89.8908 82.0332 89.0999 82.8242 89.0999 83.7999C89.0999 84.7756 89.8908 85.5665 90.8665 85.5665Z" fill="#3B5998"/>
<path id="Vector_272" d="M90.8665 99.7003C91.8422 99.7003 92.6332 98.9094 92.6332 97.9337C92.6332 96.958 91.8422 96.167 90.8665 96.167C89.8908 96.167 89.0999 96.958 89.0999 97.9337C89.0999 98.9094 89.8908 99.7003 90.8665 99.7003Z" fill="#3B5998"/>
<path id="Vector_273" d="M94.4 36.0997C95.3757 36.0997 96.1666 35.3088 96.1666 34.3331C96.1666 33.3574 95.3757 32.5664 94.4 32.5664C93.4243 32.5664 92.6333 33.3574 92.6333 34.3331C92.6333 35.3088 93.4243 36.0997 94.4 36.0997Z" fill="#3B5998"/>
<path id="Vector_274" d="M94.4 43.1661C95.3757 43.1661 96.1666 42.3752 96.1666 41.3995C96.1666 40.4238 95.3757 39.6328 94.4 39.6328C93.4243 39.6328 92.6333 40.4238 92.6333 41.3995C92.6333 42.3752 93.4243 43.1661 94.4 43.1661Z" fill="#3B5998"/>
<path id="Vector_275" d="M94.4 46.7003C95.3757 46.7003 96.1666 45.9094 96.1666 44.9337C96.1666 43.958 95.3757 43.167 94.4 43.167C93.4243 43.167 92.6333 43.958 92.6333 44.9337C92.6333 45.9094 93.4243 46.7003 94.4 46.7003Z" fill="#3B5998"/>
<path id="Vector_276" d="M94.4 50.2335C95.3757 50.2335 96.1666 49.4426 96.1666 48.4669C96.1666 47.4912 95.3757 46.7002 94.4 46.7002C93.4243 46.7002 92.6333 47.4912 92.6333 48.4669C92.6333 49.4426 93.4243 50.2335 94.4 50.2335Z" fill="#3B5998"/>
<path id="Vector_277" d="M94.4 57.2999C95.3757 57.2999 96.1666 56.509 96.1666 55.5333C96.1666 54.5576 95.3757 53.7666 94.4 53.7666C93.4243 53.7666 92.6333 54.5576 92.6333 55.5333C92.6333 56.509 93.4243 57.2999 94.4 57.2999Z" fill="#3B5998"/>
<path id="Vector_278" d="M94.4 64.3663C95.3757 64.3663 96.1666 63.5754 96.1666 62.5997C96.1666 61.624 95.3757 60.833 94.4 60.833C93.4243 60.833 92.6333 61.624 92.6333 62.5997C92.6333 63.5754 93.4243 64.3663 94.4 64.3663Z" fill="#3B5998"/>
<path id="Vector_279" d="M94.4 67.8995C95.3757 67.8995 96.1666 67.1086 96.1666 66.1329C96.1666 65.1572 95.3757 64.3662 94.4 64.3662C93.4243 64.3662 92.6333 65.1572 92.6333 66.1329C92.6333 67.1086 93.4243 67.8995 94.4 67.8995Z" fill="#3B5998"/>
<path id="Vector_280" d="M94.4 71.4337C95.3757 71.4337 96.1666 70.6428 96.1666 69.6671C96.1666 68.6914 95.3757 67.9004 94.4 67.9004C93.4243 67.9004 92.6333 68.6914 92.6333 69.6671C92.6333 70.6428 93.4243 71.4337 94.4 71.4337Z" fill="#3B5998"/>
<path id="Vector_281" d="M94.4 74.9669C95.3757 74.9669 96.1666 74.176 96.1666 73.2003C96.1666 72.2246 95.3757 71.4336 94.4 71.4336C93.4243 71.4336 92.6333 72.2246 92.6333 73.2003C92.6333 74.176 93.4243 74.9669 94.4 74.9669Z" fill="#3B5998"/>
<path id="Vector_282" d="M94.4 78.5001C95.3757 78.5001 96.1666 77.7092 96.1666 76.7335C96.1666 75.7578 95.3757 74.9668 94.4 74.9668C93.4243 74.9668 92.6333 75.7578 92.6333 76.7335C92.6333 77.7092 93.4243 78.5001 94.4 78.5001Z" fill="#3B5998"/>
<path id="Vector_283" d="M94.4 92.6329C95.3757 92.6329 96.1666 91.842 96.1666 90.8663C96.1666 89.8906 95.3757 89.0996 94.4 89.0996C93.4243 89.0996 92.6333 89.8906 92.6333 90.8663C92.6333 91.842 93.4243 92.6329 94.4 92.6329Z" fill="#3B5998"/>
<path id="Vector_284" d="M94.4 99.7003C95.3757 99.7003 96.1666 98.9094 96.1666 97.9337C96.1666 96.958 95.3757 96.167 94.4 96.167C93.4243 96.167 92.6333 96.958 92.6333 97.9337C92.6333 98.9094 93.4243 99.7003 94.4 99.7003Z" fill="#3B5998"/>
<path id="Vector_285" d="M94.4 103.234C95.3757 103.234 96.1666 102.443 96.1666 101.467C96.1666 100.491 95.3757 99.7002 94.4 99.7002C93.4243 99.7002 92.6333 100.491 92.6333 101.467C92.6333 102.443 93.4243 103.234 94.4 103.234Z" fill="#3B5998"/>
<path id="Vector_286" d="M97.9332 32.5665C98.9089 32.5665 99.6998 31.7756 99.6998 30.7999C99.6998 29.8242 98.9089 29.0332 97.9332 29.0332C96.9575 29.0332 96.1665 29.8242 96.1665 30.7999C96.1665 31.7756 96.9575 32.5665 97.9332 32.5665Z" fill="#3B5998"/>
<path id="Vector_287" d="M97.9332 43.1661C98.9089 43.1661 99.6998 42.3752 99.6998 41.3995C99.6998 40.4238 98.9089 39.6328 97.9332 39.6328C96.9575 39.6328 96.1665 40.4238 96.1665 41.3995C96.1665 42.3752 96.9575 43.1661 97.9332 43.1661Z" fill="#3B5998"/>
<path id="Vector_288" d="M97.9332 53.7667C98.9089 53.7667 99.6998 52.9758 99.6998 52.0001C99.6998 51.0244 98.9089 50.2334 97.9332 50.2334C96.9575 50.2334 96.1665 51.0244 96.1665 52.0001C96.1665 52.9758 96.9575 53.7667 97.9332 53.7667Z" fill="#3B5998"/>
<path id="Vector_289" d="M97.9332 57.2999C98.9089 57.2999 99.6998 56.509 99.6998 55.5333C99.6998 54.5576 98.9089 53.7666 97.9332 53.7666C96.9575 53.7666 96.1665 54.5576 96.1665 55.5333C96.1665 56.509 96.9575 57.2999 97.9332 57.2999Z" fill="#3B5998"/>
<path id="Vector_290" d="M97.9332 60.8331C98.9089 60.8331 99.6998 60.0422 99.6998 59.0665C99.6998 58.0908 98.9089 57.2998 97.9332 57.2998C96.9575 57.2998 96.1665 58.0908 96.1665 59.0665C96.1665 60.0422 96.9575 60.8331 97.9332 60.8331Z" fill="#3B5998"/>
<path id="Vector_291" d="M97.9332 64.3663C98.9089 64.3663 99.6998 63.5754 99.6998 62.5997C99.6998 61.624 98.9089 60.833 97.9332 60.833C96.9575 60.833 96.1665 61.624 96.1665 62.5997C96.1665 63.5754 96.9575 64.3663 97.9332 64.3663Z" fill="#3B5998"/>
<path id="Vector_292" d="M97.9332 67.8995C98.9089 67.8995 99.6998 67.1086 99.6998 66.1329C99.6998 65.1572 98.9089 64.3662 97.9332 64.3662C96.9575 64.3662 96.1665 65.1572 96.1665 66.1329C96.1665 67.1086 96.9575 67.8995 97.9332 67.8995Z" fill="#3B5998"/>
<path id="Vector_293" d="M97.9332 82.0333C98.9089 82.0333 99.6998 81.2424 99.6998 80.2667C99.6998 79.291 98.9089 78.5 97.9332 78.5C96.9575 78.5 96.1665 79.291 96.1665 80.2667C96.1665 81.2424 96.9575 82.0333 97.9332 82.0333Z" fill="#3B5998"/>
<path id="Vector_294" d="M97.9332 85.5665C98.9089 85.5665 99.6998 84.7756 99.6998 83.7999C99.6998 82.8242 98.9089 82.0332 97.9332 82.0332C96.9575 82.0332 96.1665 82.8242 96.1665 83.7999C96.1665 84.7756 96.9575 85.5665 97.9332 85.5665Z" fill="#3B5998"/>
<path id="Vector_295" d="M97.9332 99.7003C98.9089 99.7003 99.6998 98.9094 99.6998 97.9337C99.6998 96.958 98.9089 96.167 97.9332 96.167C96.9575 96.167 96.1665 96.958 96.1665 97.9337C96.1665 98.9094 96.9575 99.7003 97.9332 99.7003Z" fill="#3B5998"/>
<path id="Vector_296" d="M97.9332 103.234C98.9089 103.234 99.6998 102.443 99.6998 101.467C99.6998 100.491 98.9089 99.7002 97.9332 99.7002C96.9575 99.7002 96.1665 100.491 96.1665 101.467C96.1665 102.443 96.9575 103.234 97.9332 103.234Z" fill="#3B5998"/>
<path id="Vector_297" d="M101.467 39.6329C102.442 39.6329 103.233 38.842 103.233 37.8663C103.233 36.8906 102.442 36.0996 101.467 36.0996C100.491 36.0996 99.7 36.8906 99.7 37.8663C99.7 38.842 100.491 39.6329 101.467 39.6329Z" fill="#3B5998"/>
<path id="Vector_298" d="M101.467 43.1661C102.442 43.1661 103.233 42.3752 103.233 41.3995C103.233 40.4238 102.442 39.6328 101.467 39.6328C100.491 39.6328 99.7 40.4238 99.7 41.3995C99.7 42.3752 100.491 43.1661 101.467 43.1661Z" fill="#3B5998"/>
<path id="Vector_299" d="M101.467 50.2335C102.442 50.2335 103.233 49.4426 103.233 48.4669C103.233 47.4912 102.442 46.7002 101.467 46.7002C100.491 46.7002 99.7 47.4912 99.7 48.4669C99.7 49.4426 100.491 50.2335 101.467 50.2335Z" fill="#3B5998"/>
<path id="Vector_300" d="M101.467 53.7667C102.442 53.7667 103.233 52.9758 103.233 52.0001C103.233 51.0244 102.442 50.2334 101.467 50.2334C100.491 50.2334 99.7 51.0244 99.7 52.0001C99.7 52.9758 100.491 53.7667 101.467 53.7667Z" fill="#3B5998"/>
<path id="Vector_301" d="M101.467 60.8331C102.442 60.8331 103.233 60.0422 103.233 59.0665C103.233 58.0908 102.442 57.2998 101.467 57.2998C100.491 57.2998 99.7 58.0908 99.7 59.0665C99.7 60.0422 100.491 60.8331 101.467 60.8331Z" fill="#3B5998"/>
<path id="Vector_302" d="M101.467 64.3663C102.442 64.3663 103.233 63.5754 103.233 62.5997C103.233 61.624 102.442 60.833 101.467 60.833C100.491 60.833 99.7 61.624 99.7 62.5997C99.7 63.5754 100.491 64.3663 101.467 64.3663Z" fill="#3B5998"/>
<path id="Vector_303" d="M101.467 74.9669C102.442 74.9669 103.233 74.176 103.233 73.2003C103.233 72.2246 102.442 71.4336 101.467 71.4336C100.491 71.4336 99.7 72.2246 99.7 73.2003C99.7 74.176 100.491 74.9669 101.467 74.9669Z" fill="#3B5998"/>
<path id="Vector_304" d="M101.467 78.5001C102.442 78.5001 103.233 77.7092 103.233 76.7335C103.233 75.7578 102.442 74.9668 101.467 74.9668C100.491 74.9668 99.7 75.7578 99.7 76.7335C99.7 77.7092 100.491 78.5001 101.467 78.5001Z" fill="#3B5998"/>
<path id="Vector_305" d="M101.467 89.0997C102.442 89.0997 103.233 88.3088 103.233 87.3331C103.233 86.3574 102.442 85.5664 101.467 85.5664C100.491 85.5664 99.7 86.3574 99.7 87.3331C99.7 88.3088 100.491 89.0997 101.467 89.0997Z" fill="#3B5998"/>
<path id="Vector_306" d="M101.467 92.6329C102.442 92.6329 103.233 91.842 103.233 90.8663C103.233 89.8906 102.442 89.0996 101.467 89.0996C100.491 89.0996 99.7 89.8906 99.7 90.8663C99.7 91.842 100.491 92.6329 101.467 92.6329Z" fill="#3B5998"/>
<path id="Vector_307" d="M101.467 99.7003C102.442 99.7003 103.233 98.9094 103.233 97.9337C103.233 96.958 102.442 96.167 101.467 96.167C100.491 96.167 99.7 96.958 99.7 97.9337C99.7 98.9094 100.491 99.7003 101.467 99.7003Z" fill="#3B5998"/>
</g>
</svg>
