<svg width="104" height="104" viewBox="0 0 104 104" fill="none" xmlns="http://www.w3.org/2000/svg">
<g id="Clip path group">
<mask id="mask0_146_5120" style="mask-type:luminance" maskUnits="userSpaceOnUse" x="0" y="0" width="104" height="104">
<g id="clip-path-dot-color">
<path id="Vector" d="M2.53339 39.7462C3.50909 39.7462 4.30006 38.9553 4.30006 37.9796C4.30006 37.0039 3.50909 36.2129 2.53339 36.2129C1.55769 36.2129 0.766724 37.0039 0.766724 37.9796C0.766724 38.9553 1.55769 39.7462 2.53339 39.7462Z" fill="white"/>
<path id="Vector_2" d="M2.53339 43.2794C3.50909 43.2794 4.30006 42.4885 4.30006 41.5128C4.30006 40.5371 3.50909 39.7461 2.53339 39.7461C1.55769 39.7461 0.766724 40.5371 0.766724 41.5128C0.766724 42.4885 1.55769 43.2794 2.53339 43.2794Z" fill="white"/>
<path id="Vector_3" d="M2.53339 50.3468C3.50909 50.3468 4.30006 49.5558 4.30006 48.5801C4.30006 47.6044 3.50909 46.8135 2.53339 46.8135C1.55769 46.8135 0.766724 47.6044 0.766724 48.5801C0.766724 49.5558 1.55769 50.3468 2.53339 50.3468Z" fill="white"/>
<path id="Vector_4" d="M2.53339 60.9464C3.50909 60.9464 4.30006 60.1555 4.30006 59.1798C4.30006 58.204 3.50909 57.4131 2.53339 57.4131C1.55769 57.4131 0.766724 58.204 0.766724 59.1798C0.766724 60.1555 1.55769 60.9464 2.53339 60.9464Z" fill="white"/>
<path id="Vector_5" d="M2.53339 68.0128C3.50909 68.0128 4.30006 67.2219 4.30006 66.2462C4.30006 65.2705 3.50909 64.4795 2.53339 64.4795C1.55769 64.4795 0.766724 65.2705 0.766724 66.2462C0.766724 67.2219 1.55769 68.0128 2.53339 68.0128Z" fill="white"/>
<path id="Vector_6" d="M6.06672 36.213C7.04242 36.213 7.83338 35.4221 7.83338 34.4464C7.83338 33.4707 7.04242 32.6797 6.06672 32.6797C5.09101 32.6797 4.30005 33.4707 4.30005 34.4464C4.30005 35.4221 5.09101 36.213 6.06672 36.213Z" fill="white"/>
<path id="Vector_7" d="M6.06672 43.2794C7.04242 43.2794 7.83338 42.4885 7.83338 41.5128C7.83338 40.5371 7.04242 39.7461 6.06672 39.7461C5.09101 39.7461 4.30005 40.5371 4.30005 41.5128C4.30005 42.4885 5.09101 43.2794 6.06672 43.2794Z" fill="white"/>
<path id="Vector_8" d="M6.06672 46.8136C7.04242 46.8136 7.83338 46.0226 7.83338 45.0469C7.83338 44.0712 7.04242 43.2803 6.06672 43.2803C5.09101 43.2803 4.30005 44.0712 4.30005 45.0469C4.30005 46.0226 5.09101 46.8136 6.06672 46.8136Z" fill="white"/>
<path id="Vector_9" d="M6.06672 53.88C7.04242 53.88 7.83338 53.089 7.83338 52.1133C7.83338 51.1376 7.04242 50.3467 6.06672 50.3467C5.09101 50.3467 4.30005 51.1376 4.30005 52.1133C4.30005 53.089 5.09101 53.88 6.06672 53.88Z" fill="white"/>
<path id="Vector_10" d="M6.06672 57.4132C7.04242 57.4132 7.83338 56.6223 7.83338 55.6465C7.83338 54.6708 7.04242 53.8799 6.06672 53.8799C5.09101 53.8799 4.30005 54.6708 4.30005 55.6465C4.30005 56.6223 5.09101 57.4132 6.06672 57.4132Z" fill="white"/>
<path id="Vector_11" d="M6.06672 60.9464C7.04242 60.9464 7.83338 60.1555 7.83338 59.1798C7.83338 58.204 7.04242 57.4131 6.06672 57.4131C5.09101 57.4131 4.30005 58.204 4.30005 59.1798C4.30005 60.1555 5.09101 60.9464 6.06672 60.9464Z" fill="white"/>
<path id="Vector_12" d="M6.06672 64.4796C7.04242 64.4796 7.83338 63.6887 7.83338 62.713C7.83338 61.7373 7.04242 60.9463 6.06672 60.9463C5.09101 60.9463 4.30005 61.7373 4.30005 62.713C4.30005 63.6887 5.09101 64.4796 6.06672 64.4796Z" fill="white"/>
<path id="Vector_13" d="M6.06672 68.0128C7.04242 68.0128 7.83338 67.2219 7.83338 66.2462C7.83338 65.2705 7.04242 64.4795 6.06672 64.4795C5.09101 64.4795 4.30005 65.2705 4.30005 66.2462C4.30005 67.2219 5.09101 68.0128 6.06672 68.0128Z" fill="white"/>
<path id="Vector_14" d="M6.06672 75.0802C7.04242 75.0802 7.83338 74.2892 7.83338 73.3135C7.83338 72.3378 7.04242 71.5469 6.06672 71.5469C5.09101 71.5469 4.30005 72.3378 4.30005 73.3135C4.30005 74.2892 5.09101 75.0802 6.06672 75.0802Z" fill="white"/>
<path id="Vector_15" d="M9.60004 36.213C10.5757 36.213 11.3667 35.4221 11.3667 34.4464C11.3667 33.4707 10.5757 32.6797 9.60004 32.6797C8.62434 32.6797 7.83337 33.4707 7.83337 34.4464C7.83337 35.4221 8.62434 36.213 9.60004 36.213Z" fill="white"/>
<path id="Vector_16" d="M9.60004 39.7462C10.5757 39.7462 11.3667 38.9553 11.3667 37.9796C11.3667 37.0039 10.5757 36.2129 9.60004 36.2129C8.62434 36.2129 7.83337 37.0039 7.83337 37.9796C7.83337 38.9553 8.62434 39.7462 9.60004 39.7462Z" fill="white"/>
<path id="Vector_17" d="M9.60004 43.2794C10.5757 43.2794 11.3667 42.4885 11.3667 41.5128C11.3667 40.5371 10.5757 39.7461 9.60004 39.7461C8.62434 39.7461 7.83337 40.5371 7.83337 41.5128C7.83337 42.4885 8.62434 43.2794 9.60004 43.2794Z" fill="white"/>
<path id="Vector_18" d="M9.60004 46.8136C10.5757 46.8136 11.3667 46.0226 11.3667 45.0469C11.3667 44.0712 10.5757 43.2803 9.60004 43.2803C8.62434 43.2803 7.83337 44.0712 7.83337 45.0469C7.83337 46.0226 8.62434 46.8136 9.60004 46.8136Z" fill="white"/>
<path id="Vector_19" d="M9.60004 53.88C10.5757 53.88 11.3667 53.089 11.3667 52.1133C11.3667 51.1376 10.5757 50.3467 9.60004 50.3467C8.62434 50.3467 7.83337 51.1376 7.83337 52.1133C7.83337 53.089 8.62434 53.88 9.60004 53.88Z" fill="white"/>
<path id="Vector_20" d="M9.60004 57.4132C10.5757 57.4132 11.3667 56.6223 11.3667 55.6465C11.3667 54.6708 10.5757 53.8799 9.60004 53.8799C8.62434 53.8799 7.83337 54.6708 7.83337 55.6465C7.83337 56.6223 8.62434 57.4132 9.60004 57.4132Z" fill="white"/>
<path id="Vector_21" d="M9.60004 60.9464C10.5757 60.9464 11.3667 60.1555 11.3667 59.1798C11.3667 58.204 10.5757 57.4131 9.60004 57.4131C8.62434 57.4131 7.83337 58.204 7.83337 59.1798C7.83337 60.1555 8.62434 60.9464 9.60004 60.9464Z" fill="white"/>
<path id="Vector_22" d="M9.60004 64.4796C10.5757 64.4796 11.3667 63.6887 11.3667 62.713C11.3667 61.7373 10.5757 60.9463 9.60004 60.9463C8.62434 60.9463 7.83337 61.7373 7.83337 62.713C7.83337 63.6887 8.62434 64.4796 9.60004 64.4796Z" fill="white"/>
<path id="Vector_23" d="M9.60004 68.0128C10.5757 68.0128 11.3667 67.2219 11.3667 66.2462C11.3667 65.2705 10.5757 64.4795 9.60004 64.4795C8.62434 64.4795 7.83337 65.2705 7.83337 66.2462C7.83337 67.2219 8.62434 68.0128 9.60004 68.0128Z" fill="white"/>
<path id="Vector_24" d="M9.60004 71.547C10.5757 71.547 11.3667 70.756 11.3667 69.7803C11.3667 68.8046 10.5757 68.0137 9.60004 68.0137C8.62434 68.0137 7.83337 68.8046 7.83337 69.7803C7.83337 70.756 8.62434 71.547 9.60004 71.547Z" fill="white"/>
<path id="Vector_25" d="M13.1334 32.6798C14.1091 32.6798 14.9 31.8889 14.9 30.9132C14.9 29.9374 14.1091 29.1465 13.1334 29.1465C12.1577 29.1465 11.3667 29.9374 11.3667 30.9132C11.3667 31.8889 12.1577 32.6798 13.1334 32.6798Z" fill="white"/>
<path id="Vector_26" d="M13.1334 36.213C14.1091 36.213 14.9 35.4221 14.9 34.4464C14.9 33.4707 14.1091 32.6797 13.1334 32.6797C12.1577 32.6797 11.3667 33.4707 11.3667 34.4464C11.3667 35.4221 12.1577 36.213 13.1334 36.213Z" fill="white"/>
<path id="Vector_27" d="M13.1334 39.7462C14.1091 39.7462 14.9 38.9553 14.9 37.9796C14.9 37.0039 14.1091 36.2129 13.1334 36.2129C12.1577 36.2129 11.3667 37.0039 11.3667 37.9796C11.3667 38.9553 12.1577 39.7462 13.1334 39.7462Z" fill="white"/>
<path id="Vector_28" d="M13.1334 43.2794C14.1091 43.2794 14.9 42.4885 14.9 41.5128C14.9 40.5371 14.1091 39.7461 13.1334 39.7461C12.1577 39.7461 11.3667 40.5371 11.3667 41.5128C11.3667 42.4885 12.1577 43.2794 13.1334 43.2794Z" fill="white"/>
<path id="Vector_29" d="M13.1334 53.88C14.1091 53.88 14.9 53.089 14.9 52.1133C14.9 51.1376 14.1091 50.3467 13.1334 50.3467C12.1577 50.3467 11.3667 51.1376 11.3667 52.1133C11.3667 53.089 12.1577 53.88 13.1334 53.88Z" fill="white"/>
<path id="Vector_30" d="M13.1334 57.4132C14.1091 57.4132 14.9 56.6223 14.9 55.6465C14.9 54.6708 14.1091 53.8799 13.1334 53.8799C12.1577 53.8799 11.3667 54.6708 11.3667 55.6465C11.3667 56.6223 12.1577 57.4132 13.1334 57.4132Z" fill="white"/>
<path id="Vector_31" d="M13.1334 64.4796C14.1091 64.4796 14.9 63.6887 14.9 62.713C14.9 61.7373 14.1091 60.9463 13.1334 60.9463C12.1577 60.9463 11.3667 61.7373 11.3667 62.713C11.3667 63.6887 12.1577 64.4796 13.1334 64.4796Z" fill="white"/>
<path id="Vector_32" d="M13.1334 68.0128C14.1091 68.0128 14.9 67.2219 14.9 66.2462C14.9 65.2705 14.1091 64.4795 13.1334 64.4795C12.1577 64.4795 11.3667 65.2705 11.3667 66.2462C11.3667 67.2219 12.1577 68.0128 13.1334 68.0128Z" fill="white"/>
<path id="Vector_33" d="M13.1334 71.547C14.1091 71.547 14.9 70.756 14.9 69.7803C14.9 68.8046 14.1091 68.0137 13.1334 68.0137C12.1577 68.0137 11.3667 68.8046 11.3667 69.7803C11.3667 70.756 12.1577 71.547 13.1334 71.547Z" fill="white"/>
<path id="Vector_34" d="M16.6667 46.8136C17.6424 46.8136 18.4334 46.0226 18.4334 45.0469C18.4334 44.0712 17.6424 43.2803 16.6667 43.2803C15.691 43.2803 14.9 44.0712 14.9 45.0469C14.9 46.0226 15.691 46.8136 16.6667 46.8136Z" fill="white"/>
<path id="Vector_35" d="M16.6667 53.88C17.6424 53.88 18.4334 53.089 18.4334 52.1133C18.4334 51.1376 17.6424 50.3467 16.6667 50.3467C15.691 50.3467 14.9 51.1376 14.9 52.1133C14.9 53.089 15.691 53.88 16.6667 53.88Z" fill="white"/>
<path id="Vector_36" d="M16.6667 64.4796C17.6424 64.4796 18.4334 63.6887 18.4334 62.713C18.4334 61.7373 17.6424 60.9463 16.6667 60.9463C15.691 60.9463 14.9 61.7373 14.9 62.713C14.9 63.6887 15.691 64.4796 16.6667 64.4796Z" fill="white"/>
<path id="Vector_37" d="M16.6667 68.0128C17.6424 68.0128 18.4334 67.2219 18.4334 66.2462C18.4334 65.2705 17.6424 64.4795 16.6667 64.4795C15.691 64.4795 14.9 65.2705 14.9 66.2462C14.9 67.2219 15.691 68.0128 16.6667 68.0128Z" fill="white"/>
<path id="Vector_38" d="M16.6667 75.0802C17.6424 75.0802 18.4334 74.2892 18.4334 73.3135C18.4334 72.3378 17.6424 71.5469 16.6667 71.5469C15.691 71.5469 14.9 72.3378 14.9 73.3135C14.9 74.2892 15.691 75.0802 16.6667 75.0802Z" fill="white"/>
<path id="Vector_39" d="M20.2 32.6798C21.1757 32.6798 21.9667 31.8889 21.9667 30.9132C21.9667 29.9374 21.1757 29.1465 20.2 29.1465C19.2243 29.1465 18.4333 29.9374 18.4333 30.9132C18.4333 31.8889 19.2243 32.6798 20.2 32.6798Z" fill="white"/>
<path id="Vector_40" d="M20.2 46.8136C21.1757 46.8136 21.9667 46.0226 21.9667 45.0469C21.9667 44.0712 21.1757 43.2803 20.2 43.2803C19.2243 43.2803 18.4333 44.0712 18.4333 45.0469C18.4333 46.0226 19.2243 46.8136 20.2 46.8136Z" fill="white"/>
<path id="Vector_41" d="M20.2 50.3468C21.1757 50.3468 21.9667 49.5558 21.9667 48.5801C21.9667 47.6044 21.1757 46.8135 20.2 46.8135C19.2243 46.8135 18.4333 47.6044 18.4333 48.5801C18.4333 49.5558 19.2243 50.3468 20.2 50.3468Z" fill="white"/>
<path id="Vector_42" d="M20.2 53.88C21.1757 53.88 21.9667 53.089 21.9667 52.1133C21.9667 51.1376 21.1757 50.3467 20.2 50.3467C19.2243 50.3467 18.4333 51.1376 18.4333 52.1133C18.4333 53.089 19.2243 53.88 20.2 53.88Z" fill="white"/>
<path id="Vector_43" d="M20.2 64.4796C21.1757 64.4796 21.9667 63.6887 21.9667 62.713C21.9667 61.7373 21.1757 60.9463 20.2 60.9463C19.2243 60.9463 18.4333 61.7373 18.4333 62.713C18.4333 63.6887 19.2243 64.4796 20.2 64.4796Z" fill="white"/>
<path id="Vector_44" d="M23.7333 32.6798C24.709 32.6798 25.5 31.8889 25.5 30.9132C25.5 29.9374 24.709 29.1465 23.7333 29.1465C22.7576 29.1465 21.9667 29.9374 21.9667 30.9132C21.9667 31.8889 22.7576 32.6798 23.7333 32.6798Z" fill="white"/>
<path id="Vector_45" d="M23.7333 39.7462C24.709 39.7462 25.5 38.9553 25.5 37.9796C25.5 37.0039 24.709 36.2129 23.7333 36.2129C22.7576 36.2129 21.9667 37.0039 21.9667 37.9796C21.9667 38.9553 22.7576 39.7462 23.7333 39.7462Z" fill="white"/>
<path id="Vector_46" d="M23.7333 46.8136C24.709 46.8136 25.5 46.0226 25.5 45.0469C25.5 44.0712 24.709 43.2803 23.7333 43.2803C22.7576 43.2803 21.9667 44.0712 21.9667 45.0469C21.9667 46.0226 22.7576 46.8136 23.7333 46.8136Z" fill="white"/>
<path id="Vector_47" d="M23.7333 53.88C24.709 53.88 25.5 53.089 25.5 52.1133C25.5 51.1376 24.709 50.3467 23.7333 50.3467C22.7576 50.3467 21.9667 51.1376 21.9667 52.1133C21.9667 53.089 22.7576 53.88 23.7333 53.88Z" fill="white"/>
<path id="Vector_48" d="M23.7333 60.9464C24.709 60.9464 25.5 60.1555 25.5 59.1798C25.5 58.204 24.709 57.4131 23.7333 57.4131C22.7576 57.4131 21.9667 58.204 21.9667 59.1798C21.9667 60.1555 22.7576 60.9464 23.7333 60.9464Z" fill="white"/>
<path id="Vector_49" d="M23.7333 68.0128C24.709 68.0128 25.5 67.2219 25.5 66.2462C25.5 65.2705 24.709 64.4795 23.7333 64.4795C22.7576 64.4795 21.9667 65.2705 21.9667 66.2462C21.9667 67.2219 22.7576 68.0128 23.7333 68.0128Z" fill="white"/>
<path id="Vector_50" d="M23.7333 75.0802C24.709 75.0802 25.5 74.2892 25.5 73.3135C25.5 72.3378 24.709 71.5469 23.7333 71.5469C22.7576 71.5469 21.9667 72.3378 21.9667 73.3135C21.9667 74.2892 22.7576 75.0802 23.7333 75.0802Z" fill="white"/>
<path id="Vector_51" d="M27.2667 32.6798C28.2424 32.6798 29.0333 31.8889 29.0333 30.9132C29.0333 29.9374 28.2424 29.1465 27.2667 29.1465C26.291 29.1465 25.5 29.9374 25.5 30.9132C25.5 31.8889 26.291 32.6798 27.2667 32.6798Z" fill="white"/>
<path id="Vector_52" d="M27.2667 36.213C28.2424 36.213 29.0333 35.4221 29.0333 34.4464C29.0333 33.4707 28.2424 32.6797 27.2667 32.6797C26.291 32.6797 25.5 33.4707 25.5 34.4464C25.5 35.4221 26.291 36.213 27.2667 36.213Z" fill="white"/>
<path id="Vector_53" d="M27.2667 43.2794C28.2424 43.2794 29.0333 42.4885 29.0333 41.5128C29.0333 40.5371 28.2424 39.7461 27.2667 39.7461C26.291 39.7461 25.5 40.5371 25.5 41.5128C25.5 42.4885 26.291 43.2794 27.2667 43.2794Z" fill="white"/>
<path id="Vector_54" d="M27.2667 60.9464C28.2424 60.9464 29.0333 60.1555 29.0333 59.1798C29.0333 58.204 28.2424 57.4131 27.2667 57.4131C26.291 57.4131 25.5 58.204 25.5 59.1798C25.5 60.1555 26.291 60.9464 27.2667 60.9464Z" fill="white"/>
<path id="Vector_55" d="M27.2667 71.547C28.2424 71.547 29.0333 70.756 29.0333 69.7803C29.0333 68.8046 28.2424 68.0137 27.2667 68.0137C26.291 68.0137 25.5 68.8046 25.5 69.7803C25.5 70.756 26.291 71.547 27.2667 71.547Z" fill="white"/>
<path id="Vector_56" d="M30.8001 7.94642C31.7758 7.94642 32.5668 7.15546 32.5668 6.17975C32.5668 5.20405 31.7758 4.41309 30.8001 4.41309C29.8244 4.41309 29.0334 5.20405 29.0334 6.17975C29.0334 7.15546 29.8244 7.94642 30.8001 7.94642Z" fill="white"/>
<path id="Vector_57" d="M30.8001 11.4796C31.7758 11.4796 32.5668 10.6887 32.5668 9.71296C32.5668 8.73725 31.7758 7.94629 30.8001 7.94629C29.8244 7.94629 29.0334 8.73725 29.0334 9.71296C29.0334 10.6887 29.8244 11.4796 30.8001 11.4796Z" fill="white"/>
<path id="Vector_58" d="M30.8001 25.6134C31.7758 25.6134 32.5668 24.8224 32.5668 23.8467C32.5668 22.871 31.7758 22.0801 30.8001 22.0801C29.8244 22.0801 29.0334 22.871 29.0334 23.8467C29.0334 24.8224 29.8244 25.6134 30.8001 25.6134Z" fill="white"/>
<path id="Vector_59" d="M30.8001 39.7462C31.7758 39.7462 32.5668 38.9553 32.5668 37.9796C32.5668 37.0039 31.7758 36.2129 30.8001 36.2129C29.8244 36.2129 29.0334 37.0039 29.0334 37.9796C29.0334 38.9553 29.8244 39.7462 30.8001 39.7462Z" fill="white"/>
<path id="Vector_60" d="M30.8001 53.88C31.7758 53.88 32.5668 53.089 32.5668 52.1133C32.5668 51.1376 31.7758 50.3467 30.8001 50.3467C29.8244 50.3467 29.0334 51.1376 29.0334 52.1133C29.0334 53.089 29.8244 53.88 30.8001 53.88Z" fill="white"/>
<path id="Vector_61" d="M30.8001 60.9464C31.7758 60.9464 32.5668 60.1555 32.5668 59.1798C32.5668 58.204 31.7758 57.4131 30.8001 57.4131C29.8244 57.4131 29.0334 58.204 29.0334 59.1798C29.0334 60.1555 29.8244 60.9464 30.8001 60.9464Z" fill="white"/>
<path id="Vector_62" d="M30.8001 64.4796C31.7758 64.4796 32.5668 63.6887 32.5668 62.713C32.5668 61.7373 31.7758 60.9463 30.8001 60.9463C29.8244 60.9463 29.0334 61.7373 29.0334 62.713C29.0334 63.6887 29.8244 64.4796 30.8001 64.4796Z" fill="white"/>
<path id="Vector_63" d="M30.8001 71.547C31.7758 71.547 32.5668 70.756 32.5668 69.7803C32.5668 68.8046 31.7758 68.0137 30.8001 68.0137C29.8244 68.0137 29.0334 68.8046 29.0334 69.7803C29.0334 70.756 29.8244 71.547 30.8001 71.547Z" fill="white"/>
<path id="Vector_64" d="M30.8001 75.0802C31.7758 75.0802 32.5668 74.2892 32.5668 73.3135C32.5668 72.3378 31.7758 71.5469 30.8001 71.5469C29.8244 71.5469 29.0334 72.3378 29.0334 73.3135C29.0334 74.2892 29.8244 75.0802 30.8001 75.0802Z" fill="white"/>
<path id="Vector_65" d="M30.8001 82.1466C31.7758 82.1466 32.5668 81.3557 32.5668 80.3799C32.5668 79.4042 31.7758 78.6133 30.8001 78.6133C29.8244 78.6133 29.0334 79.4042 29.0334 80.3799C29.0334 81.3557 29.8244 82.1466 30.8001 82.1466Z" fill="white"/>
<path id="Vector_66" d="M30.8001 85.6798C31.7758 85.6798 32.5668 84.8889 32.5668 83.9132C32.5668 82.9374 31.7758 82.1465 30.8001 82.1465C29.8244 82.1465 29.0334 82.9374 29.0334 83.9132C29.0334 84.8889 29.8244 85.6798 30.8001 85.6798Z" fill="white"/>
<path id="Vector_67" d="M30.8001 92.7462C31.7758 92.7462 32.5668 91.9553 32.5668 90.9796C32.5668 90.0039 31.7758 89.2129 30.8001 89.2129C29.8244 89.2129 29.0334 90.0039 29.0334 90.9796C29.0334 91.9553 29.8244 92.7462 30.8001 92.7462Z" fill="white"/>
<path id="Vector_68" d="M34.3334 4.41322C35.3091 4.41322 36.1001 3.62225 36.1001 2.64655C36.1001 1.67085 35.3091 0.879883 34.3334 0.879883C33.3577 0.879883 32.5668 1.67085 32.5668 2.64655C32.5668 3.62225 33.3577 4.41322 34.3334 4.41322Z" fill="white"/>
<path id="Vector_69" d="M34.3334 11.4796C35.3091 11.4796 36.1001 10.6887 36.1001 9.71296C36.1001 8.73725 35.3091 7.94629 34.3334 7.94629C33.3577 7.94629 32.5668 8.73725 32.5668 9.71296C32.5668 10.6887 33.3577 11.4796 34.3334 11.4796Z" fill="white"/>
<path id="Vector_70" d="M34.3334 15.0128C35.3091 15.0128 36.1001 14.2219 36.1001 13.2462C36.1001 12.2705 35.3091 11.4795 34.3334 11.4795C33.3577 11.4795 32.5668 12.2705 32.5668 13.2462C32.5668 14.2219 33.3577 15.0128 34.3334 15.0128Z" fill="white"/>
<path id="Vector_71" d="M34.3334 18.547C35.3091 18.547 36.1001 17.756 36.1001 16.7803C36.1001 15.8046 35.3091 15.0137 34.3334 15.0137C33.3577 15.0137 32.5668 15.8046 32.5668 16.7803C32.5668 17.756 33.3577 18.547 34.3334 18.547Z" fill="white"/>
<path id="Vector_72" d="M34.3334 22.0802C35.3091 22.0802 36.1001 21.2892 36.1001 20.3135C36.1001 19.3378 35.3091 18.5469 34.3334 18.5469C33.3577 18.5469 32.5668 19.3378 32.5668 20.3135C32.5668 21.2892 33.3577 22.0802 34.3334 22.0802Z" fill="white"/>
<path id="Vector_73" d="M34.3334 29.1466C35.3091 29.1466 36.1001 28.3557 36.1001 27.3799C36.1001 26.4042 35.3091 25.6133 34.3334 25.6133C33.3577 25.6133 32.5668 26.4042 32.5668 27.3799C32.5668 28.3557 33.3577 29.1466 34.3334 29.1466Z" fill="white"/>
<path id="Vector_74" d="M34.3334 39.7462C35.3091 39.7462 36.1001 38.9553 36.1001 37.9796C36.1001 37.0039 35.3091 36.2129 34.3334 36.2129C33.3577 36.2129 32.5668 37.0039 32.5668 37.9796C32.5668 38.9553 33.3577 39.7462 34.3334 39.7462Z" fill="white"/>
<path id="Vector_75" d="M34.3334 46.8136C35.3091 46.8136 36.1001 46.0226 36.1001 45.0469C36.1001 44.0712 35.3091 43.2803 34.3334 43.2803C33.3577 43.2803 32.5668 44.0712 32.5668 45.0469C32.5668 46.0226 33.3577 46.8136 34.3334 46.8136Z" fill="white"/>
<path id="Vector_76" d="M34.3334 57.4132C35.3091 57.4132 36.1001 56.6223 36.1001 55.6465C36.1001 54.6708 35.3091 53.8799 34.3334 53.8799C33.3577 53.8799 32.5668 54.6708 32.5668 55.6465C32.5668 56.6223 33.3577 57.4132 34.3334 57.4132Z" fill="white"/>
<path id="Vector_77" d="M34.3334 64.4796C35.3091 64.4796 36.1001 63.6887 36.1001 62.713C36.1001 61.7373 35.3091 60.9463 34.3334 60.9463C33.3577 60.9463 32.5668 61.7373 32.5668 62.713C32.5668 63.6887 33.3577 64.4796 34.3334 64.4796Z" fill="white"/>
<path id="Vector_78" d="M34.3334 68.0128C35.3091 68.0128 36.1001 67.2219 36.1001 66.2462C36.1001 65.2705 35.3091 64.4795 34.3334 64.4795C33.3577 64.4795 32.5668 65.2705 32.5668 66.2462C32.5668 67.2219 33.3577 68.0128 34.3334 68.0128Z" fill="white"/>
<path id="Vector_79" d="M34.3334 75.0802C35.3091 75.0802 36.1001 74.2892 36.1001 73.3135C36.1001 72.3378 35.3091 71.5469 34.3334 71.5469C33.3577 71.5469 32.5668 72.3378 32.5668 73.3135C32.5668 74.2892 33.3577 75.0802 34.3334 75.0802Z" fill="white"/>
<path id="Vector_80" d="M34.3334 78.6134C35.3091 78.6134 36.1001 77.8224 36.1001 76.8467C36.1001 75.871 35.3091 75.0801 34.3334 75.0801C33.3577 75.0801 32.5668 75.871 32.5668 76.8467C32.5668 77.8224 33.3577 78.6134 34.3334 78.6134Z" fill="white"/>
<path id="Vector_81" d="M34.3334 82.1466C35.3091 82.1466 36.1001 81.3557 36.1001 80.3799C36.1001 79.4042 35.3091 78.6133 34.3334 78.6133C33.3577 78.6133 32.5668 79.4042 32.5668 80.3799C32.5668 81.3557 33.3577 82.1466 34.3334 82.1466Z" fill="white"/>
<path id="Vector_82" d="M34.3334 99.8136C35.3091 99.8136 36.1001 99.0226 36.1001 98.0469C36.1001 97.0712 35.3091 96.2803 34.3334 96.2803C33.3577 96.2803 32.5668 97.0712 32.5668 98.0469C32.5668 99.0226 33.3577 99.8136 34.3334 99.8136Z" fill="white"/>
<path id="Vector_83" d="M34.3334 103.347C35.3091 103.347 36.1001 102.556 36.1001 101.58C36.1001 100.604 35.3091 99.8135 34.3334 99.8135C33.3577 99.8135 32.5668 100.604 32.5668 101.58C32.5668 102.556 33.3577 103.347 34.3334 103.347Z" fill="white"/>
<path id="Vector_84" d="M37.8668 7.94642C38.8425 7.94642 39.6334 7.15546 39.6334 6.17975C39.6334 5.20405 38.8425 4.41309 37.8668 4.41309C36.8911 4.41309 36.1001 5.20405 36.1001 6.17975C36.1001 7.15546 36.8911 7.94642 37.8668 7.94642Z" fill="white"/>
<path id="Vector_85" d="M37.8668 15.0128C38.8425 15.0128 39.6334 14.2219 39.6334 13.2462C39.6334 12.2705 38.8425 11.4795 37.8668 11.4795C36.8911 11.4795 36.1001 12.2705 36.1001 13.2462C36.1001 14.2219 36.8911 15.0128 37.8668 15.0128Z" fill="white"/>
<path id="Vector_86" d="M37.8668 25.6134C38.8425 25.6134 39.6334 24.8224 39.6334 23.8467C39.6334 22.871 38.8425 22.0801 37.8668 22.0801C36.8911 22.0801 36.1001 22.871 36.1001 23.8467C36.1001 24.8224 36.8911 25.6134 37.8668 25.6134Z" fill="white"/>
<path id="Vector_87" d="M37.8668 32.6798C38.8425 32.6798 39.6334 31.8889 39.6334 30.9132C39.6334 29.9374 38.8425 29.1465 37.8668 29.1465C36.8911 29.1465 36.1001 29.9374 36.1001 30.9132C36.1001 31.8889 36.8911 32.6798 37.8668 32.6798Z" fill="white"/>
<path id="Vector_88" d="M37.8668 39.7462C38.8425 39.7462 39.6334 38.9553 39.6334 37.9796C39.6334 37.0039 38.8425 36.2129 37.8668 36.2129C36.8911 36.2129 36.1001 37.0039 36.1001 37.9796C36.1001 38.9553 36.8911 39.7462 37.8668 39.7462Z" fill="white"/>
<path id="Vector_89" d="M37.8668 43.2794C38.8425 43.2794 39.6334 42.4885 39.6334 41.5128C39.6334 40.5371 38.8425 39.7461 37.8668 39.7461C36.8911 39.7461 36.1001 40.5371 36.1001 41.5128C36.1001 42.4885 36.8911 43.2794 37.8668 43.2794Z" fill="white"/>
<path id="Vector_90" d="M37.8668 53.88C38.8425 53.88 39.6334 53.089 39.6334 52.1133C39.6334 51.1376 38.8425 50.3467 37.8668 50.3467C36.8911 50.3467 36.1001 51.1376 36.1001 52.1133C36.1001 53.089 36.8911 53.88 37.8668 53.88Z" fill="white"/>
<path id="Vector_91" d="M37.8668 57.4132C38.8425 57.4132 39.6334 56.6223 39.6334 55.6465C39.6334 54.6708 38.8425 53.8799 37.8668 53.8799C36.8911 53.8799 36.1001 54.6708 36.1001 55.6465C36.1001 56.6223 36.8911 57.4132 37.8668 57.4132Z" fill="white"/>
<path id="Vector_92" d="M37.8668 64.4796C38.8425 64.4796 39.6334 63.6887 39.6334 62.713C39.6334 61.7373 38.8425 60.9463 37.8668 60.9463C36.8911 60.9463 36.1001 61.7373 36.1001 62.713C36.1001 63.6887 36.8911 64.4796 37.8668 64.4796Z" fill="white"/>
<path id="Vector_93" d="M37.8668 71.547C38.8425 71.547 39.6334 70.756 39.6334 69.7803C39.6334 68.8046 38.8425 68.0137 37.8668 68.0137C36.8911 68.0137 36.1001 68.8046 36.1001 69.7803C36.1001 70.756 36.8911 71.547 37.8668 71.547Z" fill="white"/>
<path id="Vector_94" d="M37.8668 75.0802C38.8425 75.0802 39.6334 74.2892 39.6334 73.3135C39.6334 72.3378 38.8425 71.5469 37.8668 71.5469C36.8911 71.5469 36.1001 72.3378 36.1001 73.3135C36.1001 74.2892 36.8911 75.0802 37.8668 75.0802Z" fill="white"/>
<path id="Vector_95" d="M37.8668 78.6134C38.8425 78.6134 39.6334 77.8224 39.6334 76.8467C39.6334 75.871 38.8425 75.0801 37.8668 75.0801C36.8911 75.0801 36.1001 75.871 36.1001 76.8467C36.1001 77.8224 36.8911 78.6134 37.8668 78.6134Z" fill="white"/>
<path id="Vector_96" d="M37.8668 89.213C38.8425 89.213 39.6334 88.4221 39.6334 87.4464C39.6334 86.4707 38.8425 85.6797 37.8668 85.6797C36.8911 85.6797 36.1001 86.4707 36.1001 87.4464C36.1001 88.4221 36.8911 89.213 37.8668 89.213Z" fill="white"/>
<path id="Vector_97" d="M37.8668 103.347C38.8425 103.347 39.6334 102.556 39.6334 101.58C39.6334 100.604 38.8425 99.8135 37.8668 99.8135C36.8911 99.8135 36.1001 100.604 36.1001 101.58C36.1001 102.556 36.8911 103.347 37.8668 103.347Z" fill="white"/>
<path id="Vector_98" d="M41.4001 4.41322C42.3758 4.41322 43.1668 3.62225 43.1668 2.64655C43.1668 1.67085 42.3758 0.879883 41.4001 0.879883C40.4244 0.879883 39.6334 1.67085 39.6334 2.64655C39.6334 3.62225 40.4244 4.41322 41.4001 4.41322Z" fill="white"/>
<path id="Vector_99" d="M41.4001 11.4796C42.3758 11.4796 43.1668 10.6887 43.1668 9.71296C43.1668 8.73725 42.3758 7.94629 41.4001 7.94629C40.4244 7.94629 39.6334 8.73725 39.6334 9.71296C39.6334 10.6887 40.4244 11.4796 41.4001 11.4796Z" fill="white"/>
<path id="Vector_100" d="M41.4001 22.0802C42.3758 22.0802 43.1668 21.2892 43.1668 20.3135C43.1668 19.3378 42.3758 18.5469 41.4001 18.5469C40.4244 18.5469 39.6334 19.3378 39.6334 20.3135C39.6334 21.2892 40.4244 22.0802 41.4001 22.0802Z" fill="white"/>
<path id="Vector_101" d="M41.4001 29.1466C42.3758 29.1466 43.1668 28.3557 43.1668 27.3799C43.1668 26.4042 42.3758 25.6133 41.4001 25.6133C40.4244 25.6133 39.6334 26.4042 39.6334 27.3799C39.6334 28.3557 40.4244 29.1466 41.4001 29.1466Z" fill="white"/>
<path id="Vector_102" d="M41.4001 32.6798C42.3758 32.6798 43.1668 31.8889 43.1668 30.9132C43.1668 29.9374 42.3758 29.1465 41.4001 29.1465C40.4244 29.1465 39.6334 29.9374 39.6334 30.9132C39.6334 31.8889 40.4244 32.6798 41.4001 32.6798Z" fill="white"/>
<path id="Vector_103" d="M41.4001 39.7462C42.3758 39.7462 43.1668 38.9553 43.1668 37.9796C43.1668 37.0039 42.3758 36.2129 41.4001 36.2129C40.4244 36.2129 39.6334 37.0039 39.6334 37.9796C39.6334 38.9553 40.4244 39.7462 41.4001 39.7462Z" fill="white"/>
<path id="Vector_104" d="M41.4001 68.0128C42.3758 68.0128 43.1668 67.2219 43.1668 66.2462C43.1668 65.2705 42.3758 64.4795 41.4001 64.4795C40.4244 64.4795 39.6334 65.2705 39.6334 66.2462C39.6334 67.2219 40.4244 68.0128 41.4001 68.0128Z" fill="white"/>
<path id="Vector_105" d="M41.4001 71.547C42.3758 71.547 43.1668 70.756 43.1668 69.7803C43.1668 68.8046 42.3758 68.0137 41.4001 68.0137C40.4244 68.0137 39.6334 68.8046 39.6334 69.7803C39.6334 70.756 40.4244 71.547 41.4001 71.547Z" fill="white"/>
<path id="Vector_106" d="M41.4001 75.0802C42.3758 75.0802 43.1668 74.2892 43.1668 73.3135C43.1668 72.3378 42.3758 71.5469 41.4001 71.5469C40.4244 71.5469 39.6334 72.3378 39.6334 73.3135C39.6334 74.2892 40.4244 75.0802 41.4001 75.0802Z" fill="white"/>
<path id="Vector_107" d="M41.4001 82.1466C42.3758 82.1466 43.1668 81.3557 43.1668 80.3799C43.1668 79.4042 42.3758 78.6133 41.4001 78.6133C40.4244 78.6133 39.6334 79.4042 39.6334 80.3799C39.6334 81.3557 40.4244 82.1466 41.4001 82.1466Z" fill="white"/>
<path id="Vector_108" d="M41.4001 85.6798C42.3758 85.6798 43.1668 84.8889 43.1668 83.9132C43.1668 82.9374 42.3758 82.1465 41.4001 82.1465C40.4244 82.1465 39.6334 82.9374 39.6334 83.9132C39.6334 84.8889 40.4244 85.6798 41.4001 85.6798Z" fill="white"/>
<path id="Vector_109" d="M41.4001 89.213C42.3758 89.213 43.1668 88.4221 43.1668 87.4464C43.1668 86.4707 42.3758 85.6797 41.4001 85.6797C40.4244 85.6797 39.6334 86.4707 39.6334 87.4464C39.6334 88.4221 40.4244 89.213 41.4001 89.213Z" fill="white"/>
<path id="Vector_110" d="M41.4001 92.7462C42.3758 92.7462 43.1668 91.9553 43.1668 90.9796C43.1668 90.0039 42.3758 89.2129 41.4001 89.2129C40.4244 89.2129 39.6334 90.0039 39.6334 90.9796C39.6334 91.9553 40.4244 92.7462 41.4001 92.7462Z" fill="white"/>
<path id="Vector_111" d="M44.9334 4.41322C45.9091 4.41322 46.7001 3.62225 46.7001 2.64655C46.7001 1.67085 45.9091 0.879883 44.9334 0.879883C43.9577 0.879883 43.1667 1.67085 43.1667 2.64655C43.1667 3.62225 43.9577 4.41322 44.9334 4.41322Z" fill="white"/>
<path id="Vector_112" d="M44.9334 15.0128C45.9091 15.0128 46.7001 14.2219 46.7001 13.2462C46.7001 12.2705 45.9091 11.4795 44.9334 11.4795C43.9577 11.4795 43.1667 12.2705 43.1667 13.2462C43.1667 14.2219 43.9577 15.0128 44.9334 15.0128Z" fill="white"/>
<path id="Vector_113" d="M44.9334 18.547C45.9091 18.547 46.7001 17.756 46.7001 16.7803C46.7001 15.8046 45.9091 15.0137 44.9334 15.0137C43.9577 15.0137 43.1667 15.8046 43.1667 16.7803C43.1667 17.756 43.9577 18.547 44.9334 18.547Z" fill="white"/>
<path id="Vector_114" d="M44.9334 25.6134C45.9091 25.6134 46.7001 24.8224 46.7001 23.8467C46.7001 22.871 45.9091 22.0801 44.9334 22.0801C43.9577 22.0801 43.1667 22.871 43.1667 23.8467C43.1667 24.8224 43.9577 25.6134 44.9334 25.6134Z" fill="white"/>
<path id="Vector_115" d="M44.9334 36.213C45.9091 36.213 46.7001 35.4221 46.7001 34.4464C46.7001 33.4707 45.9091 32.6797 44.9334 32.6797C43.9577 32.6797 43.1667 33.4707 43.1667 34.4464C43.1667 35.4221 43.9577 36.213 44.9334 36.213Z" fill="white"/>
<path id="Vector_116" d="M44.9334 78.6134C45.9091 78.6134 46.7001 77.8224 46.7001 76.8467C46.7001 75.871 45.9091 75.0801 44.9334 75.0801C43.9577 75.0801 43.1667 75.871 43.1667 76.8467C43.1667 77.8224 43.9577 78.6134 44.9334 78.6134Z" fill="white"/>
<path id="Vector_117" d="M44.9334 82.1466C45.9091 82.1466 46.7001 81.3557 46.7001 80.3799C46.7001 79.4042 45.9091 78.6133 44.9334 78.6133C43.9577 78.6133 43.1667 79.4042 43.1667 80.3799C43.1667 81.3557 43.9577 82.1466 44.9334 82.1466Z" fill="white"/>
<path id="Vector_118" d="M44.9334 92.7462C45.9091 92.7462 46.7001 91.9553 46.7001 90.9796C46.7001 90.0039 45.9091 89.2129 44.9334 89.2129C43.9577 89.2129 43.1667 90.0039 43.1667 90.9796C43.1667 91.9553 43.9577 92.7462 44.9334 92.7462Z" fill="white"/>
<path id="Vector_119" d="M44.9334 99.8136C45.9091 99.8136 46.7001 99.0226 46.7001 98.0469C46.7001 97.0712 45.9091 96.2803 44.9334 96.2803C43.9577 96.2803 43.1667 97.0712 43.1667 98.0469C43.1667 99.0226 43.9577 99.8136 44.9334 99.8136Z" fill="white"/>
<path id="Vector_120" d="M48.4667 4.41322C49.4424 4.41322 50.2334 3.62225 50.2334 2.64655C50.2334 1.67085 49.4424 0.879883 48.4667 0.879883C47.491 0.879883 46.7001 1.67085 46.7001 2.64655C46.7001 3.62225 47.491 4.41322 48.4667 4.41322Z" fill="white"/>
<path id="Vector_121" d="M48.4667 11.4796C49.4424 11.4796 50.2334 10.6887 50.2334 9.71296C50.2334 8.73725 49.4424 7.94629 48.4667 7.94629C47.491 7.94629 46.7001 8.73725 46.7001 9.71296C46.7001 10.6887 47.491 11.4796 48.4667 11.4796Z" fill="white"/>
<path id="Vector_122" d="M48.4667 29.1466C49.4424 29.1466 50.2334 28.3557 50.2334 27.3799C50.2334 26.4042 49.4424 25.6133 48.4667 25.6133C47.491 25.6133 46.7001 26.4042 46.7001 27.3799C46.7001 28.3557 47.491 29.1466 48.4667 29.1466Z" fill="white"/>
<path id="Vector_123" d="M48.4667 71.547C49.4424 71.547 50.2334 70.756 50.2334 69.7803C50.2334 68.8046 49.4424 68.0137 48.4667 68.0137C47.491 68.0137 46.7001 68.8046 46.7001 69.7803C46.7001 70.756 47.491 71.547 48.4667 71.547Z" fill="white"/>
<path id="Vector_124" d="M48.4667 75.0802C49.4424 75.0802 50.2334 74.2892 50.2334 73.3135C50.2334 72.3378 49.4424 71.5469 48.4667 71.5469C47.491 71.5469 46.7001 72.3378 46.7001 73.3135C46.7001 74.2892 47.491 75.0802 48.4667 75.0802Z" fill="white"/>
<path id="Vector_125" d="M48.4667 82.1466C49.4424 82.1466 50.2334 81.3557 50.2334 80.3799C50.2334 79.4042 49.4424 78.6133 48.4667 78.6133C47.491 78.6133 46.7001 79.4042 46.7001 80.3799C46.7001 81.3557 47.491 82.1466 48.4667 82.1466Z" fill="white"/>
<path id="Vector_126" d="M48.4667 92.7462C49.4424 92.7462 50.2334 91.9553 50.2334 90.9796C50.2334 90.0039 49.4424 89.2129 48.4667 89.2129C47.491 89.2129 46.7001 90.0039 46.7001 90.9796C46.7001 91.9553 47.491 92.7462 48.4667 92.7462Z" fill="white"/>
<path id="Vector_127" d="M48.4667 103.347C49.4424 103.347 50.2334 102.556 50.2334 101.58C50.2334 100.604 49.4424 99.8135 48.4667 99.8135C47.491 99.8135 46.7001 100.604 46.7001 101.58C46.7001 102.556 47.491 103.347 48.4667 103.347Z" fill="white"/>
<path id="Vector_128" d="M52.0001 7.94642C52.9758 7.94642 53.7667 7.15546 53.7667 6.17975C53.7667 5.20405 52.9758 4.41309 52.0001 4.41309C51.0244 4.41309 50.2334 5.20405 50.2334 6.17975C50.2334 7.15546 51.0244 7.94642 52.0001 7.94642Z" fill="white"/>
<path id="Vector_129" d="M52.0001 18.547C52.9758 18.547 53.7667 17.756 53.7667 16.7803C53.7667 15.8046 52.9758 15.0137 52.0001 15.0137C51.0244 15.0137 50.2334 15.8046 50.2334 16.7803C50.2334 17.756 51.0244 18.547 52.0001 18.547Z" fill="white"/>
<path id="Vector_130" d="M52.0001 25.6134C52.9758 25.6134 53.7667 24.8224 53.7667 23.8467C53.7667 22.871 52.9758 22.0801 52.0001 22.0801C51.0244 22.0801 50.2334 22.871 50.2334 23.8467C50.2334 24.8224 51.0244 25.6134 52.0001 25.6134Z" fill="white"/>
<path id="Vector_131" d="M52.0001 36.213C52.9758 36.213 53.7667 35.4221 53.7667 34.4464C53.7667 33.4707 52.9758 32.6797 52.0001 32.6797C51.0244 32.6797 50.2334 33.4707 50.2334 34.4464C50.2334 35.4221 51.0244 36.213 52.0001 36.213Z" fill="white"/>
<path id="Vector_132" d="M52.0001 71.547C52.9758 71.547 53.7667 70.756 53.7667 69.7803C53.7667 68.8046 52.9758 68.0137 52.0001 68.0137C51.0244 68.0137 50.2334 68.8046 50.2334 69.7803C50.2334 70.756 51.0244 71.547 52.0001 71.547Z" fill="white"/>
<path id="Vector_133" d="M52.0001 78.6134C52.9758 78.6134 53.7667 77.8224 53.7667 76.8467C53.7667 75.871 52.9758 75.0801 52.0001 75.0801C51.0244 75.0801 50.2334 75.871 50.2334 76.8467C50.2334 77.8224 51.0244 78.6134 52.0001 78.6134Z" fill="white"/>
<path id="Vector_134" d="M52.0001 82.1466C52.9758 82.1466 53.7667 81.3557 53.7667 80.3799C53.7667 79.4042 52.9758 78.6133 52.0001 78.6133C51.0244 78.6133 50.2334 79.4042 50.2334 80.3799C50.2334 81.3557 51.0244 82.1466 52.0001 82.1466Z" fill="white"/>
<path id="Vector_135" d="M52.0001 92.7462C52.9758 92.7462 53.7667 91.9553 53.7667 90.9796C53.7667 90.0039 52.9758 89.2129 52.0001 89.2129C51.0244 89.2129 50.2334 90.0039 50.2334 90.9796C50.2334 91.9553 51.0244 92.7462 52.0001 92.7462Z" fill="white"/>
<path id="Vector_136" d="M52.0001 96.2794C52.9758 96.2794 53.7667 95.4885 53.7667 94.5128C53.7667 93.5371 52.9758 92.7461 52.0001 92.7461C51.0244 92.7461 50.2334 93.5371 50.2334 94.5128C50.2334 95.4885 51.0244 96.2794 52.0001 96.2794Z" fill="white"/>
<path id="Vector_137" d="M52.0001 103.347C52.9758 103.347 53.7667 102.556 53.7667 101.58C53.7667 100.604 52.9758 99.8135 52.0001 99.8135C51.0244 99.8135 50.2334 100.604 50.2334 101.58C50.2334 102.556 51.0244 103.347 52.0001 103.347Z" fill="white"/>
<path id="Vector_138" d="M55.5334 4.41322C56.5091 4.41322 57.3001 3.62225 57.3001 2.64655C57.3001 1.67085 56.5091 0.879883 55.5334 0.879883C54.5577 0.879883 53.7667 1.67085 53.7667 2.64655C53.7667 3.62225 54.5577 4.41322 55.5334 4.41322Z" fill="white"/>
<path id="Vector_139" d="M55.5334 15.0128C56.5091 15.0128 57.3001 14.2219 57.3001 13.2462C57.3001 12.2705 56.5091 11.4795 55.5334 11.4795C54.5577 11.4795 53.7667 12.2705 53.7667 13.2462C53.7667 14.2219 54.5577 15.0128 55.5334 15.0128Z" fill="white"/>
<path id="Vector_140" d="M55.5334 22.0802C56.5091 22.0802 57.3001 21.2892 57.3001 20.3135C57.3001 19.3378 56.5091 18.5469 55.5334 18.5469C54.5577 18.5469 53.7667 19.3378 53.7667 20.3135C53.7667 21.2892 54.5577 22.0802 55.5334 22.0802Z" fill="white"/>
<path id="Vector_141" d="M55.5334 29.1466C56.5091 29.1466 57.3001 28.3557 57.3001 27.3799C57.3001 26.4042 56.5091 25.6133 55.5334 25.6133C54.5577 25.6133 53.7667 26.4042 53.7667 27.3799C53.7667 28.3557 54.5577 29.1466 55.5334 29.1466Z" fill="white"/>
<path id="Vector_142" d="M55.5334 32.6798C56.5091 32.6798 57.3001 31.8889 57.3001 30.9132C57.3001 29.9374 56.5091 29.1465 55.5334 29.1465C54.5577 29.1465 53.7667 29.9374 53.7667 30.9132C53.7667 31.8889 54.5577 32.6798 55.5334 32.6798Z" fill="white"/>
<path id="Vector_143" d="M55.5334 39.7462C56.5091 39.7462 57.3001 38.9553 57.3001 37.9796C57.3001 37.0039 56.5091 36.2129 55.5334 36.2129C54.5577 36.2129 53.7667 37.0039 53.7667 37.9796C53.7667 38.9553 54.5577 39.7462 55.5334 39.7462Z" fill="white"/>
<path id="Vector_144" d="M55.5334 78.6134C56.5091 78.6134 57.3001 77.8224 57.3001 76.8467C57.3001 75.871 56.5091 75.0801 55.5334 75.0801C54.5577 75.0801 53.7667 75.871 53.7667 76.8467C53.7667 77.8224 54.5577 78.6134 55.5334 78.6134Z" fill="white"/>
<path id="Vector_145" d="M55.5334 82.1466C56.5091 82.1466 57.3001 81.3557 57.3001 80.3799C57.3001 79.4042 56.5091 78.6133 55.5334 78.6133C54.5577 78.6133 53.7667 79.4042 53.7667 80.3799C53.7667 81.3557 54.5577 82.1466 55.5334 82.1466Z" fill="white"/>
<path id="Vector_146" d="M55.5334 92.7462C56.5091 92.7462 57.3001 91.9553 57.3001 90.9796C57.3001 90.0039 56.5091 89.2129 55.5334 89.2129C54.5577 89.2129 53.7667 90.0039 53.7667 90.9796C53.7667 91.9553 54.5577 92.7462 55.5334 92.7462Z" fill="white"/>
<path id="Vector_147" d="M55.5334 103.347C56.5091 103.347 57.3001 102.556 57.3001 101.58C57.3001 100.604 56.5091 99.8135 55.5334 99.8135C54.5577 99.8135 53.7667 100.604 53.7667 101.58C53.7667 102.556 54.5577 103.347 55.5334 103.347Z" fill="white"/>
<path id="Vector_148" d="M59.0667 4.41322C60.0424 4.41322 60.8334 3.62225 60.8334 2.64655C60.8334 1.67085 60.0424 0.879883 59.0667 0.879883C58.091 0.879883 57.3 1.67085 57.3 2.64655C57.3 3.62225 58.091 4.41322 59.0667 4.41322Z" fill="white"/>
<path id="Vector_149" d="M59.0667 15.0128C60.0424 15.0128 60.8334 14.2219 60.8334 13.2462C60.8334 12.2705 60.0424 11.4795 59.0667 11.4795C58.091 11.4795 57.3 12.2705 57.3 13.2462C57.3 14.2219 58.091 15.0128 59.0667 15.0128Z" fill="white"/>
<path id="Vector_150" d="M59.0667 18.547C60.0424 18.547 60.8334 17.756 60.8334 16.7803C60.8334 15.8046 60.0424 15.0137 59.0667 15.0137C58.091 15.0137 57.3 15.8046 57.3 16.7803C57.3 17.756 58.091 18.547 59.0667 18.547Z" fill="white"/>
<path id="Vector_151" d="M59.0667 22.0802C60.0424 22.0802 60.8334 21.2892 60.8334 20.3135C60.8334 19.3378 60.0424 18.5469 59.0667 18.5469C58.091 18.5469 57.3 19.3378 57.3 20.3135C57.3 21.2892 58.091 22.0802 59.0667 22.0802Z" fill="white"/>
<path id="Vector_152" d="M59.0667 25.6134C60.0424 25.6134 60.8334 24.8224 60.8334 23.8467C60.8334 22.871 60.0424 22.0801 59.0667 22.0801C58.091 22.0801 57.3 22.871 57.3 23.8467C57.3 24.8224 58.091 25.6134 59.0667 25.6134Z" fill="white"/>
<path id="Vector_153" d="M59.0667 32.6798C60.0424 32.6798 60.8334 31.8889 60.8334 30.9132C60.8334 29.9374 60.0424 29.1465 59.0667 29.1465C58.091 29.1465 57.3 29.9374 57.3 30.9132C57.3 31.8889 58.091 32.6798 59.0667 32.6798Z" fill="white"/>
<path id="Vector_154" d="M59.0667 36.213C60.0424 36.213 60.8334 35.4221 60.8334 34.4464C60.8334 33.4707 60.0424 32.6797 59.0667 32.6797C58.091 32.6797 57.3 33.4707 57.3 34.4464C57.3 35.4221 58.091 36.213 59.0667 36.213Z" fill="white"/>
<path id="Vector_155" d="M59.0667 39.7462C60.0424 39.7462 60.8334 38.9553 60.8334 37.9796C60.8334 37.0039 60.0424 36.2129 59.0667 36.2129C58.091 36.2129 57.3 37.0039 57.3 37.9796C57.3 38.9553 58.091 39.7462 59.0667 39.7462Z" fill="white"/>
<path id="Vector_156" d="M59.0667 68.0128C60.0424 68.0128 60.8334 67.2219 60.8334 66.2462C60.8334 65.2705 60.0424 64.4795 59.0667 64.4795C58.091 64.4795 57.3 65.2705 57.3 66.2462C57.3 67.2219 58.091 68.0128 59.0667 68.0128Z" fill="white"/>
<path id="Vector_157" d="M59.0667 71.547C60.0424 71.547 60.8334 70.756 60.8334 69.7803C60.8334 68.8046 60.0424 68.0137 59.0667 68.0137C58.091 68.0137 57.3 68.8046 57.3 69.7803C57.3 70.756 58.091 71.547 59.0667 71.547Z" fill="white"/>
<path id="Vector_158" d="M59.0667 75.0802C60.0424 75.0802 60.8334 74.2892 60.8334 73.3135C60.8334 72.3378 60.0424 71.5469 59.0667 71.5469C58.091 71.5469 57.3 72.3378 57.3 73.3135C57.3 74.2892 58.091 75.0802 59.0667 75.0802Z" fill="white"/>
<path id="Vector_159" d="M59.0667 82.1466C60.0424 82.1466 60.8334 81.3557 60.8334 80.3799C60.8334 79.4042 60.0424 78.6133 59.0667 78.6133C58.091 78.6133 57.3 79.4042 57.3 80.3799C57.3 81.3557 58.091 82.1466 59.0667 82.1466Z" fill="white"/>
<path id="Vector_160" d="M59.0667 85.6798C60.0424 85.6798 60.8334 84.8889 60.8334 83.9132C60.8334 82.9374 60.0424 82.1465 59.0667 82.1465C58.091 82.1465 57.3 82.9374 57.3 83.9132C57.3 84.8889 58.091 85.6798 59.0667 85.6798Z" fill="white"/>
<path id="Vector_161" d="M59.0667 89.213C60.0424 89.213 60.8334 88.4221 60.8334 87.4464C60.8334 86.4707 60.0424 85.6797 59.0667 85.6797C58.091 85.6797 57.3 86.4707 57.3 87.4464C57.3 88.4221 58.091 89.213 59.0667 89.213Z" fill="white"/>
<path id="Vector_162" d="M62.6 7.94642C63.5757 7.94642 64.3667 7.15546 64.3667 6.17975C64.3667 5.20405 63.5757 4.41309 62.6 4.41309C61.6243 4.41309 60.8334 5.20405 60.8334 6.17975C60.8334 7.15546 61.6243 7.94642 62.6 7.94642Z" fill="white"/>
<path id="Vector_163" d="M62.6 11.4796C63.5757 11.4796 64.3667 10.6887 64.3667 9.71296C64.3667 8.73725 63.5757 7.94629 62.6 7.94629C61.6243 7.94629 60.8334 8.73725 60.8334 9.71296C60.8334 10.6887 61.6243 11.4796 62.6 11.4796Z" fill="white"/>
<path id="Vector_164" d="M62.6 15.0128C63.5757 15.0128 64.3667 14.2219 64.3667 13.2462C64.3667 12.2705 63.5757 11.4795 62.6 11.4795C61.6243 11.4795 60.8334 12.2705 60.8334 13.2462C60.8334 14.2219 61.6243 15.0128 62.6 15.0128Z" fill="white"/>
<path id="Vector_165" d="M62.6 36.213C63.5757 36.213 64.3667 35.4221 64.3667 34.4464C64.3667 33.4707 63.5757 32.6797 62.6 32.6797C61.6243 32.6797 60.8334 33.4707 60.8334 34.4464C60.8334 35.4221 61.6243 36.213 62.6 36.213Z" fill="white"/>
<path id="Vector_166" d="M62.6 75.0802C63.5757 75.0802 64.3667 74.2892 64.3667 73.3135C64.3667 72.3378 63.5757 71.5469 62.6 71.5469C61.6243 71.5469 60.8334 72.3378 60.8334 73.3135C60.8334 74.2892 61.6243 75.0802 62.6 75.0802Z" fill="white"/>
<path id="Vector_167" d="M62.6 85.6798C63.5757 85.6798 64.3667 84.8889 64.3667 83.9132C64.3667 82.9374 63.5757 82.1465 62.6 82.1465C61.6243 82.1465 60.8334 82.9374 60.8334 83.9132C60.8334 84.8889 61.6243 85.6798 62.6 85.6798Z" fill="white"/>
<path id="Vector_168" d="M62.6 92.7462C63.5757 92.7462 64.3667 91.9553 64.3667 90.9796C64.3667 90.0039 63.5757 89.2129 62.6 89.2129C61.6243 89.2129 60.8334 90.0039 60.8334 90.9796C60.8334 91.9553 61.6243 92.7462 62.6 92.7462Z" fill="white"/>
<path id="Vector_169" d="M62.6 96.2794C63.5757 96.2794 64.3667 95.4885 64.3667 94.5128C64.3667 93.5371 63.5757 92.7461 62.6 92.7461C61.6243 92.7461 60.8334 93.5371 60.8334 94.5128C60.8334 95.4885 61.6243 96.2794 62.6 96.2794Z" fill="white"/>
<path id="Vector_170" d="M62.6 103.347C63.5757 103.347 64.3667 102.556 64.3667 101.58C64.3667 100.604 63.5757 99.8135 62.6 99.8135C61.6243 99.8135 60.8334 100.604 60.8334 101.58C60.8334 102.556 61.6243 103.347 62.6 103.347Z" fill="white"/>
<path id="Vector_171" d="M66.1334 4.41322C67.1091 4.41322 67.9 3.62225 67.9 2.64655C67.9 1.67085 67.1091 0.879883 66.1334 0.879883C65.1577 0.879883 64.3667 1.67085 64.3667 2.64655C64.3667 3.62225 65.1577 4.41322 66.1334 4.41322Z" fill="white"/>
<path id="Vector_172" d="M66.1334 7.94642C67.1091 7.94642 67.9 7.15546 67.9 6.17975C67.9 5.20405 67.1091 4.41309 66.1334 4.41309C65.1577 4.41309 64.3667 5.20405 64.3667 6.17975C64.3667 7.15546 65.1577 7.94642 66.1334 7.94642Z" fill="white"/>
<path id="Vector_173" d="M66.1334 11.4796C67.1091 11.4796 67.9 10.6887 67.9 9.71296C67.9 8.73725 67.1091 7.94629 66.1334 7.94629C65.1577 7.94629 64.3667 8.73725 64.3667 9.71296C64.3667 10.6887 65.1577 11.4796 66.1334 11.4796Z" fill="white"/>
<path id="Vector_174" d="M66.1334 22.0802C67.1091 22.0802 67.9 21.2892 67.9 20.3135C67.9 19.3378 67.1091 18.5469 66.1334 18.5469C65.1577 18.5469 64.3667 19.3378 64.3667 20.3135C64.3667 21.2892 65.1577 22.0802 66.1334 22.0802Z" fill="white"/>
<path id="Vector_175" d="M66.1334 25.6134C67.1091 25.6134 67.9 24.8224 67.9 23.8467C67.9 22.871 67.1091 22.0801 66.1334 22.0801C65.1577 22.0801 64.3667 22.871 64.3667 23.8467C64.3667 24.8224 65.1577 25.6134 66.1334 25.6134Z" fill="white"/>
<path id="Vector_176" d="M66.1334 32.6798C67.1091 32.6798 67.9 31.8889 67.9 30.9132C67.9 29.9374 67.1091 29.1465 66.1334 29.1465C65.1577 29.1465 64.3667 29.9374 64.3667 30.9132C64.3667 31.8889 65.1577 32.6798 66.1334 32.6798Z" fill="white"/>
<path id="Vector_177" d="M66.1334 46.8136C67.1091 46.8136 67.9 46.0226 67.9 45.0469C67.9 44.0712 67.1091 43.2803 66.1334 43.2803C65.1577 43.2803 64.3667 44.0712 64.3667 45.0469C64.3667 46.0226 65.1577 46.8136 66.1334 46.8136Z" fill="white"/>
<path id="Vector_178" d="M66.1334 53.88C67.1091 53.88 67.9 53.089 67.9 52.1133C67.9 51.1376 67.1091 50.3467 66.1334 50.3467C65.1577 50.3467 64.3667 51.1376 64.3667 52.1133C64.3667 53.089 65.1577 53.88 66.1334 53.88Z" fill="white"/>
<path id="Vector_179" d="M66.1334 60.9464C67.1091 60.9464 67.9 60.1555 67.9 59.1798C67.9 58.204 67.1091 57.4131 66.1334 57.4131C65.1577 57.4131 64.3667 58.204 64.3667 59.1798C64.3667 60.1555 65.1577 60.9464 66.1334 60.9464Z" fill="white"/>
<path id="Vector_180" d="M66.1334 64.4796C67.1091 64.4796 67.9 63.6887 67.9 62.713C67.9 61.7373 67.1091 60.9463 66.1334 60.9463C65.1577 60.9463 64.3667 61.7373 64.3667 62.713C64.3667 63.6887 65.1577 64.4796 66.1334 64.4796Z" fill="white"/>
<path id="Vector_181" d="M66.1334 71.547C67.1091 71.547 67.9 70.756 67.9 69.7803C67.9 68.8046 67.1091 68.0137 66.1334 68.0137C65.1577 68.0137 64.3667 68.8046 64.3667 69.7803C64.3667 70.756 65.1577 71.547 66.1334 71.547Z" fill="white"/>
<path id="Vector_182" d="M66.1334 75.0802C67.1091 75.0802 67.9 74.2892 67.9 73.3135C67.9 72.3378 67.1091 71.5469 66.1334 71.5469C65.1577 71.5469 64.3667 72.3378 64.3667 73.3135C64.3667 74.2892 65.1577 75.0802 66.1334 75.0802Z" fill="white"/>
<path id="Vector_183" d="M66.1334 103.347C67.1091 103.347 67.9 102.556 67.9 101.58C67.9 100.604 67.1091 99.8135 66.1334 99.8135C65.1577 99.8135 64.3667 100.604 64.3667 101.58C64.3667 102.556 65.1577 103.347 66.1334 103.347Z" fill="white"/>
<path id="Vector_184" d="M69.6667 15.0128C70.6424 15.0128 71.4334 14.2219 71.4334 13.2462C71.4334 12.2705 70.6424 11.4795 69.6667 11.4795C68.691 11.4795 67.9 12.2705 67.9 13.2462C67.9 14.2219 68.691 15.0128 69.6667 15.0128Z" fill="white"/>
<path id="Vector_185" d="M69.6667 18.547C70.6424 18.547 71.4334 17.756 71.4334 16.7803C71.4334 15.8046 70.6424 15.0137 69.6667 15.0137C68.691 15.0137 67.9 15.8046 67.9 16.7803C67.9 17.756 68.691 18.547 69.6667 18.547Z" fill="white"/>
<path id="Vector_186" d="M69.6667 22.0802C70.6424 22.0802 71.4334 21.2892 71.4334 20.3135C71.4334 19.3378 70.6424 18.5469 69.6667 18.5469C68.691 18.5469 67.9 19.3378 67.9 20.3135C67.9 21.2892 68.691 22.0802 69.6667 22.0802Z" fill="white"/>
<path id="Vector_187" d="M69.6667 32.6798C70.6424 32.6798 71.4334 31.8889 71.4334 30.9132C71.4334 29.9374 70.6424 29.1465 69.6667 29.1465C68.691 29.1465 67.9 29.9374 67.9 30.9132C67.9 31.8889 68.691 32.6798 69.6667 32.6798Z" fill="white"/>
<path id="Vector_188" d="M69.6667 39.7462C70.6424 39.7462 71.4334 38.9553 71.4334 37.9796C71.4334 37.0039 70.6424 36.2129 69.6667 36.2129C68.691 36.2129 67.9 37.0039 67.9 37.9796C67.9 38.9553 68.691 39.7462 69.6667 39.7462Z" fill="white"/>
<path id="Vector_189" d="M69.6667 43.2794C70.6424 43.2794 71.4334 42.4885 71.4334 41.5128C71.4334 40.5371 70.6424 39.7461 69.6667 39.7461C68.691 39.7461 67.9 40.5371 67.9 41.5128C67.9 42.4885 68.691 43.2794 69.6667 43.2794Z" fill="white"/>
<path id="Vector_190" d="M69.6667 50.3468C70.6424 50.3468 71.4334 49.5558 71.4334 48.5801C71.4334 47.6044 70.6424 46.8135 69.6667 46.8135C68.691 46.8135 67.9 47.6044 67.9 48.5801C67.9 49.5558 68.691 50.3468 69.6667 50.3468Z" fill="white"/>
<path id="Vector_191" d="M69.6667 53.88C70.6424 53.88 71.4334 53.089 71.4334 52.1133C71.4334 51.1376 70.6424 50.3467 69.6667 50.3467C68.691 50.3467 67.9 51.1376 67.9 52.1133C67.9 53.089 68.691 53.88 69.6667 53.88Z" fill="white"/>
<path id="Vector_192" d="M69.6667 57.4132C70.6424 57.4132 71.4334 56.6223 71.4334 55.6465C71.4334 54.6708 70.6424 53.8799 69.6667 53.8799C68.691 53.8799 67.9 54.6708 67.9 55.6465C67.9 56.6223 68.691 57.4132 69.6667 57.4132Z" fill="white"/>
<path id="Vector_193" d="M69.6667 60.9464C70.6424 60.9464 71.4334 60.1555 71.4334 59.1798C71.4334 58.204 70.6424 57.4131 69.6667 57.4131C68.691 57.4131 67.9 58.204 67.9 59.1798C67.9 60.1555 68.691 60.9464 69.6667 60.9464Z" fill="white"/>
<path id="Vector_194" d="M69.6667 68.0128C70.6424 68.0128 71.4334 67.2219 71.4334 66.2462C71.4334 65.2705 70.6424 64.4795 69.6667 64.4795C68.691 64.4795 67.9 65.2705 67.9 66.2462C67.9 67.2219 68.691 68.0128 69.6667 68.0128Z" fill="white"/>
<path id="Vector_195" d="M69.6667 71.547C70.6424 71.547 71.4334 70.756 71.4334 69.7803C71.4334 68.8046 70.6424 68.0137 69.6667 68.0137C68.691 68.0137 67.9 68.8046 67.9 69.7803C67.9 70.756 68.691 71.547 69.6667 71.547Z" fill="white"/>
<path id="Vector_196" d="M69.6667 75.0802C70.6424 75.0802 71.4334 74.2892 71.4334 73.3135C71.4334 72.3378 70.6424 71.5469 69.6667 71.5469C68.691 71.5469 67.9 72.3378 67.9 73.3135C67.9 74.2892 68.691 75.0802 69.6667 75.0802Z" fill="white"/>
<path id="Vector_197" d="M69.6667 78.6134C70.6424 78.6134 71.4334 77.8224 71.4334 76.8467C71.4334 75.871 70.6424 75.0801 69.6667 75.0801C68.691 75.0801 67.9 75.871 67.9 76.8467C67.9 77.8224 68.691 78.6134 69.6667 78.6134Z" fill="white"/>
<path id="Vector_198" d="M69.6667 82.1466C70.6424 82.1466 71.4334 81.3557 71.4334 80.3799C71.4334 79.4042 70.6424 78.6133 69.6667 78.6133C68.691 78.6133 67.9 79.4042 67.9 80.3799C67.9 81.3557 68.691 82.1466 69.6667 82.1466Z" fill="white"/>
<path id="Vector_199" d="M69.6667 85.6798C70.6424 85.6798 71.4334 84.8889 71.4334 83.9132C71.4334 82.9374 70.6424 82.1465 69.6667 82.1465C68.691 82.1465 67.9 82.9374 67.9 83.9132C67.9 84.8889 68.691 85.6798 69.6667 85.6798Z" fill="white"/>
<path id="Vector_200" d="M69.6667 89.213C70.6424 89.213 71.4334 88.4221 71.4334 87.4464C71.4334 86.4707 70.6424 85.6797 69.6667 85.6797C68.691 85.6797 67.9 86.4707 67.9 87.4464C67.9 88.4221 68.691 89.213 69.6667 89.213Z" fill="white"/>
<path id="Vector_201" d="M69.6667 92.7462C70.6424 92.7462 71.4334 91.9553 71.4334 90.9796C71.4334 90.0039 70.6424 89.2129 69.6667 89.2129C68.691 89.2129 67.9 90.0039 67.9 90.9796C67.9 91.9553 68.691 92.7462 69.6667 92.7462Z" fill="white"/>
<path id="Vector_202" d="M69.6667 99.8136C70.6424 99.8136 71.4334 99.0226 71.4334 98.0469C71.4334 97.0712 70.6424 96.2803 69.6667 96.2803C68.691 96.2803 67.9 97.0712 67.9 98.0469C67.9 99.0226 68.691 99.8136 69.6667 99.8136Z" fill="white"/>
<path id="Vector_203" d="M73.2 4.41322C74.1757 4.41322 74.9667 3.62225 74.9667 2.64655C74.9667 1.67085 74.1757 0.879883 73.2 0.879883C72.2243 0.879883 71.4333 1.67085 71.4333 2.64655C71.4333 3.62225 72.2243 4.41322 73.2 4.41322Z" fill="white"/>
<path id="Vector_204" d="M73.2 7.94642C74.1757 7.94642 74.9667 7.15546 74.9667 6.17975C74.9667 5.20405 74.1757 4.41309 73.2 4.41309C72.2243 4.41309 71.4333 5.20405 71.4333 6.17975C71.4333 7.15546 72.2243 7.94642 73.2 7.94642Z" fill="white"/>
<path id="Vector_205" d="M73.2 18.547C74.1757 18.547 74.9667 17.756 74.9667 16.7803C74.9667 15.8046 74.1757 15.0137 73.2 15.0137C72.2243 15.0137 71.4333 15.8046 71.4333 16.7803C71.4333 17.756 72.2243 18.547 73.2 18.547Z" fill="white"/>
<path id="Vector_206" d="M73.2 25.6134C74.1757 25.6134 74.9667 24.8224 74.9667 23.8467C74.9667 22.871 74.1757 22.0801 73.2 22.0801C72.2243 22.0801 71.4333 22.871 71.4333 23.8467C71.4333 24.8224 72.2243 25.6134 73.2 25.6134Z" fill="white"/>
<path id="Vector_207" d="M73.2 32.6798C74.1757 32.6798 74.9667 31.8889 74.9667 30.9132C74.9667 29.9374 74.1757 29.1465 73.2 29.1465C72.2243 29.1465 71.4333 29.9374 71.4333 30.9132C71.4333 31.8889 72.2243 32.6798 73.2 32.6798Z" fill="white"/>
<path id="Vector_208" d="M73.2 46.8136C74.1757 46.8136 74.9667 46.0226 74.9667 45.0469C74.9667 44.0712 74.1757 43.2803 73.2 43.2803C72.2243 43.2803 71.4333 44.0712 71.4333 45.0469C71.4333 46.0226 72.2243 46.8136 73.2 46.8136Z" fill="white"/>
<path id="Vector_209" d="M73.2 50.3468C74.1757 50.3468 74.9667 49.5558 74.9667 48.5801C74.9667 47.6044 74.1757 46.8135 73.2 46.8135C72.2243 46.8135 71.4333 47.6044 71.4333 48.5801C71.4333 49.5558 72.2243 50.3468 73.2 50.3468Z" fill="white"/>
<path id="Vector_210" d="M73.2 53.88C74.1757 53.88 74.9667 53.089 74.9667 52.1133C74.9667 51.1376 74.1757 50.3467 73.2 50.3467C72.2243 50.3467 71.4333 51.1376 71.4333 52.1133C71.4333 53.089 72.2243 53.88 73.2 53.88Z" fill="white"/>
<path id="Vector_211" d="M73.2 68.0128C74.1757 68.0128 74.9667 67.2219 74.9667 66.2462C74.9667 65.2705 74.1757 64.4795 73.2 64.4795C72.2243 64.4795 71.4333 65.2705 71.4333 66.2462C71.4333 67.2219 72.2243 68.0128 73.2 68.0128Z" fill="white"/>
<path id="Vector_212" d="M73.2 71.547C74.1757 71.547 74.9667 70.756 74.9667 69.7803C74.9667 68.8046 74.1757 68.0137 73.2 68.0137C72.2243 68.0137 71.4333 68.8046 71.4333 69.7803C71.4333 70.756 72.2243 71.547 73.2 71.547Z" fill="white"/>
<path id="Vector_213" d="M73.2 75.0802C74.1757 75.0802 74.9667 74.2892 74.9667 73.3135C74.9667 72.3378 74.1757 71.5469 73.2 71.5469C72.2243 71.5469 71.4333 72.3378 71.4333 73.3135C71.4333 74.2892 72.2243 75.0802 73.2 75.0802Z" fill="white"/>
<path id="Vector_214" d="M73.2 78.6134C74.1757 78.6134 74.9667 77.8224 74.9667 76.8467C74.9667 75.871 74.1757 75.0801 73.2 75.0801C72.2243 75.0801 71.4333 75.871 71.4333 76.8467C71.4333 77.8224 72.2243 78.6134 73.2 78.6134Z" fill="white"/>
<path id="Vector_215" d="M73.2 82.1466C74.1757 82.1466 74.9667 81.3557 74.9667 80.3799C74.9667 79.4042 74.1757 78.6133 73.2 78.6133C72.2243 78.6133 71.4333 79.4042 71.4333 80.3799C71.4333 81.3557 72.2243 82.1466 73.2 82.1466Z" fill="white"/>
<path id="Vector_216" d="M73.2 85.6798C74.1757 85.6798 74.9667 84.8889 74.9667 83.9132C74.9667 82.9374 74.1757 82.1465 73.2 82.1465C72.2243 82.1465 71.4333 82.9374 71.4333 83.9132C71.4333 84.8889 72.2243 85.6798 73.2 85.6798Z" fill="white"/>
<path id="Vector_217" d="M73.2 89.213C74.1757 89.213 74.9667 88.4221 74.9667 87.4464C74.9667 86.4707 74.1757 85.6797 73.2 85.6797C72.2243 85.6797 71.4333 86.4707 71.4333 87.4464C71.4333 88.4221 72.2243 89.213 73.2 89.213Z" fill="white"/>
<path id="Vector_218" d="M73.2 92.7462C74.1757 92.7462 74.9667 91.9553 74.9667 90.9796C74.9667 90.0039 74.1757 89.2129 73.2 89.2129C72.2243 89.2129 71.4333 90.0039 71.4333 90.9796C71.4333 91.9553 72.2243 92.7462 73.2 92.7462Z" fill="white"/>
<path id="Vector_219" d="M76.7333 32.6798C77.709 32.6798 78.5 31.8889 78.5 30.9132C78.5 29.9374 77.709 29.1465 76.7333 29.1465C75.7576 29.1465 74.9667 29.9374 74.9667 30.9132C74.9667 31.8889 75.7576 32.6798 76.7333 32.6798Z" fill="white"/>
<path id="Vector_220" d="M76.7333 39.7462C77.709 39.7462 78.5 38.9553 78.5 37.9796C78.5 37.0039 77.709 36.2129 76.7333 36.2129C75.7576 36.2129 74.9667 37.0039 74.9667 37.9796C74.9667 38.9553 75.7576 39.7462 76.7333 39.7462Z" fill="white"/>
<path id="Vector_221" d="M76.7333 46.8136C77.709 46.8136 78.5 46.0226 78.5 45.0469C78.5 44.0712 77.709 43.2803 76.7333 43.2803C75.7576 43.2803 74.9667 44.0712 74.9667 45.0469C74.9667 46.0226 75.7576 46.8136 76.7333 46.8136Z" fill="white"/>
<path id="Vector_222" d="M76.7333 53.88C77.709 53.88 78.5 53.089 78.5 52.1133C78.5 51.1376 77.709 50.3467 76.7333 50.3467C75.7576 50.3467 74.9667 51.1376 74.9667 52.1133C74.9667 53.089 75.7576 53.88 76.7333 53.88Z" fill="white"/>
<path id="Vector_223" d="M76.7333 57.4132C77.709 57.4132 78.5 56.6223 78.5 55.6465C78.5 54.6708 77.709 53.8799 76.7333 53.8799C75.7576 53.8799 74.9667 54.6708 74.9667 55.6465C74.9667 56.6223 75.7576 57.4132 76.7333 57.4132Z" fill="white"/>
<path id="Vector_224" d="M76.7333 60.9464C77.709 60.9464 78.5 60.1555 78.5 59.1798C78.5 58.204 77.709 57.4131 76.7333 57.4131C75.7576 57.4131 74.9667 58.204 74.9667 59.1798C74.9667 60.1555 75.7576 60.9464 76.7333 60.9464Z" fill="white"/>
<path id="Vector_225" d="M76.7333 64.4796C77.709 64.4796 78.5 63.6887 78.5 62.713C78.5 61.7373 77.709 60.9463 76.7333 60.9463C75.7576 60.9463 74.9667 61.7373 74.9667 62.713C74.9667 63.6887 75.7576 64.4796 76.7333 64.4796Z" fill="white"/>
<path id="Vector_226" d="M76.7333 71.547C77.709 71.547 78.5 70.756 78.5 69.7803C78.5 68.8046 77.709 68.0137 76.7333 68.0137C75.7576 68.0137 74.9667 68.8046 74.9667 69.7803C74.9667 70.756 75.7576 71.547 76.7333 71.547Z" fill="white"/>
<path id="Vector_227" d="M76.7333 75.0802C77.709 75.0802 78.5 74.2892 78.5 73.3135C78.5 72.3378 77.709 71.5469 76.7333 71.5469C75.7576 71.5469 74.9667 72.3378 74.9667 73.3135C74.9667 74.2892 75.7576 75.0802 76.7333 75.0802Z" fill="white"/>
<path id="Vector_228" d="M76.7333 89.213C77.709 89.213 78.5 88.4221 78.5 87.4464C78.5 86.4707 77.709 85.6797 76.7333 85.6797C75.7576 85.6797 74.9667 86.4707 74.9667 87.4464C74.9667 88.4221 75.7576 89.213 76.7333 89.213Z" fill="white"/>
<path id="Vector_229" d="M76.7333 92.7462C77.709 92.7462 78.5 91.9553 78.5 90.9796C78.5 90.0039 77.709 89.2129 76.7333 89.2129C75.7576 89.2129 74.9667 90.0039 74.9667 90.9796C74.9667 91.9553 75.7576 92.7462 76.7333 92.7462Z" fill="white"/>
<path id="Vector_230" d="M76.7333 103.347C77.709 103.347 78.5 102.556 78.5 101.58C78.5 100.604 77.709 99.8135 76.7333 99.8135C75.7576 99.8135 74.9667 100.604 74.9667 101.58C74.9667 102.556 75.7576 103.347 76.7333 103.347Z" fill="white"/>
<path id="Vector_231" d="M80.2667 36.213C81.2424 36.213 82.0333 35.4221 82.0333 34.4464C82.0333 33.4707 81.2424 32.6797 80.2667 32.6797C79.291 32.6797 78.5 33.4707 78.5 34.4464C78.5 35.4221 79.291 36.213 80.2667 36.213Z" fill="white"/>
<path id="Vector_232" d="M80.2667 46.8136C81.2424 46.8136 82.0333 46.0226 82.0333 45.0469C82.0333 44.0712 81.2424 43.2803 80.2667 43.2803C79.291 43.2803 78.5 44.0712 78.5 45.0469C78.5 46.0226 79.291 46.8136 80.2667 46.8136Z" fill="white"/>
<path id="Vector_233" d="M80.2667 53.88C81.2424 53.88 82.0333 53.089 82.0333 52.1133C82.0333 51.1376 81.2424 50.3467 80.2667 50.3467C79.291 50.3467 78.5 51.1376 78.5 52.1133C78.5 53.089 79.291 53.88 80.2667 53.88Z" fill="white"/>
<path id="Vector_234" d="M80.2667 57.4132C81.2424 57.4132 82.0333 56.6223 82.0333 55.6465C82.0333 54.6708 81.2424 53.8799 80.2667 53.8799C79.291 53.8799 78.5 54.6708 78.5 55.6465C78.5 56.6223 79.291 57.4132 80.2667 57.4132Z" fill="white"/>
<path id="Vector_235" d="M80.2667 75.0802C81.2424 75.0802 82.0333 74.2892 82.0333 73.3135C82.0333 72.3378 81.2424 71.5469 80.2667 71.5469C79.291 71.5469 78.5 72.3378 78.5 73.3135C78.5 74.2892 79.291 75.0802 80.2667 75.0802Z" fill="white"/>
<path id="Vector_236" d="M80.2667 82.1466C81.2424 82.1466 82.0333 81.3557 82.0333 80.3799C82.0333 79.4042 81.2424 78.6133 80.2667 78.6133C79.291 78.6133 78.5 79.4042 78.5 80.3799C78.5 81.3557 79.291 82.1466 80.2667 82.1466Z" fill="white"/>
<path id="Vector_237" d="M80.2667 89.213C81.2424 89.213 82.0333 88.4221 82.0333 87.4464C82.0333 86.4707 81.2424 85.6797 80.2667 85.6797C79.291 85.6797 78.5 86.4707 78.5 87.4464C78.5 88.4221 79.291 89.213 80.2667 89.213Z" fill="white"/>
<path id="Vector_238" d="M80.2667 92.7462C81.2424 92.7462 82.0333 91.9553 82.0333 90.9796C82.0333 90.0039 81.2424 89.2129 80.2667 89.2129C79.291 89.2129 78.5 90.0039 78.5 90.9796C78.5 91.9553 79.291 92.7462 80.2667 92.7462Z" fill="white"/>
<path id="Vector_239" d="M80.2667 96.2794C81.2424 96.2794 82.0333 95.4885 82.0333 94.5128C82.0333 93.5371 81.2424 92.7461 80.2667 92.7461C79.291 92.7461 78.5 93.5371 78.5 94.5128C78.5 95.4885 79.291 96.2794 80.2667 96.2794Z" fill="white"/>
<path id="Vector_240" d="M80.2667 99.8136C81.2424 99.8136 82.0333 99.0226 82.0333 98.0469C82.0333 97.0712 81.2424 96.2803 80.2667 96.2803C79.291 96.2803 78.5 97.0712 78.5 98.0469C78.5 99.0226 79.291 99.8136 80.2667 99.8136Z" fill="white"/>
<path id="Vector_241" d="M80.2667 103.347C81.2424 103.347 82.0333 102.556 82.0333 101.58C82.0333 100.604 81.2424 99.8135 80.2667 99.8135C79.291 99.8135 78.5 100.604 78.5 101.58C78.5 102.556 79.291 103.347 80.2667 103.347Z" fill="white"/>
<path id="Vector_242" d="M83.8001 36.213C84.7758 36.213 85.5668 35.4221 85.5668 34.4464C85.5668 33.4707 84.7758 32.6797 83.8001 32.6797C82.8244 32.6797 82.0334 33.4707 82.0334 34.4464C82.0334 35.4221 82.8244 36.213 83.8001 36.213Z" fill="white"/>
<path id="Vector_243" d="M83.8001 43.2794C84.7758 43.2794 85.5668 42.4885 85.5668 41.5128C85.5668 40.5371 84.7758 39.7461 83.8001 39.7461C82.8244 39.7461 82.0334 40.5371 82.0334 41.5128C82.0334 42.4885 82.8244 43.2794 83.8001 43.2794Z" fill="white"/>
<path id="Vector_244" d="M83.8001 46.8136C84.7758 46.8136 85.5668 46.0226 85.5668 45.0469C85.5668 44.0712 84.7758 43.2803 83.8001 43.2803C82.8244 43.2803 82.0334 44.0712 82.0334 45.0469C82.0334 46.0226 82.8244 46.8136 83.8001 46.8136Z" fill="white"/>
<path id="Vector_245" d="M83.8001 50.3468C84.7758 50.3468 85.5668 49.5558 85.5668 48.5801C85.5668 47.6044 84.7758 46.8135 83.8001 46.8135C82.8244 46.8135 82.0334 47.6044 82.0334 48.5801C82.0334 49.5558 82.8244 50.3468 83.8001 50.3468Z" fill="white"/>
<path id="Vector_246" d="M83.8001 53.88C84.7758 53.88 85.5668 53.089 85.5668 52.1133C85.5668 51.1376 84.7758 50.3467 83.8001 50.3467C82.8244 50.3467 82.0334 51.1376 82.0334 52.1133C82.0334 53.089 82.8244 53.88 83.8001 53.88Z" fill="white"/>
<path id="Vector_247" d="M83.8001 64.4796C84.7758 64.4796 85.5668 63.6887 85.5668 62.713C85.5668 61.7373 84.7758 60.9463 83.8001 60.9463C82.8244 60.9463 82.0334 61.7373 82.0334 62.713C82.0334 63.6887 82.8244 64.4796 83.8001 64.4796Z" fill="white"/>
<path id="Vector_248" d="M83.8001 71.547C84.7758 71.547 85.5668 70.756 85.5668 69.7803C85.5668 68.8046 84.7758 68.0137 83.8001 68.0137C82.8244 68.0137 82.0334 68.8046 82.0334 69.7803C82.0334 70.756 82.8244 71.547 83.8001 71.547Z" fill="white"/>
<path id="Vector_249" d="M83.8001 75.0802C84.7758 75.0802 85.5668 74.2892 85.5668 73.3135C85.5668 72.3378 84.7758 71.5469 83.8001 71.5469C82.8244 71.5469 82.0334 72.3378 82.0334 73.3135C82.0334 74.2892 82.8244 75.0802 83.8001 75.0802Z" fill="white"/>
<path id="Vector_250" d="M83.8001 89.213C84.7758 89.213 85.5668 88.4221 85.5668 87.4464C85.5668 86.4707 84.7758 85.6797 83.8001 85.6797C82.8244 85.6797 82.0334 86.4707 82.0334 87.4464C82.0334 88.4221 82.8244 89.213 83.8001 89.213Z" fill="white"/>
<path id="Vector_251" d="M83.8001 92.7462C84.7758 92.7462 85.5668 91.9553 85.5668 90.9796C85.5668 90.0039 84.7758 89.2129 83.8001 89.2129C82.8244 89.2129 82.0334 90.0039 82.0334 90.9796C82.0334 91.9553 82.8244 92.7462 83.8001 92.7462Z" fill="white"/>
<path id="Vector_252" d="M83.8001 103.347C84.7758 103.347 85.5668 102.556 85.5668 101.58C85.5668 100.604 84.7758 99.8135 83.8001 99.8135C82.8244 99.8135 82.0334 100.604 82.0334 101.58C82.0334 102.556 82.8244 103.347 83.8001 103.347Z" fill="white"/>
<path id="Vector_253" d="M87.3334 36.213C88.3091 36.213 89.1001 35.4221 89.1001 34.4464C89.1001 33.4707 88.3091 32.6797 87.3334 32.6797C86.3577 32.6797 85.5668 33.4707 85.5668 34.4464C85.5668 35.4221 86.3577 36.213 87.3334 36.213Z" fill="white"/>
<path id="Vector_254" d="M87.3334 39.7462C88.3091 39.7462 89.1001 38.9553 89.1001 37.9796C89.1001 37.0039 88.3091 36.2129 87.3334 36.2129C86.3577 36.2129 85.5668 37.0039 85.5668 37.9796C85.5668 38.9553 86.3577 39.7462 87.3334 39.7462Z" fill="white"/>
<path id="Vector_255" d="M87.3334 46.8136C88.3091 46.8136 89.1001 46.0226 89.1001 45.0469C89.1001 44.0712 88.3091 43.2803 87.3334 43.2803C86.3577 43.2803 85.5668 44.0712 85.5668 45.0469C85.5668 46.0226 86.3577 46.8136 87.3334 46.8136Z" fill="white"/>
<path id="Vector_256" d="M87.3334 50.3468C88.3091 50.3468 89.1001 49.5558 89.1001 48.5801C89.1001 47.6044 88.3091 46.8135 87.3334 46.8135C86.3577 46.8135 85.5668 47.6044 85.5668 48.5801C85.5668 49.5558 86.3577 50.3468 87.3334 50.3468Z" fill="white"/>
<path id="Vector_257" d="M87.3334 57.4132C88.3091 57.4132 89.1001 56.6223 89.1001 55.6465C89.1001 54.6708 88.3091 53.8799 87.3334 53.8799C86.3577 53.8799 85.5668 54.6708 85.5668 55.6465C85.5668 56.6223 86.3577 57.4132 87.3334 57.4132Z" fill="white"/>
<path id="Vector_258" d="M87.3334 64.4796C88.3091 64.4796 89.1001 63.6887 89.1001 62.713C89.1001 61.7373 88.3091 60.9463 87.3334 60.9463C86.3577 60.9463 85.5668 61.7373 85.5668 62.713C85.5668 63.6887 86.3577 64.4796 87.3334 64.4796Z" fill="white"/>
<path id="Vector_259" d="M87.3334 71.547C88.3091 71.547 89.1001 70.756 89.1001 69.7803C89.1001 68.8046 88.3091 68.0137 87.3334 68.0137C86.3577 68.0137 85.5668 68.8046 85.5668 69.7803C85.5668 70.756 86.3577 71.547 87.3334 71.547Z" fill="white"/>
<path id="Vector_260" d="M87.3334 75.0802C88.3091 75.0802 89.1001 74.2892 89.1001 73.3135C89.1001 72.3378 88.3091 71.5469 87.3334 71.5469C86.3577 71.5469 85.5668 72.3378 85.5668 73.3135C85.5668 74.2892 86.3577 75.0802 87.3334 75.0802Z" fill="white"/>
<path id="Vector_261" d="M87.3334 78.6134C88.3091 78.6134 89.1001 77.8224 89.1001 76.8467C89.1001 75.871 88.3091 75.0801 87.3334 75.0801C86.3577 75.0801 85.5668 75.871 85.5668 76.8467C85.5668 77.8224 86.3577 78.6134 87.3334 78.6134Z" fill="white"/>
<path id="Vector_262" d="M87.3334 82.1466C88.3091 82.1466 89.1001 81.3557 89.1001 80.3799C89.1001 79.4042 88.3091 78.6133 87.3334 78.6133C86.3577 78.6133 85.5668 79.4042 85.5668 80.3799C85.5668 81.3557 86.3577 82.1466 87.3334 82.1466Z" fill="white"/>
<path id="Vector_263" d="M87.3334 85.6798C88.3091 85.6798 89.1001 84.8889 89.1001 83.9132C89.1001 82.9374 88.3091 82.1465 87.3334 82.1465C86.3577 82.1465 85.5668 82.9374 85.5668 83.9132C85.5668 84.8889 86.3577 85.6798 87.3334 85.6798Z" fill="white"/>
<path id="Vector_264" d="M87.3334 89.213C88.3091 89.213 89.1001 88.4221 89.1001 87.4464C89.1001 86.4707 88.3091 85.6797 87.3334 85.6797C86.3577 85.6797 85.5668 86.4707 85.5668 87.4464C85.5668 88.4221 86.3577 89.213 87.3334 89.213Z" fill="white"/>
<path id="Vector_265" d="M87.3334 99.8136C88.3091 99.8136 89.1001 99.0226 89.1001 98.0469C89.1001 97.0712 88.3091 96.2803 87.3334 96.2803C86.3577 96.2803 85.5668 97.0712 85.5668 98.0469C85.5668 99.0226 86.3577 99.8136 87.3334 99.8136Z" fill="white"/>
<path id="Vector_266" d="M87.3334 103.347C88.3091 103.347 89.1001 102.556 89.1001 101.58C89.1001 100.604 88.3091 99.8135 87.3334 99.8135C86.3577 99.8135 85.5668 100.604 85.5668 101.58C85.5668 102.556 86.3577 103.347 87.3334 103.347Z" fill="white"/>
<path id="Vector_267" d="M90.8668 36.213C91.8425 36.213 92.6334 35.4221 92.6334 34.4464C92.6334 33.4707 91.8425 32.6797 90.8668 32.6797C89.8911 32.6797 89.1001 33.4707 89.1001 34.4464C89.1001 35.4221 89.8911 36.213 90.8668 36.213Z" fill="white"/>
<path id="Vector_268" d="M90.8668 39.7462C91.8425 39.7462 92.6334 38.9553 92.6334 37.9796C92.6334 37.0039 91.8425 36.2129 90.8668 36.2129C89.8911 36.2129 89.1001 37.0039 89.1001 37.9796C89.1001 38.9553 89.8911 39.7462 90.8668 39.7462Z" fill="white"/>
<path id="Vector_269" d="M90.8668 50.3468C91.8425 50.3468 92.6334 49.5558 92.6334 48.5801C92.6334 47.6044 91.8425 46.8135 90.8668 46.8135C89.8911 46.8135 89.1001 47.6044 89.1001 48.5801C89.1001 49.5558 89.8911 50.3468 90.8668 50.3468Z" fill="white"/>
<path id="Vector_270" d="M90.8668 53.88C91.8425 53.88 92.6334 53.089 92.6334 52.1133C92.6334 51.1376 91.8425 50.3467 90.8668 50.3467C89.8911 50.3467 89.1001 51.1376 89.1001 52.1133C89.1001 53.089 89.8911 53.88 90.8668 53.88Z" fill="white"/>
<path id="Vector_271" d="M90.8668 64.4796C91.8425 64.4796 92.6334 63.6887 92.6334 62.713C92.6334 61.7373 91.8425 60.9463 90.8668 60.9463C89.8911 60.9463 89.1001 61.7373 89.1001 62.713C89.1001 63.6887 89.8911 64.4796 90.8668 64.4796Z" fill="white"/>
<path id="Vector_272" d="M90.8668 71.547C91.8425 71.547 92.6334 70.756 92.6334 69.7803C92.6334 68.8046 91.8425 68.0137 90.8668 68.0137C89.8911 68.0137 89.1001 68.8046 89.1001 69.7803C89.1001 70.756 89.8911 71.547 90.8668 71.547Z" fill="white"/>
<path id="Vector_273" d="M90.8668 75.0802C91.8425 75.0802 92.6334 74.2892 92.6334 73.3135C92.6334 72.3378 91.8425 71.5469 90.8668 71.5469C89.8911 71.5469 89.1001 72.3378 89.1001 73.3135C89.1001 74.2892 89.8911 75.0802 90.8668 75.0802Z" fill="white"/>
<path id="Vector_274" d="M90.8668 85.6798C91.8425 85.6798 92.6334 84.8889 92.6334 83.9132C92.6334 82.9374 91.8425 82.1465 90.8668 82.1465C89.8911 82.1465 89.1001 82.9374 89.1001 83.9132C89.1001 84.8889 89.8911 85.6798 90.8668 85.6798Z" fill="white"/>
<path id="Vector_275" d="M90.8668 89.213C91.8425 89.213 92.6334 88.4221 92.6334 87.4464C92.6334 86.4707 91.8425 85.6797 90.8668 85.6797C89.8911 85.6797 89.1001 86.4707 89.1001 87.4464C89.1001 88.4221 89.8911 89.213 90.8668 89.213Z" fill="white"/>
<path id="Vector_276" d="M90.8668 92.7462C91.8425 92.7462 92.6334 91.9553 92.6334 90.9796C92.6334 90.0039 91.8425 89.2129 90.8668 89.2129C89.8911 89.2129 89.1001 90.0039 89.1001 90.9796C89.1001 91.9553 89.8911 92.7462 90.8668 92.7462Z" fill="white"/>
<path id="Vector_277" d="M90.8668 96.2794C91.8425 96.2794 92.6334 95.4885 92.6334 94.5128C92.6334 93.5371 91.8425 92.7461 90.8668 92.7461C89.8911 92.7461 89.1001 93.5371 89.1001 94.5128C89.1001 95.4885 89.8911 96.2794 90.8668 96.2794Z" fill="white"/>
<path id="Vector_278" d="M90.8668 99.8136C91.8425 99.8136 92.6334 99.0226 92.6334 98.0469C92.6334 97.0712 91.8425 96.2803 90.8668 96.2803C89.8911 96.2803 89.1001 97.0712 89.1001 98.0469C89.1001 99.0226 89.8911 99.8136 90.8668 99.8136Z" fill="white"/>
<path id="Vector_279" d="M94.4001 32.6798C95.3758 32.6798 96.1668 31.8889 96.1668 30.9132C96.1668 29.9374 95.3758 29.1465 94.4001 29.1465C93.4244 29.1465 92.6334 29.9374 92.6334 30.9132C92.6334 31.8889 93.4244 32.6798 94.4001 32.6798Z" fill="white"/>
<path id="Vector_280" d="M94.4001 36.213C95.3758 36.213 96.1668 35.4221 96.1668 34.4464C96.1668 33.4707 95.3758 32.6797 94.4001 32.6797C93.4244 32.6797 92.6334 33.4707 92.6334 34.4464C92.6334 35.4221 93.4244 36.213 94.4001 36.213Z" fill="white"/>
<path id="Vector_281" d="M94.4001 46.8136C95.3758 46.8136 96.1668 46.0226 96.1668 45.0469C96.1668 44.0712 95.3758 43.2803 94.4001 43.2803C93.4244 43.2803 92.6334 44.0712 92.6334 45.0469C92.6334 46.0226 93.4244 46.8136 94.4001 46.8136Z" fill="white"/>
<path id="Vector_282" d="M94.4001 53.88C95.3758 53.88 96.1668 53.089 96.1668 52.1133C96.1668 51.1376 95.3758 50.3467 94.4001 50.3467C93.4244 50.3467 92.6334 51.1376 92.6334 52.1133C92.6334 53.089 93.4244 53.88 94.4001 53.88Z" fill="white"/>
<path id="Vector_283" d="M94.4001 57.4132C95.3758 57.4132 96.1668 56.6223 96.1668 55.6465C96.1668 54.6708 95.3758 53.8799 94.4001 53.8799C93.4244 53.8799 92.6334 54.6708 92.6334 55.6465C92.6334 56.6223 93.4244 57.4132 94.4001 57.4132Z" fill="white"/>
<path id="Vector_284" d="M94.4001 64.4796C95.3758 64.4796 96.1668 63.6887 96.1668 62.713C96.1668 61.7373 95.3758 60.9463 94.4001 60.9463C93.4244 60.9463 92.6334 61.7373 92.6334 62.713C92.6334 63.6887 93.4244 64.4796 94.4001 64.4796Z" fill="white"/>
<path id="Vector_285" d="M94.4001 78.6134C95.3758 78.6134 96.1668 77.8224 96.1668 76.8467C96.1668 75.871 95.3758 75.0801 94.4001 75.0801C93.4244 75.0801 92.6334 75.871 92.6334 76.8467C92.6334 77.8224 93.4244 78.6134 94.4001 78.6134Z" fill="white"/>
<path id="Vector_286" d="M94.4001 89.213C95.3758 89.213 96.1668 88.4221 96.1668 87.4464C96.1668 86.4707 95.3758 85.6797 94.4001 85.6797C93.4244 85.6797 92.6334 86.4707 92.6334 87.4464C92.6334 88.4221 93.4244 89.213 94.4001 89.213Z" fill="white"/>
<path id="Vector_287" d="M94.4001 96.2794C95.3758 96.2794 96.1668 95.4885 96.1668 94.5128C96.1668 93.5371 95.3758 92.7461 94.4001 92.7461C93.4244 92.7461 92.6334 93.5371 92.6334 94.5128C92.6334 95.4885 93.4244 96.2794 94.4001 96.2794Z" fill="white"/>
<path id="Vector_288" d="M94.4001 99.8136C95.3758 99.8136 96.1668 99.0226 96.1668 98.0469C96.1668 97.0712 95.3758 96.2803 94.4001 96.2803C93.4244 96.2803 92.6334 97.0712 92.6334 98.0469C92.6334 99.0226 93.4244 99.8136 94.4001 99.8136Z" fill="white"/>
<path id="Vector_289" d="M94.4001 103.347C95.3758 103.347 96.1668 102.556 96.1668 101.58C96.1668 100.604 95.3758 99.8135 94.4001 99.8135C93.4244 99.8135 92.6334 100.604 92.6334 101.58C92.6334 102.556 93.4244 103.347 94.4001 103.347Z" fill="white"/>
<path id="Vector_290" d="M97.9334 32.6798C98.9091 32.6798 99.7001 31.8889 99.7001 30.9132C99.7001 29.9374 98.9091 29.1465 97.9334 29.1465C96.9577 29.1465 96.1667 29.9374 96.1667 30.9132C96.1667 31.8889 96.9577 32.6798 97.9334 32.6798Z" fill="white"/>
<path id="Vector_291" d="M97.9334 36.213C98.9091 36.213 99.7001 35.4221 99.7001 34.4464C99.7001 33.4707 98.9091 32.6797 97.9334 32.6797C96.9577 32.6797 96.1667 33.4707 96.1667 34.4464C96.1667 35.4221 96.9577 36.213 97.9334 36.213Z" fill="white"/>
<path id="Vector_292" d="M97.9334 39.7462C98.9091 39.7462 99.7001 38.9553 99.7001 37.9796C99.7001 37.0039 98.9091 36.2129 97.9334 36.2129C96.9577 36.2129 96.1667 37.0039 96.1667 37.9796C96.1667 38.9553 96.9577 39.7462 97.9334 39.7462Z" fill="white"/>
<path id="Vector_293" d="M97.9334 43.2794C98.9091 43.2794 99.7001 42.4885 99.7001 41.5128C99.7001 40.5371 98.9091 39.7461 97.9334 39.7461C96.9577 39.7461 96.1667 40.5371 96.1667 41.5128C96.1667 42.4885 96.9577 43.2794 97.9334 43.2794Z" fill="white"/>
<path id="Vector_294" d="M97.9334 53.88C98.9091 53.88 99.7001 53.089 99.7001 52.1133C99.7001 51.1376 98.9091 50.3467 97.9334 50.3467C96.9577 50.3467 96.1667 51.1376 96.1667 52.1133C96.1667 53.089 96.9577 53.88 97.9334 53.88Z" fill="white"/>
<path id="Vector_295" d="M97.9334 68.0128C98.9091 68.0128 99.7001 67.2219 99.7001 66.2462C99.7001 65.2705 98.9091 64.4795 97.9334 64.4795C96.9577 64.4795 96.1667 65.2705 96.1667 66.2462C96.1667 67.2219 96.9577 68.0128 97.9334 68.0128Z" fill="white"/>
<path id="Vector_296" d="M97.9334 71.547C98.9091 71.547 99.7001 70.756 99.7001 69.7803C99.7001 68.8046 98.9091 68.0137 97.9334 68.0137C96.9577 68.0137 96.1667 68.8046 96.1667 69.7803C96.1667 70.756 96.9577 71.547 97.9334 71.547Z" fill="white"/>
<path id="Vector_297" d="M97.9334 78.6134C98.9091 78.6134 99.7001 77.8224 99.7001 76.8467C99.7001 75.871 98.9091 75.0801 97.9334 75.0801C96.9577 75.0801 96.1667 75.871 96.1667 76.8467C96.1667 77.8224 96.9577 78.6134 97.9334 78.6134Z" fill="white"/>
<path id="Vector_298" d="M101.467 36.213C102.442 36.213 103.233 35.4221 103.233 34.4464C103.233 33.4707 102.442 32.6797 101.467 32.6797C100.491 32.6797 99.7001 33.4707 99.7001 34.4464C99.7001 35.4221 100.491 36.213 101.467 36.213Z" fill="white"/>
<path id="Vector_299" d="M101.467 50.3468C102.442 50.3468 103.233 49.5558 103.233 48.5801C103.233 47.6044 102.442 46.8135 101.467 46.8135C100.491 46.8135 99.7001 47.6044 99.7001 48.5801C99.7001 49.5558 100.491 50.3468 101.467 50.3468Z" fill="white"/>
<path id="Vector_300" d="M101.467 53.88C102.442 53.88 103.233 53.089 103.233 52.1133C103.233 51.1376 102.442 50.3467 101.467 50.3467C100.491 50.3467 99.7001 51.1376 99.7001 52.1133C99.7001 53.089 100.491 53.88 101.467 53.88Z" fill="white"/>
<path id="Vector_301" d="M101.467 57.4132C102.442 57.4132 103.233 56.6223 103.233 55.6465C103.233 54.6708 102.442 53.8799 101.467 53.8799C100.491 53.8799 99.7001 54.6708 99.7001 55.6465C99.7001 56.6223 100.491 57.4132 101.467 57.4132Z" fill="white"/>
<path id="Vector_302" d="M101.467 75.0802C102.442 75.0802 103.233 74.2892 103.233 73.3135C103.233 72.3378 102.442 71.5469 101.467 71.5469C100.491 71.5469 99.7001 72.3378 99.7001 73.3135C99.7001 74.2892 100.491 75.0802 101.467 75.0802Z" fill="white"/>
<path id="Vector_303" d="M101.467 82.1466C102.442 82.1466 103.233 81.3557 103.233 80.3799C103.233 79.4042 102.442 78.6133 101.467 78.6133C100.491 78.6133 99.7001 79.4042 99.7001 80.3799C99.7001 81.3557 100.491 82.1466 101.467 82.1466Z" fill="white"/>
<path id="Vector_304" d="M101.467 85.6798C102.442 85.6798 103.233 84.8889 103.233 83.9132C103.233 82.9374 102.442 82.1465 101.467 82.1465C100.491 82.1465 99.7001 82.9374 99.7001 83.9132C99.7001 84.8889 100.491 85.6798 101.467 85.6798Z" fill="white"/>
<path id="Vector_305" d="M101.467 89.213C102.442 89.213 103.233 88.4221 103.233 87.4464C103.233 86.4707 102.442 85.6797 101.467 85.6797C100.491 85.6797 99.7001 86.4707 99.7001 87.4464C99.7001 88.4221 100.491 89.213 101.467 89.213Z" fill="white"/>
<path id="Vector_306" d="M101.467 92.7462C102.442 92.7462 103.233 91.9553 103.233 90.9796C103.233 90.0039 102.442 89.2129 101.467 89.2129C100.491 89.2129 99.7001 90.0039 99.7001 90.9796C99.7001 91.9553 100.491 92.7462 101.467 92.7462Z" fill="white"/>
<path id="Vector_307" d="M101.467 103.347C102.442 103.347 103.233 102.556 103.233 101.58C103.233 100.604 102.442 99.8135 101.467 99.8135C100.491 99.8135 99.7001 100.604 99.7001 101.58C99.7001 102.556 100.491 103.347 101.467 103.347Z" fill="white"/>
</g>
</mask>
<g mask="url(#mask0_146_5120)">
<path id="Vector_308" d="M103.233 0.879883H0.766724V103.347H103.233V0.879883Z" fill="url(#paint0_linear_146_5120)"/>
</g>
</g>
<defs>
<linearGradient id="paint0_linear_146_5120" x1="0.766724" y1="52.1132" x2="103.233" y2="52.1132" gradientUnits="userSpaceOnUse">
<stop stop-color="#C837AB"/>
<stop offset="1" stop-color="#FFDD55"/>
</linearGradient>
</defs>
</svg>
