<svg width="24" height="24" viewBox="0 0 24 24" fill="none" xmlns="http://www.w3.org/2000/svg">
<g id="wechat">
<rect width="24" height="24" rx="4" fill="#09B83E"/>
<path id="Vector" d="M15.85 8.14C16.24 8.14 16.62 8.17 16.99 8.22C16.31 5.25 13.19 3 9.43999 3C5.18999 3 1.73999 5.88 1.73999 9.43C1.73999 11.48 2.88999 13.29 4.67999 14.47L3.66999 16.5L6.42999 15.31C7.01999 15.52 7.63999 15.69 8.29999 15.78C8.20999 15.39 8.15999 14.99 8.15999 14.57C8.14999 11.03 11.6 8.14 15.85 8.14ZM12 5.89C12.1261 5.89 12.2509 5.91483 12.3674 5.96308C12.4838 6.01132 12.5897 6.08203 12.6788 6.17118C12.768 6.26032 12.8387 6.36615 12.8869 6.48262C12.9352 6.5991 12.96 6.72393 12.96 6.85C12.96 6.97607 12.9352 7.1009 12.8869 7.21738C12.8387 7.33385 12.768 7.43968 12.6788 7.52882C12.5897 7.61797 12.4838 7.68868 12.3674 7.73692C12.2509 7.78517 12.1261 7.81 12 7.81C11.7454 7.81 11.5012 7.70886 11.3212 7.52882C11.1411 7.34879 11.04 7.10461 11.04 6.85C11.04 6.59539 11.1411 6.35121 11.3212 6.17118C11.5012 5.99114 11.7454 5.89 12 5.89ZM6.86999 7.82C6.61538 7.82 6.3712 7.71886 6.19117 7.53882C6.01113 7.35879 5.90999 7.11461 5.90999 6.86C5.90999 6.60539 6.01113 6.36121 6.19117 6.18118C6.3712 6.00114 6.61538 5.9 6.86999 5.9C7.1246 5.9 7.36878 6.00114 7.54881 6.18118C7.72885 6.36121 7.82999 6.60539 7.82999 6.86C7.82999 7.11461 7.72885 7.35879 7.54881 7.53882C7.36878 7.71886 7.1246 7.82 6.86999 7.82Z" fill="white"/>
<path id="Vector_2" d="M22.2599 14.5697C22.2599 11.7297 19.3899 9.42969 15.8499 9.42969C12.3099 9.42969 9.43994 11.7297 9.43994 14.5697C9.43994 17.4097 12.3099 19.7097 15.8499 19.7097C16.4299 19.7097 16.9899 19.6297 17.5199 19.5097L20.9799 20.9997L19.7799 18.5997C21.2799 17.6597 22.2599 16.2197 22.2599 14.5697ZM13.9199 14.2497C13.7301 14.2497 13.5445 14.1934 13.3866 14.0879C13.2287 13.9824 13.1057 13.8325 13.033 13.6571C12.9604 13.4816 12.9413 13.2886 12.9784 13.1024C13.0154 12.9162 13.1069 12.7451 13.2411 12.6109C13.3754 12.4766 13.5464 12.3852 13.7327 12.3481C13.9189 12.3111 14.1119 12.3301 14.2873 12.4028C14.4627 12.4754 14.6127 12.5985 14.7182 12.7563C14.8236 12.9142 14.8799 13.0998 14.8799 13.2897C14.8899 13.8197 14.4499 14.2497 13.9199 14.2497ZM17.7699 14.2497C17.5153 14.2497 17.2712 14.1485 17.0911 13.9685C16.9111 13.7885 16.8099 13.5443 16.8099 13.2897C16.8099 13.0351 16.9111 12.7909 17.0911 12.6109C17.2712 12.4308 17.5153 12.3297 17.7699 12.3297C18.0246 12.3297 18.2687 12.4308 18.4488 12.6109C18.6288 12.7909 18.7299 13.0351 18.7299 13.2897C18.7299 13.5443 18.6288 13.7885 18.4488 13.9685C18.2687 14.1485 18.0246 14.2497 17.7699 14.2497Z" fill="white"/>
</g>
</svg>
