<svg width="22" height="22" viewBox="0 0 22 22" fill="none" xmlns="http://www.w3.org/2000/svg">
<g id="tabler:clock-hour-4-filled">
<path id="Vector" d="M15.5833 3.06124C16.9769 3.86579 18.134 5.02298 18.9386 6.4165C19.7431 7.81002 20.1667 9.39077 20.1667 10.9999C20.1667 12.609 19.7431 14.1897 18.9385 15.5832C18.134 16.9767 16.9768 18.1339 15.5832 18.9384C14.1897 19.743 12.609 20.1665 10.9999 20.1665C9.39076 20.1664 7.81002 19.7429 6.41652 18.9383C5.02302 18.1337 3.86585 16.9765 3.06133 15.583C2.25682 14.1894 1.8333 12.6087 1.83334 10.9996L1.83792 10.7026C1.88926 9.11948 2.34992 7.57671 3.17501 6.22465C4.00009 4.8726 5.16144 3.75741 6.54582 2.9878C7.93021 2.2182 9.49039 1.82044 11.0743 1.83331C12.6581 1.84618 14.2116 2.26924 15.5833 3.06124ZM11 5.49958C10.7569 5.49958 10.5237 5.59615 10.3518 5.76806C10.1799 5.93997 10.0833 6.17313 10.0833 6.41624V11.0234L10.0916 11.1197L10.1099 11.2177L10.1466 11.336L10.1906 11.4295L10.2328 11.501L10.2713 11.556L10.3345 11.6293L10.4152 11.7054L10.4913 11.7622L13.2413 13.5956C13.3414 13.6624 13.4537 13.7088 13.5718 13.7322C13.6899 13.7556 13.8115 13.7555 13.9295 13.7319C14.0476 13.7084 14.1599 13.6618 14.2599 13.5948C14.36 13.5278 14.4459 13.4418 14.5127 13.3417C14.5795 13.2415 14.6259 13.1292 14.6493 13.0111C14.6727 12.893 14.6726 12.7714 14.649 12.6534C14.6255 12.5353 14.5788 12.423 14.5119 12.323C14.4449 12.2229 14.3589 12.1371 14.2588 12.0702L11.9167 10.5082V6.41624C11.9166 6.19172 11.8342 5.97502 11.685 5.80724C11.5358 5.63945 11.3302 5.53226 11.1073 5.50599L11 5.49958Z" fill="#C3E6D7"/>
</g>
</svg>
