<svg width="24" height="24" viewBox="0 0 24 24" fill="none" xmlns="http://www.w3.org/2000/svg">
<g id="wechat">
<rect width="24" height="24" rx="3" fill="#007D1F"/>
<g id="Group 30">
<path id="Vector" d="M15.3771 8.50873C15.7192 8.50873 16.0525 8.53504 16.3771 8.5789C15.7806 5.97367 13.0438 4 9.75432 4C6.02629 4 3 6.52629 3 9.6403C3 11.4385 4.00876 13.0262 5.57892 14.0613L4.69297 15.842L7.114 14.7981C7.63153 14.9824 8.17539 15.1315 8.75433 15.2104C8.67538 14.8683 8.63153 14.5174 8.63153 14.149C8.62275 11.0438 11.649 8.50873 15.3771 8.50873ZM11.9999 6.53506C12.1105 6.53506 12.22 6.55684 12.3222 6.59916C12.4243 6.64148 12.5172 6.70351 12.5954 6.78171C12.6736 6.8599 12.7356 6.95274 12.7779 7.0549C12.8202 7.15707 12.842 7.26657 12.842 7.37716C12.842 7.48775 12.8202 7.59725 12.7779 7.69942C12.7356 7.80159 12.6736 7.89442 12.5954 7.97261C12.5172 8.05081 12.4243 8.11284 12.3222 8.15516C12.22 8.19748 12.1105 8.21926 11.9999 8.21926C11.7766 8.21926 11.5624 8.13054 11.4045 7.97261C11.2465 7.81469 11.1578 7.6005 11.1578 7.37716C11.1578 7.15382 11.2465 6.93963 11.4045 6.78171C11.5624 6.62378 11.7766 6.53506 11.9999 6.53506ZM7.49996 8.22803C7.27662 8.22803 7.06243 8.13931 6.9045 7.98139C6.74658 7.82346 6.65786 7.60927 6.65786 7.38593C6.65786 7.16259 6.74658 6.9484 6.9045 6.79048C7.06243 6.63256 7.27662 6.54384 7.49996 6.54384C7.7233 6.54384 7.93749 6.63256 8.09541 6.79048C8.25333 6.9484 8.34205 7.16259 8.34205 7.38593C8.34205 7.60927 8.25333 7.82346 8.09541 7.98139C7.93749 8.13931 7.7233 8.22803 7.49996 8.22803Z" fill="white"/>
<path id="Vector_2" d="M21.0004 14.1489C21.0004 11.6577 18.4829 9.64014 15.3776 9.64014C12.2724 9.64014 9.75488 11.6577 9.75488 14.1489C9.75488 16.6401 12.2724 18.6576 15.3776 18.6576C15.8864 18.6576 16.3776 18.5874 16.8425 18.4822L19.8776 19.7892L18.825 17.6839C20.1408 16.8594 21.0004 15.5962 21.0004 14.1489ZM13.6847 13.8682C13.5181 13.8682 13.3553 13.8188 13.2168 13.7262C13.0783 13.6337 12.9704 13.5022 12.9067 13.3483C12.8429 13.1945 12.8263 13.0251 12.8588 12.8618C12.8912 12.6984 12.9714 12.5484 13.0892 12.4306C13.207 12.3128 13.357 12.2326 13.5204 12.2002C13.6837 12.1677 13.8531 12.1843 14.0069 12.2481C14.1608 12.3118 14.2923 12.4197 14.3848 12.5582C14.4774 12.6967 14.5268 12.8595 14.5268 13.0261C14.5355 13.491 14.1496 13.8682 13.6847 13.8682ZM17.0618 13.8682C16.8385 13.8682 16.6243 13.7794 16.4664 13.6215C16.3085 13.4636 16.2197 13.2494 16.2197 13.0261C16.2197 12.8027 16.3085 12.5885 16.4664 12.4306C16.6243 12.2727 16.8385 12.184 17.0618 12.184C17.2852 12.184 17.4994 12.2727 17.6573 12.4306C17.8152 12.5885 17.9039 12.8027 17.9039 13.0261C17.9039 13.2494 17.8152 13.4636 17.6573 13.6215C17.4994 13.7794 17.2852 13.8682 17.0618 13.8682Z" fill="white"/>
</g>
</g>
</svg>
