<svg width="14" height="14" viewBox="0 0 14 14" fill="none" xmlns="http://www.w3.org/2000/svg">
<path d="M7 13.75C6.071 13.75 5.196 13.5725 4.375 13.2175C3.554 12.862 2.839 12.3795 2.23 11.77C1.621 11.1605 1.1385 10.4455 0.782504 9.625C0.426504 8.8045 0.249004 7.9295 0.250004 7C0.250004 6.068 0.427504 5.19225 0.782504 4.37275C1.138 3.55275 1.6205 2.8385 2.23 2.23C2.8395 1.6215 3.5545 1.139 4.375 0.7825C5.196 0.4275 6.071 0.25 7 0.25C7.932 0.25 8.80775 0.4275 9.62725 0.7825C10.4473 1.138 11.1618 1.6205 11.7708 2.23C12.3798 2.8395 12.862 3.55375 13.2175 4.37275C13.5725 5.19275 13.75 6.0685 13.75 7C13.75 7.929 13.5725 8.804 13.2175 9.625C12.862 10.446 12.3795 11.161 11.77 11.77C11.1605 12.379 10.4463 12.8615 9.62725 13.2175C8.80825 13.5735 7.9325 13.751 7 13.75ZM7 13.006C7.44 12.4405 7.803 11.8853 8.089 11.3403C8.3745 10.7953 8.60675 10.1853 8.78575 9.51025H5.21425C5.41275 10.2233 5.64975 10.8523 5.92525 11.3973C6.20125 11.9423 6.5595 12.4785 7 13.006ZM6.04525 12.8935C5.69525 12.481 5.37575 11.971 5.08675 11.3635C4.79775 10.7565 4.58275 10.1385 4.44175 9.5095H1.5655C1.9955 10.442 2.60475 11.207 3.39325 11.8045C4.18225 12.4015 5.06625 12.7645 6.04525 12.8935ZM7.95475 12.8935C8.93375 12.7645 9.81775 12.4015 10.6068 11.8045C11.3953 11.207 12.0045 10.442 12.4345 9.5095H9.559C9.369 10.148 9.12975 10.7708 8.84125 11.3778C8.55225 11.9852 8.25675 12.491 7.95475 12.8935ZM1.2595 8.76025H4.28575C4.22875 8.45225 4.18875 8.15225 4.16575 7.86025C4.14175 7.56875 4.12975 7.282 4.12975 7C4.12975 6.718 4.1415 6.43125 4.165 6.13975C4.1885 5.84825 4.2285 5.54825 4.285 5.23975H1.26025C1.17875 5.49975 1.115 5.783 1.069 6.0895C1.023 6.3955 1 6.699 1 7C1 7.301 1.02275 7.60475 1.06825 7.91125C1.11375 8.21775 1.1775 8.5005 1.2595 8.7595M5.03575 8.7595H8.96425C9.02125 8.452 9.06125 8.157 9.08425 7.8745C9.10825 7.5925 9.12025 7.301 9.12025 7C9.12025 6.699 9.1085 6.4075 9.085 6.1255C9.0615 5.8435 9.0215 5.5485 8.965 5.2405H5.035C4.9785 5.548 4.9385 5.843 4.915 6.1255C4.8915 6.4075 4.87975 6.699 4.87975 7C4.87975 7.301 4.8915 7.5925 4.915 7.8745C4.9385 8.1565 4.97925 8.4515 5.03575 8.7595ZM9.715 8.7595H12.7405C12.822 8.5 12.8858 8.21725 12.9318 7.91125C12.9773 7.60475 13 7.301 13 7C13 6.699 12.9773 6.39525 12.9318 6.08875C12.8863 5.78225 12.8225 5.4995 12.7405 5.2405H9.71425C9.77125 5.548 9.81125 5.84775 9.83425 6.13975C9.85825 6.43175 9.87025 6.7185 9.87025 7C9.87025 7.2815 9.8585 7.56825 9.835 7.86025C9.8115 8.15225 9.7715 8.45225 9.715 8.76025M9.559 4.4905H12.4345C11.995 3.5385 11.393 2.7735 10.6285 2.1955C9.864 1.6175 8.97275 1.24975 7.95475 1.09225C8.30475 1.55275 8.6195 2.0795 8.899 2.6725C9.1785 3.265 9.3985 3.871 9.559 4.4905ZM5.21425 4.4905H8.78575C8.58775 3.7865 8.3435 3.15 8.053 2.581C7.7625 2.012 7.4115 1.483 7 0.994C6.5885 1.4825 6.2375 2.0115 5.947 2.581C5.6565 3.1505 5.41175 3.787 5.21425 4.4905ZM1.56625 4.4905H4.44175C4.60225 3.8715 4.82225 3.2655 5.10175 2.6725C5.38125 2.0795 5.696 1.55275 6.046 1.09225C5.019 1.25025 4.1255 1.62025 3.3655 2.20225C2.6055 2.78525 2.0055 3.54775 1.5655 4.48975" fill="#173325"/>
</svg>
